M48
; DRILL file {KiCad (5.1.5)-3} date 28/10/2020 12:36:24
; FORMAT={-:-/ absolute / inch / decimal}
; #@! TF.CreationDate,2020-10-28T12:36:24+01:00
; #@! TF.GenerationSoftware,Kicad,Pcbnew,(5.1.5)-3
; #@! TF.FileFunction,Plated,1,2,PTH
FMAT,2
INCH
T1C0.0157
T2C0.0315
T3C0.0354
T4C0.0362
T5C0.0394
T6C0.0906
T7C0.1260
%
G90
G05
T1
X3.275Y-2.25
X3.275Y-2.8157
X3.275Y-3.3815
X3.275Y-3.9472
X3.275Y-4.513
X3.975Y-2.9
X3.975Y-3.0
X3.975Y-3.2
X3.975Y-3.9
X3.975Y-4.025
X3.975Y-4.15
X3.975Y-4.4
X4.125Y-2.975
X4.125Y-3.2
X4.125Y-3.689
X4.125Y-3.875
X4.125Y-3.925
X4.125Y-4.15
X4.175Y-3.075
X4.225Y-2.8
X4.225Y-4.0
X4.275Y-3.775
X4.35Y-2.25
X4.35Y-4.513
X4.4Y-3.35
X4.625Y-2.25
X4.625Y-2.95
X4.625Y-3.05
X4.625Y-4.513
X4.65Y-3.925
X4.65Y-4.25
X4.66Y-4.143
X4.69Y-3.35
X4.69Y-3.45
X4.725Y-4.25
X4.8Y-2.7
X4.825Y-3.75
X4.925Y-4.1
X4.95Y-3.025
X4.95Y-4.375
X4.9535Y-4.0
X5.05Y-3.7
X5.1Y-3.95
X5.1077Y-3.6827
X5.119Y-3.495
X5.15Y-3.2
X5.15Y-3.675
X5.2Y-3.275
X5.25Y-3.1285
X5.275Y-3.6
X5.325Y-2.975
X5.325Y-3.075
X5.333Y-3.33
X5.35Y-2.25
X5.4Y-2.65
X5.4Y-2.8559
X5.4Y-3.025
X5.4016Y-3.1216
X5.425Y-3.175
X5.45Y-2.65
X5.45Y-3.5
X5.475Y-3.975
X5.5Y-2.65
X5.5415Y-2.7335
X5.55Y-3.2715
X5.55Y-4.513
X5.5579Y-2.8535
X5.5673Y-3.0673
X5.5921Y-2.875
X5.5965Y-3.0
X5.6261Y-2.9741
X5.65Y-2.6785
X5.666Y-3.497
X5.689Y-2.673
X5.7043Y-3.2715
X5.725Y-3.0351
X5.775Y-3.025
X5.775Y-3.9
X5.775Y-4.2
X5.8Y-2.825
X5.8Y-3.275
X5.8Y-3.325
X5.85Y-2.6
X5.8535Y-3.125
X5.8768Y-2.9482
X5.8853Y-2.9989
X5.9Y-3.7
X5.9Y-4.0
X5.925Y-2.625
X5.95Y-2.675
X5.975Y-3.625
X6.025Y-2.925
X6.025Y-3.075
X6.05Y-2.25
X6.05Y-2.625
X6.15Y-2.925
X6.15Y-2.975
X6.15Y-3.3
X6.175Y-3.375
X6.175Y-3.95
X6.26Y-2.85
X6.35Y-2.25
X6.475Y-4.513
X6.725Y-2.25
X6.725Y-2.85
X6.725Y-3.5624
X6.725Y-4.275
T2
X5.5697Y-3.4496
X5.7618Y-3.4496
T3
X6.625Y-3.125
X6.625Y-3.225
T4
X6.25Y-3.6244
X6.25Y-3.7228
X6.25Y-3.8016
X6.25Y-3.9
T5
X6.075Y-4.4632
X6.175Y-4.4632
X6.275Y-4.4632
X6.375Y-4.4632
X3.62Y-2.85
X3.62Y-2.95
X3.62Y-3.05
X3.62Y-3.15
X3.62Y-3.25
X3.62Y-3.35
X3.62Y-3.45
X3.62Y-3.55
X3.62Y-3.65
X3.62Y-3.75
X3.62Y-3.85
X3.62Y-3.95
X3.62Y-4.05
X3.62Y-4.15
X3.62Y-4.25
X3.62Y-4.35
X3.62Y-4.45
X3.72Y-2.85
X3.72Y-2.95
X3.72Y-3.05
X3.72Y-3.15
X3.72Y-3.25
X3.72Y-3.35
X3.72Y-3.45
X3.72Y-3.55
X3.72Y-3.65
X3.72Y-3.75
X3.72Y-3.85
X3.72Y-3.95
X3.72Y-4.05
X3.72Y-4.15
X3.72Y-4.25
X3.72Y-4.35
X3.72Y-4.45
X6.697Y-2.36
X6.697Y-2.46
X6.697Y-2.56
X6.697Y-2.66
X6.697Y-2.76
X3.625Y-2.3
X3.625Y-2.4
X3.625Y-2.5
X3.625Y-2.6
X4.875Y-2.425
X4.875Y-2.525
X4.975Y-2.425
X4.975Y-2.525
X5.075Y-2.425
X5.075Y-2.525
X5.175Y-2.425
X5.175Y-2.525
X5.275Y-2.425
X5.275Y-2.525
X5.3258Y-4.3
X5.625Y-4.3
T6
X6.3567Y-3.5035
X6.3567Y-4.0209
T7
X4.4882Y-4.4047
X6.6108Y-4.4047
X6.2Y-2.3575
X4.4882Y-2.3575
T0
M30
