G04 #@! TF.GenerationSoftware,KiCad,Pcbnew,(5.1.5)-3*
G04 #@! TF.CreationDate,2020-10-28T12:36:19+01:00*
G04 #@! TF.ProjectId,Gotek_Floppy_Disk_Emulator_V2,476f7465-6b5f-4466-9c6f-7070795f4469,rev?*
G04 #@! TF.SameCoordinates,Original*
G04 #@! TF.FileFunction,Copper,L2,Bot*
G04 #@! TF.FilePolarity,Positive*
%FSLAX46Y46*%
G04 Gerber Fmt 4.6, Leading zero omitted, Abs format (unit mm)*
G04 Created by KiCad (PCBNEW (5.1.5)-3) date 2020-10-28 12:36:19*
%MOMM*%
%LPD*%
G04 APERTURE LIST*
%ADD10C,0.150000*%
%ADD11C,6.400000*%
%ADD12O,1.700000X1.700000*%
%ADD13R,1.700000X1.700000*%
%ADD14C,1.700000*%
%ADD15C,2.000000*%
%ADD16R,2.000000X2.000000*%
%ADD17C,1.600000*%
%ADD18R,1.600000X1.600000*%
%ADD19C,3.000000*%
%ADD20C,1.500000*%
%ADD21C,1.800000*%
%ADD22R,1.800000X1.800000*%
%ADD23C,0.800000*%
%ADD24C,0.500000*%
%ADD25C,0.250000*%
%ADD26C,0.254000*%
G04 APERTURE END LIST*
D10*
X85670000Y-60072380D02*
X85622380Y-59977142D01*
X85622380Y-59834285D01*
X85670000Y-59691428D01*
X85765238Y-59596190D01*
X85860476Y-59548571D01*
X86050952Y-59500952D01*
X86193809Y-59500952D01*
X86384285Y-59548571D01*
X86479523Y-59596190D01*
X86574761Y-59691428D01*
X86622380Y-59834285D01*
X86622380Y-59929523D01*
X86574761Y-60072380D01*
X86527142Y-60120000D01*
X86193809Y-60120000D01*
X86193809Y-59929523D01*
X86622380Y-60691428D02*
X86574761Y-60596190D01*
X86527142Y-60548571D01*
X86431904Y-60500952D01*
X86146190Y-60500952D01*
X86050952Y-60548571D01*
X86003333Y-60596190D01*
X85955714Y-60691428D01*
X85955714Y-60834285D01*
X86003333Y-60929523D01*
X86050952Y-60977142D01*
X86146190Y-61024761D01*
X86431904Y-61024761D01*
X86527142Y-60977142D01*
X86574761Y-60929523D01*
X86622380Y-60834285D01*
X86622380Y-60691428D01*
X85955714Y-61310476D02*
X85955714Y-61691428D01*
X85622380Y-61453333D02*
X86479523Y-61453333D01*
X86574761Y-61500952D01*
X86622380Y-61596190D01*
X86622380Y-61691428D01*
X86574761Y-62405714D02*
X86622380Y-62310476D01*
X86622380Y-62120000D01*
X86574761Y-62024761D01*
X86479523Y-61977142D01*
X86098571Y-61977142D01*
X86003333Y-62024761D01*
X85955714Y-62120000D01*
X85955714Y-62310476D01*
X86003333Y-62405714D01*
X86098571Y-62453333D01*
X86193809Y-62453333D01*
X86289047Y-61977142D01*
X86622380Y-62881904D02*
X85622380Y-62881904D01*
X86241428Y-62977142D02*
X86622380Y-63262857D01*
X85955714Y-63262857D02*
X86336666Y-62881904D01*
X86098571Y-64786666D02*
X86098571Y-64453333D01*
X86622380Y-64453333D02*
X85622380Y-64453333D01*
X85622380Y-64929523D01*
X86622380Y-65453333D02*
X86574761Y-65358095D01*
X86479523Y-65310476D01*
X85622380Y-65310476D01*
X86622380Y-65977142D02*
X86574761Y-65881904D01*
X86527142Y-65834285D01*
X86431904Y-65786666D01*
X86146190Y-65786666D01*
X86050952Y-65834285D01*
X86003333Y-65881904D01*
X85955714Y-65977142D01*
X85955714Y-66120000D01*
X86003333Y-66215238D01*
X86050952Y-66262857D01*
X86146190Y-66310476D01*
X86431904Y-66310476D01*
X86527142Y-66262857D01*
X86574761Y-66215238D01*
X86622380Y-66120000D01*
X86622380Y-65977142D01*
X85955714Y-66739047D02*
X86955714Y-66739047D01*
X86003333Y-66739047D02*
X85955714Y-66834285D01*
X85955714Y-67024761D01*
X86003333Y-67120000D01*
X86050952Y-67167619D01*
X86146190Y-67215238D01*
X86431904Y-67215238D01*
X86527142Y-67167619D01*
X86574761Y-67120000D01*
X86622380Y-67024761D01*
X86622380Y-66834285D01*
X86574761Y-66739047D01*
X85955714Y-67643809D02*
X86955714Y-67643809D01*
X86003333Y-67643809D02*
X85955714Y-67739047D01*
X85955714Y-67929523D01*
X86003333Y-68024761D01*
X86050952Y-68072380D01*
X86146190Y-68120000D01*
X86431904Y-68120000D01*
X86527142Y-68072380D01*
X86574761Y-68024761D01*
X86622380Y-67929523D01*
X86622380Y-67739047D01*
X86574761Y-67643809D01*
X85955714Y-68453333D02*
X86622380Y-68691428D01*
X85955714Y-68929523D02*
X86622380Y-68691428D01*
X86860476Y-68596190D01*
X86908095Y-68548571D01*
X86955714Y-68453333D01*
X86622380Y-70072380D02*
X85622380Y-70072380D01*
X85622380Y-70310476D01*
X85670000Y-70453333D01*
X85765238Y-70548571D01*
X85860476Y-70596190D01*
X86050952Y-70643809D01*
X86193809Y-70643809D01*
X86384285Y-70596190D01*
X86479523Y-70548571D01*
X86574761Y-70453333D01*
X86622380Y-70310476D01*
X86622380Y-70072380D01*
X86622380Y-71072380D02*
X85955714Y-71072380D01*
X85622380Y-71072380D02*
X85670000Y-71024761D01*
X85717619Y-71072380D01*
X85670000Y-71120000D01*
X85622380Y-71072380D01*
X85717619Y-71072380D01*
X86574761Y-71500952D02*
X86622380Y-71596190D01*
X86622380Y-71786666D01*
X86574761Y-71881904D01*
X86479523Y-71929523D01*
X86431904Y-71929523D01*
X86336666Y-71881904D01*
X86289047Y-71786666D01*
X86289047Y-71643809D01*
X86241428Y-71548571D01*
X86146190Y-71500952D01*
X86098571Y-71500952D01*
X86003333Y-71548571D01*
X85955714Y-71643809D01*
X85955714Y-71786666D01*
X86003333Y-71881904D01*
X86622380Y-72358095D02*
X85622380Y-72358095D01*
X86241428Y-72453333D02*
X86622380Y-72739047D01*
X85955714Y-72739047D02*
X86336666Y-72358095D01*
X86098571Y-73929523D02*
X86098571Y-74262857D01*
X86622380Y-74405714D02*
X86622380Y-73929523D01*
X85622380Y-73929523D01*
X85622380Y-74405714D01*
X86622380Y-74834285D02*
X85955714Y-74834285D01*
X86050952Y-74834285D02*
X86003333Y-74881904D01*
X85955714Y-74977142D01*
X85955714Y-75120000D01*
X86003333Y-75215238D01*
X86098571Y-75262857D01*
X86622380Y-75262857D01*
X86098571Y-75262857D02*
X86003333Y-75310476D01*
X85955714Y-75405714D01*
X85955714Y-75548571D01*
X86003333Y-75643809D01*
X86098571Y-75691428D01*
X86622380Y-75691428D01*
X85955714Y-76596190D02*
X86622380Y-76596190D01*
X85955714Y-76167619D02*
X86479523Y-76167619D01*
X86574761Y-76215238D01*
X86622380Y-76310476D01*
X86622380Y-76453333D01*
X86574761Y-76548571D01*
X86527142Y-76596190D01*
X86622380Y-77215238D02*
X86574761Y-77120000D01*
X86479523Y-77072380D01*
X85622380Y-77072380D01*
X86622380Y-78024761D02*
X86098571Y-78024761D01*
X86003333Y-77977142D01*
X85955714Y-77881904D01*
X85955714Y-77691428D01*
X86003333Y-77596190D01*
X86574761Y-78024761D02*
X86622380Y-77929523D01*
X86622380Y-77691428D01*
X86574761Y-77596190D01*
X86479523Y-77548571D01*
X86384285Y-77548571D01*
X86289047Y-77596190D01*
X86241428Y-77691428D01*
X86241428Y-77929523D01*
X86193809Y-78024761D01*
X85955714Y-78358095D02*
X85955714Y-78739047D01*
X85622380Y-78500952D02*
X86479523Y-78500952D01*
X86574761Y-78548571D01*
X86622380Y-78643809D01*
X86622380Y-78739047D01*
X86622380Y-79215238D02*
X86574761Y-79120000D01*
X86527142Y-79072380D01*
X86431904Y-79024761D01*
X86146190Y-79024761D01*
X86050952Y-79072380D01*
X86003333Y-79120000D01*
X85955714Y-79215238D01*
X85955714Y-79358095D01*
X86003333Y-79453333D01*
X86050952Y-79500952D01*
X86146190Y-79548571D01*
X86431904Y-79548571D01*
X86527142Y-79500952D01*
X86574761Y-79453333D01*
X86622380Y-79358095D01*
X86622380Y-79215238D01*
X86622380Y-79977142D02*
X85955714Y-79977142D01*
X86146190Y-79977142D02*
X86050952Y-80024761D01*
X86003333Y-80072380D01*
X85955714Y-80167619D01*
X85955714Y-80262857D01*
X85622380Y-81215238D02*
X86622380Y-81548571D01*
X85622380Y-81881904D01*
X85717619Y-82167619D02*
X85670000Y-82215238D01*
X85622380Y-82310476D01*
X85622380Y-82548571D01*
X85670000Y-82643809D01*
X85717619Y-82691428D01*
X85812857Y-82739047D01*
X85908095Y-82739047D01*
X86050952Y-82691428D01*
X86622380Y-82120000D01*
X86622380Y-82739047D01*
X87367619Y-67167619D02*
X87320000Y-67215238D01*
X87272380Y-67310476D01*
X87272380Y-67548571D01*
X87320000Y-67643809D01*
X87367619Y-67691428D01*
X87462857Y-67739047D01*
X87558095Y-67739047D01*
X87700952Y-67691428D01*
X88272380Y-67120000D01*
X88272380Y-67739047D01*
X87272380Y-68358095D02*
X87272380Y-68453333D01*
X87320000Y-68548571D01*
X87367619Y-68596190D01*
X87462857Y-68643809D01*
X87653333Y-68691428D01*
X87891428Y-68691428D01*
X88081904Y-68643809D01*
X88177142Y-68596190D01*
X88224761Y-68548571D01*
X88272380Y-68453333D01*
X88272380Y-68358095D01*
X88224761Y-68262857D01*
X88177142Y-68215238D01*
X88081904Y-68167619D01*
X87891428Y-68120000D01*
X87653333Y-68120000D01*
X87462857Y-68167619D01*
X87367619Y-68215238D01*
X87320000Y-68262857D01*
X87272380Y-68358095D01*
X87367619Y-69072380D02*
X87320000Y-69120000D01*
X87272380Y-69215238D01*
X87272380Y-69453333D01*
X87320000Y-69548571D01*
X87367619Y-69596190D01*
X87462857Y-69643809D01*
X87558095Y-69643809D01*
X87700952Y-69596190D01*
X88272380Y-69024761D01*
X88272380Y-69643809D01*
X87272380Y-70262857D02*
X87272380Y-70358095D01*
X87320000Y-70453333D01*
X87367619Y-70500952D01*
X87462857Y-70548571D01*
X87653333Y-70596190D01*
X87891428Y-70596190D01*
X88081904Y-70548571D01*
X88177142Y-70500952D01*
X88224761Y-70453333D01*
X88272380Y-70358095D01*
X88272380Y-70262857D01*
X88224761Y-70167619D01*
X88177142Y-70120000D01*
X88081904Y-70072380D01*
X87891428Y-70024761D01*
X87653333Y-70024761D01*
X87462857Y-70072380D01*
X87367619Y-70120000D01*
X87320000Y-70167619D01*
X87272380Y-70262857D01*
X88272380Y-72358095D02*
X87796190Y-72024761D01*
X88272380Y-71786666D02*
X87272380Y-71786666D01*
X87272380Y-72167619D01*
X87320000Y-72262857D01*
X87367619Y-72310476D01*
X87462857Y-72358095D01*
X87605714Y-72358095D01*
X87700952Y-72310476D01*
X87748571Y-72262857D01*
X87796190Y-72167619D01*
X87796190Y-71786666D01*
X88272380Y-72786666D02*
X87605714Y-72786666D01*
X87272380Y-72786666D02*
X87320000Y-72739047D01*
X87367619Y-72786666D01*
X87320000Y-72834285D01*
X87272380Y-72786666D01*
X87367619Y-72786666D01*
X88224761Y-73691428D02*
X88272380Y-73596190D01*
X88272380Y-73405714D01*
X88224761Y-73310476D01*
X88177142Y-73262857D01*
X88081904Y-73215238D01*
X87796190Y-73215238D01*
X87700952Y-73262857D01*
X87653333Y-73310476D01*
X87605714Y-73405714D01*
X87605714Y-73596190D01*
X87653333Y-73691428D01*
X88272380Y-74120000D02*
X87272380Y-74120000D01*
X88272380Y-74548571D02*
X87748571Y-74548571D01*
X87653333Y-74500952D01*
X87605714Y-74405714D01*
X87605714Y-74262857D01*
X87653333Y-74167619D01*
X87700952Y-74120000D01*
X88272380Y-75024761D02*
X87605714Y-75024761D01*
X87272380Y-75024761D02*
X87320000Y-74977142D01*
X87367619Y-75024761D01*
X87320000Y-75072380D01*
X87272380Y-75024761D01*
X87367619Y-75024761D01*
D11*
X114000000Y-59880000D03*
X157480000Y-59880000D03*
X167915000Y-111880000D03*
X114000000Y-111880000D03*
D12*
X91948000Y-113030000D03*
X94488000Y-113030000D03*
X91948000Y-110490000D03*
X94488000Y-110490000D03*
X91948000Y-107950000D03*
X94488000Y-107950000D03*
X91948000Y-105410000D03*
X94488000Y-105410000D03*
X91948000Y-102870000D03*
X94488000Y-102870000D03*
X91948000Y-100330000D03*
X94488000Y-100330000D03*
X91948000Y-97790000D03*
X94488000Y-97790000D03*
X91948000Y-95250000D03*
X94488000Y-95250000D03*
X91948000Y-92710000D03*
X94488000Y-92710000D03*
X91948000Y-90170000D03*
X94488000Y-90170000D03*
X91948000Y-87630000D03*
X94488000Y-87630000D03*
X91948000Y-85090000D03*
X94488000Y-85090000D03*
X91948000Y-82550000D03*
X94488000Y-82550000D03*
X91948000Y-80010000D03*
X94488000Y-80010000D03*
X91948000Y-77470000D03*
X94488000Y-77470000D03*
X91948000Y-74930000D03*
X94488000Y-74930000D03*
D13*
X91948000Y-72390000D03*
D14*
X94488000Y-72390000D03*
D12*
X92075000Y-66040000D03*
X92075000Y-63500000D03*
X92075000Y-60960000D03*
D13*
X92075000Y-58420000D03*
X154305000Y-113365000D03*
D12*
X156845000Y-113365000D03*
X159385000Y-113365000D03*
X161925000Y-113365000D03*
D15*
X135275000Y-109220000D03*
D16*
X142875000Y-109220000D03*
D17*
X158750000Y-92060000D03*
X158750000Y-94560000D03*
X158750000Y-96560000D03*
D18*
X158750000Y-99060000D03*
D19*
X161460000Y-102130000D03*
X161460000Y-88990000D03*
D12*
X133985000Y-61595000D03*
X133985000Y-64135000D03*
X131445000Y-61595000D03*
X131445000Y-64135000D03*
X128905000Y-61595000D03*
X128905000Y-64135000D03*
X126365000Y-61595000D03*
X126365000Y-64135000D03*
X123825000Y-61595000D03*
D13*
X123825000Y-64135000D03*
X170103800Y-59944000D03*
D12*
X170103800Y-62484000D03*
X170103800Y-65024000D03*
X170103800Y-67564000D03*
X170103800Y-70104000D03*
D20*
X146350000Y-87620000D03*
X141470000Y-87620000D03*
D21*
X168275000Y-79375000D03*
D22*
X168275000Y-81915000D03*
D23*
X153670000Y-57150000D03*
X130810000Y-81280000D03*
X137795000Y-80645000D03*
X140754097Y-69430903D03*
X137160000Y-72540000D03*
X83185000Y-57150000D03*
X83185000Y-71520000D03*
X83185000Y-85890000D03*
X83185000Y-100260000D03*
X83185000Y-114630000D03*
X110490000Y-57150000D03*
X117475000Y-57150000D03*
X161290000Y-57150000D03*
X135890000Y-57150000D03*
X170815000Y-108585000D03*
X170815000Y-72390000D03*
X170815000Y-90485000D03*
X110490000Y-114630000D03*
X117475000Y-114630000D03*
X140970000Y-114630000D03*
X164465000Y-114630000D03*
X107315000Y-71120000D03*
X125730000Y-76835000D03*
X150495000Y-66675000D03*
X153670000Y-66675000D03*
X159004000Y-72390000D03*
X156210000Y-83820000D03*
X143916400Y-88823800D03*
X138430000Y-88900000D03*
X130022600Y-88773000D03*
X135458200Y-84582000D03*
X106045000Y-78105000D03*
X111760000Y-85090000D03*
X108585000Y-95885000D03*
X118110000Y-99695000D03*
X107315000Y-101600000D03*
X118110000Y-107950000D03*
X118364000Y-105232200D03*
X139065000Y-100965000D03*
X125730000Y-111125000D03*
X149860000Y-101600000D03*
X146685000Y-106680000D03*
X156845000Y-100330000D03*
X121920000Y-68580000D03*
X170815000Y-57150000D03*
X133985000Y-91440000D03*
X144890000Y-83095000D03*
X128270000Y-93980000D03*
X140970000Y-83095000D03*
X130810000Y-93345000D03*
X156845000Y-85725000D03*
X147320014Y-84455000D03*
X156210000Y-75565000D03*
X156209992Y-74295000D03*
X138430000Y-67310000D03*
X139699986Y-67310000D03*
X137160000Y-67310000D03*
X144500107Y-67894670D03*
X143510000Y-68035000D03*
X100965000Y-111760000D03*
X104775000Y-105410000D03*
X142149990Y-76200008D03*
X100965000Y-105410000D03*
X104775000Y-99695000D03*
X100965000Y-102235000D03*
X104775000Y-98425000D03*
X100965000Y-99060000D03*
X104775000Y-93700032D03*
X141408437Y-77908437D03*
X135255000Y-75565000D03*
X148680010Y-79375000D03*
X149271436Y-74883564D03*
X147320000Y-71755000D03*
X117475000Y-74930000D03*
X117475000Y-77470000D03*
X100965000Y-81280000D03*
X104775000Y-81280000D03*
X100965000Y-76200000D03*
X119126000Y-85090000D03*
X100965000Y-73660000D03*
X104775000Y-75565000D03*
X119126000Y-87630000D03*
X120015000Y-107950000D03*
X132080000Y-83185000D03*
X151765000Y-92075000D03*
X146685000Y-76835000D03*
X149860000Y-93980000D03*
X145415000Y-77092679D03*
X129539998Y-100330000D03*
X122555000Y-95250000D03*
X142039968Y-73025000D03*
X141169676Y-72480010D03*
X151130000Y-67945000D03*
X153035000Y-74295000D03*
X148590000Y-66040000D03*
X147320000Y-83185000D03*
X129735512Y-93540512D03*
X146685000Y-99060000D03*
X153035000Y-78105000D03*
X149486567Y-76172065D03*
X125820010Y-101600000D03*
X125095000Y-104140000D03*
X142902258Y-75541126D03*
X135255000Y-78105000D03*
X137160000Y-76835000D03*
X133350000Y-79465010D03*
X137199651Y-79287651D03*
D24*
X125515001Y-60745001D02*
X126365000Y-61595000D01*
X124864999Y-60094999D02*
X125515001Y-60745001D01*
X117159998Y-66040000D02*
X123104999Y-60094999D01*
X123104999Y-60094999D02*
X124864999Y-60094999D01*
X92075000Y-66040000D02*
X117159998Y-66040000D01*
D25*
X130810000Y-81280000D02*
X136614996Y-81280000D01*
X136614996Y-81280000D02*
X137160000Y-81280000D01*
X137160000Y-81280000D02*
X137795000Y-80645000D01*
X128905000Y-94615000D02*
X130810000Y-94615000D01*
X130810000Y-94615000D02*
X133985000Y-91440000D01*
X144800000Y-83185000D02*
X144890000Y-83095000D01*
X128905000Y-94615000D02*
X128270000Y-93980000D01*
X140970000Y-83095000D02*
X144890000Y-83095000D01*
X130810000Y-93345000D02*
X130810000Y-92710000D01*
X139065000Y-84455000D02*
X147320014Y-84455000D01*
X130810000Y-92710000D02*
X139065000Y-84455000D01*
X156845000Y-85725000D02*
X162560000Y-85725000D01*
X166370000Y-81915000D02*
X168275000Y-81915000D01*
X162560000Y-85725000D02*
X166370000Y-81915000D01*
X156210000Y-75565000D02*
X154940000Y-76835000D01*
X154940000Y-111460000D02*
X156845000Y-113365000D01*
X154940000Y-76835000D02*
X154940000Y-111460000D01*
X154305000Y-76199992D02*
X156209992Y-74295000D01*
X154305000Y-113365000D02*
X154305000Y-76199992D01*
X133985000Y-64135000D02*
X135255000Y-64135000D01*
X135255000Y-64135000D02*
X138430000Y-67310000D01*
X132620001Y-62770001D02*
X135159987Y-62770001D01*
X131445000Y-61595000D02*
X132620001Y-62770001D01*
X135159987Y-62770001D02*
X139299987Y-66910001D01*
X139299987Y-66910001D02*
X139699986Y-67310000D01*
X132620001Y-64605686D02*
X133324316Y-65310001D01*
X133324316Y-65310001D02*
X135725686Y-65310001D01*
X132009001Y-62959999D02*
X132620001Y-63570999D01*
X137160000Y-66744315D02*
X137160000Y-67310000D01*
X135725686Y-65310001D02*
X137160000Y-66744315D01*
X130269999Y-62959999D02*
X132009001Y-62959999D01*
X132620001Y-63570999D02*
X132620001Y-64605686D01*
X128905000Y-61595000D02*
X130269999Y-62959999D01*
X141605000Y-67310000D02*
X143510000Y-67310000D01*
X130556000Y-65786000D02*
X135565261Y-65786000D01*
X135565261Y-65786000D02*
X136434999Y-66655738D01*
X128905000Y-64135000D02*
X130556000Y-65786000D01*
X140879999Y-68035001D02*
X141605000Y-67310000D01*
X136811999Y-68035001D02*
X140879999Y-68035001D01*
X136434999Y-67658001D02*
X136811999Y-68035001D01*
X136434999Y-66655738D02*
X136434999Y-67658001D01*
X143510000Y-67310000D02*
X143915437Y-67310000D01*
X143915437Y-67310000D02*
X144500107Y-67894670D01*
X141516400Y-68035010D02*
X142875000Y-68035010D01*
X126365000Y-65337081D02*
X127321919Y-66294000D01*
X126365000Y-64135000D02*
X126365000Y-65337081D01*
X127321919Y-66294000D02*
X135436851Y-66294000D01*
X135436851Y-66294000D02*
X135984989Y-66842138D01*
X136625599Y-68485011D02*
X141066399Y-68485011D01*
X135984990Y-67844402D02*
X136625599Y-68485011D01*
X141066399Y-68485011D02*
X141516400Y-68035010D01*
X135984989Y-66842138D02*
X135984990Y-67844402D01*
X142875000Y-68035010D02*
X143509990Y-68035010D01*
X143509990Y-68035010D02*
X143510000Y-68035000D01*
X100965000Y-111760000D02*
X104775000Y-107950000D01*
X104775000Y-107950000D02*
X104775000Y-105410000D01*
X138521413Y-82459998D02*
X142149990Y-78831421D01*
X128720011Y-82734989D02*
X128995002Y-82459998D01*
X105156000Y-91694000D02*
X119759589Y-91694000D01*
X142149990Y-78831421D02*
X142149990Y-76765693D01*
X94488000Y-110490000D02*
X95663001Y-109314999D01*
X95663001Y-109314999D02*
X95663001Y-101186999D01*
X95663001Y-101186999D02*
X105156000Y-91694000D01*
X128718600Y-82734989D02*
X128720011Y-82734989D01*
X142149990Y-76765693D02*
X142149990Y-76200008D01*
X128995002Y-82459998D02*
X138521413Y-82459998D01*
X119759589Y-91694000D02*
X128718600Y-82734989D01*
X100965000Y-105410000D02*
X104775000Y-101600000D01*
X104775000Y-101600000D02*
X104775000Y-99695000D01*
X100965000Y-102235000D02*
X104775000Y-98425000D01*
X104375001Y-94100031D02*
X104775000Y-93700032D01*
X100965000Y-97510032D02*
X104375001Y-94100031D01*
X100965000Y-99060000D02*
X100965000Y-97510032D01*
X138335013Y-82009987D02*
X141408437Y-78936563D01*
X103632000Y-91186000D02*
X119631179Y-91186000D01*
X94488000Y-100330000D02*
X103632000Y-91186000D01*
X128808602Y-82009987D02*
X138335013Y-82009987D01*
X128533611Y-82284978D02*
X128808602Y-82009987D01*
X141408437Y-78936563D02*
X141408437Y-77908437D01*
X119631179Y-91186000D02*
X128532200Y-82284978D01*
X128532200Y-82284978D02*
X128533611Y-82284978D01*
X101600000Y-90678000D02*
X119502768Y-90678000D01*
X128345800Y-81834967D02*
X128347212Y-81834967D01*
X134689315Y-75565000D02*
X135255000Y-75565000D01*
X128347212Y-81834967D02*
X134617179Y-75565000D01*
X119502768Y-90678000D02*
X128345800Y-81834967D01*
X94488000Y-97790000D02*
X101600000Y-90678000D01*
X134617179Y-75565000D02*
X134689315Y-75565000D01*
X99568000Y-90170000D02*
X119374357Y-90170000D01*
X128160812Y-81384956D02*
X134705771Y-74839997D01*
X119374357Y-90170000D02*
X128159400Y-81384956D01*
X94488000Y-95250000D02*
X99568000Y-90170000D01*
X128159400Y-81384956D02*
X128160812Y-81384956D01*
X148680010Y-78809315D02*
X148680010Y-79375000D01*
X148680010Y-75365140D02*
X148680010Y-78809315D01*
X148130995Y-74816125D02*
X148680010Y-75365140D01*
X135188869Y-74816125D02*
X148130995Y-74816125D01*
X135164997Y-74839997D02*
X135188869Y-74816125D01*
X134705771Y-74839997D02*
X135164997Y-74839997D01*
X97478011Y-89719989D02*
X94488000Y-92710000D01*
X149271436Y-74883564D02*
X148696255Y-74308383D01*
X119187957Y-89719989D02*
X97478011Y-89719989D01*
X148696255Y-74308383D02*
X134600974Y-74308383D01*
X127974412Y-80934945D02*
X127973000Y-80934945D01*
X134600974Y-74308383D02*
X127974412Y-80934945D01*
X127973000Y-80934945D02*
X119187957Y-89719989D01*
X119001557Y-89269978D02*
X127786600Y-80484934D01*
X127786600Y-80484934D02*
X127788012Y-80484934D01*
X94488000Y-90170000D02*
X95388022Y-89269978D01*
X95388022Y-89269978D02*
X119001557Y-89269978D01*
X127786600Y-80484934D02*
X134413161Y-73858373D01*
X134413161Y-73858373D02*
X138231627Y-73858373D01*
X140335000Y-71755000D02*
X147320000Y-71755000D01*
X138231627Y-73858373D02*
X140335000Y-71755000D01*
X115570000Y-76835000D02*
X117475000Y-74930000D01*
X105936593Y-80554999D02*
X109656592Y-76835000D01*
X100616999Y-80554999D02*
X105936593Y-80554999D01*
X93745499Y-81280000D02*
X99891998Y-81280000D01*
X109656592Y-76835000D02*
X115570000Y-76835000D01*
X94488000Y-85090000D02*
X93218000Y-83820000D01*
X93218000Y-81807499D02*
X93745499Y-81280000D01*
X93218000Y-83820000D02*
X93218000Y-81807499D01*
X99891998Y-81280000D02*
X100616999Y-80554999D01*
X109658002Y-77470000D02*
X117475000Y-77470000D01*
X105086002Y-82042000D02*
X109658002Y-77470000D01*
X94488000Y-82550000D02*
X94996000Y-82042000D01*
X94996000Y-82042000D02*
X105086002Y-82042000D01*
X100965000Y-81280000D02*
X104775000Y-81280000D01*
X117823001Y-74204999D02*
X118200001Y-74581999D01*
X101530685Y-76200000D02*
X101620686Y-76290001D01*
X100965000Y-76200000D02*
X101530685Y-76200000D01*
X101620686Y-76290001D02*
X115041997Y-76290001D01*
X115041997Y-76290001D02*
X117126999Y-74204999D01*
X117126999Y-74204999D02*
X117823001Y-74204999D01*
X118200001Y-84164001D02*
X119126000Y-85090000D01*
X118200001Y-74581999D02*
X118200001Y-84164001D01*
X100965000Y-73660000D02*
X102870000Y-75565000D01*
X102870000Y-75565000D02*
X104775000Y-75565000D01*
X90772999Y-85843999D02*
X91289000Y-86360000D01*
X90772999Y-72465001D02*
X90772999Y-85843999D01*
X91948000Y-72390000D02*
X90848000Y-72390000D01*
X91289000Y-86360000D02*
X94957002Y-86360000D01*
X94957002Y-86360000D02*
X97416970Y-88819968D01*
X90848000Y-72390000D02*
X90772999Y-72465001D01*
X97416970Y-88819968D02*
X117555032Y-88819968D01*
X117555032Y-88819968D02*
X117936032Y-88819968D01*
X117936032Y-88819968D02*
X119126000Y-87630000D01*
X120015000Y-92075000D02*
X128905000Y-83185000D01*
X128905000Y-83185000D02*
X132080000Y-83185000D01*
X120015000Y-107950000D02*
X120015000Y-92075000D01*
X150368000Y-90678000D02*
X150368000Y-84107589D01*
X146685000Y-80424589D02*
X146685000Y-77400685D01*
X146685000Y-77400685D02*
X146685000Y-76835000D01*
X151765000Y-92075000D02*
X150368000Y-90678000D01*
X150368000Y-84107589D02*
X146685000Y-80424589D01*
X145415000Y-77658364D02*
X145415000Y-77092679D01*
X146050000Y-80425999D02*
X146050000Y-78293364D01*
X146050000Y-78293364D02*
X145415000Y-77658364D01*
X149860000Y-93980000D02*
X149860000Y-84235999D01*
X149860000Y-84235999D02*
X146050000Y-80425999D01*
X125570682Y-104865001D02*
X129539998Y-100895685D01*
X124746999Y-104865001D02*
X125570682Y-104865001D01*
X129539998Y-100895685D02*
X129539998Y-100330000D01*
X122555000Y-95250000D02*
X124369999Y-97064999D01*
X124369999Y-104488001D02*
X124746999Y-104865001D01*
X124369999Y-97064999D02*
X124369999Y-104488001D01*
X169003800Y-59944000D02*
X170103800Y-59944000D01*
X168045695Y-63905695D02*
X168045695Y-60902105D01*
X142039968Y-73025000D02*
X149225000Y-73025000D01*
X168045695Y-60902105D02*
X169003800Y-59944000D01*
X151220002Y-75020002D02*
X153383001Y-75020001D01*
X149225000Y-73025000D02*
X151220002Y-75020002D01*
X163556380Y-68395010D02*
X168045695Y-63905695D01*
X160007992Y-68395010D02*
X163556380Y-68395010D01*
X153383001Y-75020001D02*
X160007992Y-68395010D01*
X141169676Y-73227712D02*
X141691966Y-73750002D01*
X141169676Y-72480010D02*
X141169676Y-73227712D01*
X141691966Y-73750002D02*
X149313592Y-73750002D01*
X149313592Y-73750002D02*
X151033603Y-75470013D01*
X151033603Y-75470013D02*
X153569402Y-75470013D01*
X169253801Y-63333999D02*
X170103800Y-62484000D01*
X163742781Y-68845019D02*
X169253801Y-63333999D01*
X160194396Y-68845019D02*
X163742781Y-68845019D01*
X153569402Y-75470013D02*
X160194396Y-68845019D01*
X171278801Y-63848999D02*
X170953799Y-64174001D01*
X171278801Y-58833999D02*
X171278801Y-63848999D01*
X171213801Y-58768999D02*
X171278801Y-58833999D01*
X170953799Y-64174001D02*
X170103800Y-65024000D01*
X167595685Y-60167113D02*
X168993799Y-58768999D01*
X168993799Y-58768999D02*
X171213801Y-58768999D01*
X167595685Y-63719295D02*
X167595685Y-60167113D01*
X163369980Y-67945000D02*
X167595685Y-63719295D01*
X151130000Y-67945000D02*
X163369980Y-67945000D01*
X149860000Y-67310000D02*
X148590000Y-66040000D01*
X149860000Y-71120000D02*
X149860000Y-67310000D01*
X153035000Y-74295000D02*
X149860000Y-71120000D01*
X129735512Y-93148077D02*
X129735512Y-93540512D01*
X138973587Y-83910002D02*
X129735512Y-93148077D01*
X146754315Y-83185000D02*
X147320000Y-83185000D01*
X145873002Y-83185000D02*
X146754315Y-83185000D01*
X145148000Y-83910002D02*
X145873002Y-83185000D01*
X138973587Y-83910002D02*
X145148000Y-83910002D01*
X146685000Y-99060000D02*
X153670000Y-92075000D01*
X153670000Y-92075000D02*
X153670000Y-78740000D01*
X153670000Y-78740000D02*
X153035000Y-78105000D01*
X149486567Y-76737750D02*
X149486567Y-76172065D01*
X147955009Y-79723001D02*
X148332009Y-80100001D01*
X133809980Y-83360020D02*
X138894213Y-83360020D01*
X149028011Y-80100001D02*
X149486567Y-79641445D01*
X132715000Y-84455000D02*
X133809980Y-83360020D01*
X128907820Y-84455000D02*
X132715000Y-84455000D01*
X147033001Y-76109999D02*
X147955009Y-77032007D01*
X125820010Y-101600000D02*
X125820010Y-87542810D01*
X125820010Y-87542810D02*
X128907820Y-84455000D01*
X138894213Y-83360020D02*
X144689998Y-77564235D01*
X144689998Y-77564235D02*
X144689998Y-76744677D01*
X149486567Y-79641445D02*
X149486567Y-76737750D01*
X144689998Y-76744677D02*
X145324680Y-76109999D01*
X148332009Y-80100001D02*
X149028011Y-80100001D01*
X145324680Y-76109999D02*
X147033001Y-76109999D01*
X147955009Y-77032007D02*
X147955009Y-79723001D01*
X142902258Y-76106811D02*
X142902258Y-75541126D01*
X142902258Y-78715564D02*
X142902258Y-76106811D01*
X138707813Y-82910009D02*
X142902258Y-78715564D01*
X125095000Y-104140000D02*
X125095000Y-87631410D01*
X125095000Y-87631410D02*
X128816409Y-83910001D01*
X128816409Y-83910001D02*
X132428001Y-83910001D01*
X132428001Y-83910001D02*
X133427993Y-82910009D01*
X133427993Y-82910009D02*
X138707813Y-82910009D01*
X135255000Y-78105000D02*
X135890000Y-78105000D01*
X135890000Y-78105000D02*
X137160000Y-76835000D01*
X133350000Y-79465010D02*
X137022292Y-79465010D01*
X137022292Y-79465010D02*
X137199651Y-79287651D01*
D26*
G36*
X111555330Y-56901161D02*
G01*
X111021161Y-57435330D01*
X110601467Y-58063446D01*
X110312377Y-58761372D01*
X110165000Y-59502285D01*
X110165000Y-60257715D01*
X110312377Y-60998628D01*
X110601467Y-61696554D01*
X111021161Y-62324670D01*
X111555330Y-62858839D01*
X112183446Y-63278533D01*
X112881372Y-63567623D01*
X113622285Y-63715000D01*
X114377715Y-63715000D01*
X115118628Y-63567623D01*
X115816554Y-63278533D01*
X116444670Y-62858839D01*
X116978839Y-62324670D01*
X117398533Y-61696554D01*
X117687623Y-60998628D01*
X117835000Y-60257715D01*
X117835000Y-59502285D01*
X117687623Y-58761372D01*
X117398533Y-58063446D01*
X116978839Y-57435330D01*
X116444670Y-56901161D01*
X115956536Y-56575000D01*
X155523464Y-56575000D01*
X155035330Y-56901161D01*
X154501161Y-57435330D01*
X154081467Y-58063446D01*
X153792377Y-58761372D01*
X153645000Y-59502285D01*
X153645000Y-60257715D01*
X153792377Y-60998628D01*
X154081467Y-61696554D01*
X154501161Y-62324670D01*
X155035330Y-62858839D01*
X155663446Y-63278533D01*
X156361372Y-63567623D01*
X157102285Y-63715000D01*
X157857715Y-63715000D01*
X158598628Y-63567623D01*
X159296554Y-63278533D01*
X159924670Y-62858839D01*
X160458839Y-62324670D01*
X160878533Y-61696554D01*
X161167623Y-60998628D01*
X161315000Y-60257715D01*
X161315000Y-59502285D01*
X161167623Y-58761372D01*
X160878533Y-58063446D01*
X160458839Y-57435330D01*
X159924670Y-56901161D01*
X159436536Y-56575000D01*
X171220000Y-56575000D01*
X171220000Y-58005934D01*
X171213801Y-58005323D01*
X171176479Y-58008999D01*
X169031124Y-58008999D01*
X168993799Y-58005323D01*
X168956474Y-58008999D01*
X168956466Y-58008999D01*
X168844813Y-58019996D01*
X168701552Y-58063453D01*
X168569523Y-58134025D01*
X168453798Y-58228998D01*
X168430000Y-58257996D01*
X167084683Y-59603314D01*
X167055685Y-59627112D01*
X167031887Y-59656110D01*
X167031886Y-59656111D01*
X166960711Y-59742837D01*
X166890139Y-59874867D01*
X166846683Y-60018128D01*
X166832009Y-60167113D01*
X166835686Y-60204445D01*
X166835685Y-63404493D01*
X163055179Y-67185000D01*
X151833711Y-67185000D01*
X151789774Y-67141063D01*
X151620256Y-67027795D01*
X151431898Y-66949774D01*
X151231939Y-66910000D01*
X151028061Y-66910000D01*
X150828102Y-66949774D01*
X150639744Y-67027795D01*
X150580583Y-67067325D01*
X150565546Y-67017753D01*
X150494974Y-66885724D01*
X150400001Y-66769999D01*
X150371003Y-66746201D01*
X149625000Y-66000199D01*
X149625000Y-65938061D01*
X149585226Y-65738102D01*
X149507205Y-65549744D01*
X149393937Y-65380226D01*
X149249774Y-65236063D01*
X149080256Y-65122795D01*
X148891898Y-65044774D01*
X148691939Y-65005000D01*
X148488061Y-65005000D01*
X148288102Y-65044774D01*
X148099744Y-65122795D01*
X147930226Y-65236063D01*
X147786063Y-65380226D01*
X147672795Y-65549744D01*
X147594774Y-65738102D01*
X147555000Y-65938061D01*
X147555000Y-66141939D01*
X147594774Y-66341898D01*
X147672795Y-66530256D01*
X147786063Y-66699774D01*
X147930226Y-66843937D01*
X148099744Y-66957205D01*
X148288102Y-67035226D01*
X148488061Y-67075000D01*
X148550199Y-67075000D01*
X149100001Y-67624803D01*
X149100000Y-71082677D01*
X149096324Y-71120000D01*
X149100000Y-71157322D01*
X149100000Y-71157332D01*
X149110997Y-71268985D01*
X149154454Y-71412246D01*
X149225026Y-71544276D01*
X149240233Y-71562805D01*
X149319999Y-71660001D01*
X149349003Y-71683804D01*
X151925201Y-74260002D01*
X151534805Y-74260003D01*
X149788804Y-72514003D01*
X149765001Y-72484999D01*
X149649276Y-72390026D01*
X149517247Y-72319454D01*
X149373986Y-72275997D01*
X149262333Y-72265000D01*
X149262322Y-72265000D01*
X149225000Y-72261324D01*
X149187678Y-72265000D01*
X148224013Y-72265000D01*
X148237205Y-72245256D01*
X148315226Y-72056898D01*
X148355000Y-71856939D01*
X148355000Y-71653061D01*
X148315226Y-71453102D01*
X148237205Y-71264744D01*
X148123937Y-71095226D01*
X147979774Y-70951063D01*
X147810256Y-70837795D01*
X147621898Y-70759774D01*
X147421939Y-70720000D01*
X147218061Y-70720000D01*
X147018102Y-70759774D01*
X146829744Y-70837795D01*
X146660226Y-70951063D01*
X146616289Y-70995000D01*
X140372333Y-70995000D01*
X140335000Y-70991323D01*
X140297667Y-70995000D01*
X140186014Y-71005997D01*
X140042753Y-71049454D01*
X139910724Y-71120026D01*
X139794999Y-71214999D01*
X139771201Y-71243997D01*
X137916826Y-73098373D01*
X134450483Y-73098373D01*
X134413160Y-73094697D01*
X134375837Y-73098373D01*
X134375828Y-73098373D01*
X134264175Y-73109370D01*
X134120914Y-73152827D01*
X133988885Y-73223399D01*
X133988883Y-73223400D01*
X133988884Y-73223400D01*
X133902157Y-73294574D01*
X133902153Y-73294578D01*
X133873160Y-73318372D01*
X133849366Y-73347365D01*
X127275603Y-79921130D01*
X127246599Y-79944933D01*
X127222801Y-79973931D01*
X120047242Y-87149491D01*
X120043205Y-87139744D01*
X119929937Y-86970226D01*
X119785774Y-86826063D01*
X119616256Y-86712795D01*
X119427898Y-86634774D01*
X119227939Y-86595000D01*
X119024061Y-86595000D01*
X118824102Y-86634774D01*
X118635744Y-86712795D01*
X118466226Y-86826063D01*
X118322063Y-86970226D01*
X118208795Y-87139744D01*
X118130774Y-87328102D01*
X118091000Y-87528061D01*
X118091000Y-87590198D01*
X117621231Y-88059968D01*
X97731772Y-88059968D01*
X95668295Y-85996492D01*
X95803990Y-85793411D01*
X95915932Y-85523158D01*
X95973000Y-85236260D01*
X95973000Y-84943740D01*
X95915932Y-84656842D01*
X95803990Y-84386589D01*
X95641475Y-84143368D01*
X95434632Y-83936525D01*
X95260240Y-83820000D01*
X95434632Y-83703475D01*
X95641475Y-83496632D01*
X95803990Y-83253411D01*
X95915932Y-82983158D01*
X95951967Y-82802000D01*
X105048680Y-82802000D01*
X105086002Y-82805676D01*
X105123324Y-82802000D01*
X105123335Y-82802000D01*
X105234988Y-82791003D01*
X105378249Y-82747546D01*
X105510278Y-82676974D01*
X105626003Y-82582001D01*
X105649806Y-82552997D01*
X109972805Y-78230000D01*
X116771289Y-78230000D01*
X116815226Y-78273937D01*
X116984744Y-78387205D01*
X117173102Y-78465226D01*
X117373061Y-78505000D01*
X117440001Y-78505000D01*
X117440002Y-84126669D01*
X117436325Y-84164001D01*
X117440002Y-84201334D01*
X117450999Y-84312987D01*
X117457458Y-84334279D01*
X117494455Y-84456247D01*
X117565027Y-84588277D01*
X117623071Y-84659003D01*
X117660001Y-84704002D01*
X117688999Y-84727800D01*
X118091000Y-85129801D01*
X118091000Y-85191939D01*
X118130774Y-85391898D01*
X118208795Y-85580256D01*
X118322063Y-85749774D01*
X118466226Y-85893937D01*
X118635744Y-86007205D01*
X118824102Y-86085226D01*
X119024061Y-86125000D01*
X119227939Y-86125000D01*
X119427898Y-86085226D01*
X119616256Y-86007205D01*
X119785774Y-85893937D01*
X119929937Y-85749774D01*
X120043205Y-85580256D01*
X120121226Y-85391898D01*
X120161000Y-85191939D01*
X120161000Y-84988061D01*
X120121226Y-84788102D01*
X120043205Y-84599744D01*
X119929937Y-84430226D01*
X119785774Y-84286063D01*
X119616256Y-84172795D01*
X119427898Y-84094774D01*
X119227939Y-84055000D01*
X119165801Y-84055000D01*
X118960001Y-83849200D01*
X118960001Y-74619332D01*
X118963678Y-74581999D01*
X118958557Y-74530000D01*
X118949004Y-74433013D01*
X118905547Y-74289752D01*
X118834975Y-74157723D01*
X118740002Y-74041998D01*
X118710999Y-74018196D01*
X118386805Y-73694002D01*
X118363002Y-73664998D01*
X118247277Y-73570025D01*
X118115248Y-73499453D01*
X117971987Y-73455996D01*
X117860334Y-73444999D01*
X117860323Y-73444999D01*
X117823001Y-73441323D01*
X117785679Y-73444999D01*
X117164321Y-73444999D01*
X117126998Y-73441323D01*
X117089675Y-73444999D01*
X117089666Y-73444999D01*
X116978013Y-73455996D01*
X116862411Y-73491063D01*
X116834752Y-73499453D01*
X116702722Y-73570025D01*
X116672907Y-73594494D01*
X116586998Y-73664998D01*
X116563200Y-73693996D01*
X114727196Y-75530001D01*
X105810000Y-75530001D01*
X105810000Y-75463061D01*
X105770226Y-75263102D01*
X105692205Y-75074744D01*
X105578937Y-74905226D01*
X105434774Y-74761063D01*
X105265256Y-74647795D01*
X105076898Y-74569774D01*
X104876939Y-74530000D01*
X104673061Y-74530000D01*
X104473102Y-74569774D01*
X104284744Y-74647795D01*
X104115226Y-74761063D01*
X104071289Y-74805000D01*
X103184802Y-74805000D01*
X102000000Y-73620199D01*
X102000000Y-73558061D01*
X101960226Y-73358102D01*
X101882205Y-73169744D01*
X101768937Y-73000226D01*
X101624774Y-72856063D01*
X101455256Y-72742795D01*
X101266898Y-72664774D01*
X101066939Y-72625000D01*
X100863061Y-72625000D01*
X100663102Y-72664774D01*
X100474744Y-72742795D01*
X100305226Y-72856063D01*
X100161063Y-73000226D01*
X100047795Y-73169744D01*
X99969774Y-73358102D01*
X99930000Y-73558061D01*
X99930000Y-73761939D01*
X99969774Y-73961898D01*
X100047795Y-74150256D01*
X100161063Y-74319774D01*
X100305226Y-74463937D01*
X100474744Y-74577205D01*
X100663102Y-74655226D01*
X100863061Y-74695000D01*
X100925199Y-74695000D01*
X101681859Y-75451661D01*
X101679724Y-75451013D01*
X101624774Y-75396063D01*
X101455256Y-75282795D01*
X101266898Y-75204774D01*
X101066939Y-75165000D01*
X100863061Y-75165000D01*
X100663102Y-75204774D01*
X100474744Y-75282795D01*
X100305226Y-75396063D01*
X100161063Y-75540226D01*
X100047795Y-75709744D01*
X99969774Y-75898102D01*
X99930000Y-76098061D01*
X99930000Y-76301939D01*
X99969774Y-76501898D01*
X100047795Y-76690256D01*
X100161063Y-76859774D01*
X100305226Y-77003937D01*
X100474744Y-77117205D01*
X100663102Y-77195226D01*
X100863061Y-77235000D01*
X101066939Y-77235000D01*
X101266898Y-77195226D01*
X101455256Y-77117205D01*
X101559369Y-77047639D01*
X101583353Y-77050001D01*
X101583361Y-77050001D01*
X101620686Y-77053677D01*
X101658011Y-77050001D01*
X108366789Y-77050001D01*
X105621792Y-79794999D01*
X100654321Y-79794999D01*
X100616998Y-79791323D01*
X100579675Y-79794999D01*
X100579666Y-79794999D01*
X100468013Y-79805996D01*
X100324752Y-79849453D01*
X100192723Y-79920025D01*
X100076998Y-80014998D01*
X100053200Y-80043997D01*
X99577197Y-80520000D01*
X95884103Y-80520000D01*
X95915932Y-80443158D01*
X95973000Y-80156260D01*
X95973000Y-79863740D01*
X95915932Y-79576842D01*
X95803990Y-79306589D01*
X95641475Y-79063368D01*
X95434632Y-78856525D01*
X95260240Y-78740000D01*
X95434632Y-78623475D01*
X95641475Y-78416632D01*
X95803990Y-78173411D01*
X95915932Y-77903158D01*
X95973000Y-77616260D01*
X95973000Y-77323740D01*
X95915932Y-77036842D01*
X95803990Y-76766589D01*
X95641475Y-76523368D01*
X95434632Y-76316525D01*
X95260240Y-76200000D01*
X95434632Y-76083475D01*
X95641475Y-75876632D01*
X95803990Y-75633411D01*
X95915932Y-75363158D01*
X95973000Y-75076260D01*
X95973000Y-74783740D01*
X95915932Y-74496842D01*
X95803990Y-74226589D01*
X95641475Y-73983368D01*
X95434632Y-73776525D01*
X95260240Y-73660000D01*
X95434632Y-73543475D01*
X95641475Y-73336632D01*
X95803990Y-73093411D01*
X95915932Y-72823158D01*
X95973000Y-72536260D01*
X95973000Y-72243740D01*
X95915932Y-71956842D01*
X95803990Y-71686589D01*
X95641475Y-71443368D01*
X95434632Y-71236525D01*
X95191411Y-71074010D01*
X94921158Y-70962068D01*
X94634260Y-70905000D01*
X94341740Y-70905000D01*
X94054842Y-70962068D01*
X93784589Y-71074010D01*
X93541368Y-71236525D01*
X93409513Y-71368380D01*
X93387502Y-71295820D01*
X93328537Y-71185506D01*
X93249185Y-71088815D01*
X93152494Y-71009463D01*
X93042180Y-70950498D01*
X92922482Y-70914188D01*
X92798000Y-70901928D01*
X91098000Y-70901928D01*
X90973518Y-70914188D01*
X90853820Y-70950498D01*
X90743506Y-71009463D01*
X90646815Y-71088815D01*
X90567463Y-71185506D01*
X90508498Y-71295820D01*
X90472188Y-71415518D01*
X90459928Y-71540000D01*
X90459928Y-71735674D01*
X90423724Y-71755026D01*
X90307999Y-71849999D01*
X90284199Y-71878999D01*
X90261999Y-71901199D01*
X90232998Y-71925000D01*
X90179856Y-71989754D01*
X90138025Y-72040725D01*
X90107543Y-72097753D01*
X90067453Y-72172755D01*
X90023996Y-72316016D01*
X90012999Y-72427669D01*
X90012999Y-72427679D01*
X90009323Y-72465001D01*
X90012999Y-72502323D01*
X90013000Y-85806667D01*
X90009323Y-85843999D01*
X90013000Y-85881332D01*
X90023997Y-85992985D01*
X90031357Y-86017247D01*
X90067453Y-86136245D01*
X90138025Y-86268275D01*
X90209200Y-86355001D01*
X90232999Y-86384000D01*
X90261997Y-86407798D01*
X90693841Y-86839643D01*
X90676359Y-86863080D01*
X90551175Y-87125901D01*
X90506524Y-87273110D01*
X90627845Y-87503000D01*
X91821000Y-87503000D01*
X91821000Y-87483000D01*
X92075000Y-87483000D01*
X92075000Y-87503000D01*
X92095000Y-87503000D01*
X92095000Y-87757000D01*
X92075000Y-87757000D01*
X92075000Y-90043000D01*
X92095000Y-90043000D01*
X92095000Y-90297000D01*
X92075000Y-90297000D01*
X92075000Y-92583000D01*
X92095000Y-92583000D01*
X92095000Y-92837000D01*
X92075000Y-92837000D01*
X92075000Y-95123000D01*
X92095000Y-95123000D01*
X92095000Y-95377000D01*
X92075000Y-95377000D01*
X92075000Y-97663000D01*
X92095000Y-97663000D01*
X92095000Y-97917000D01*
X92075000Y-97917000D01*
X92075000Y-100203000D01*
X92095000Y-100203000D01*
X92095000Y-100457000D01*
X92075000Y-100457000D01*
X92075000Y-102743000D01*
X92095000Y-102743000D01*
X92095000Y-102997000D01*
X92075000Y-102997000D01*
X92075000Y-105283000D01*
X92095000Y-105283000D01*
X92095000Y-105537000D01*
X92075000Y-105537000D01*
X92075000Y-107823000D01*
X92095000Y-107823000D01*
X92095000Y-108077000D01*
X92075000Y-108077000D01*
X92075000Y-110363000D01*
X92095000Y-110363000D01*
X92095000Y-110617000D01*
X92075000Y-110617000D01*
X92075000Y-112903000D01*
X92095000Y-112903000D01*
X92095000Y-113157000D01*
X92075000Y-113157000D01*
X92075000Y-114350814D01*
X92304891Y-114471481D01*
X92579252Y-114374157D01*
X92829355Y-114225178D01*
X93045588Y-114030269D01*
X93216900Y-113800594D01*
X93334525Y-113976632D01*
X93541368Y-114183475D01*
X93784589Y-114345990D01*
X94054842Y-114457932D01*
X94341740Y-114515000D01*
X94634260Y-114515000D01*
X94921158Y-114457932D01*
X95191411Y-114345990D01*
X95434632Y-114183475D01*
X95641475Y-113976632D01*
X95803990Y-113733411D01*
X95915932Y-113463158D01*
X95973000Y-113176260D01*
X95973000Y-112883740D01*
X95915932Y-112596842D01*
X95803990Y-112326589D01*
X95641475Y-112083368D01*
X95434632Y-111876525D01*
X95260240Y-111760000D01*
X95412802Y-111658061D01*
X99930000Y-111658061D01*
X99930000Y-111861939D01*
X99969774Y-112061898D01*
X100047795Y-112250256D01*
X100161063Y-112419774D01*
X100305226Y-112563937D01*
X100474744Y-112677205D01*
X100663102Y-112755226D01*
X100863061Y-112795000D01*
X101066939Y-112795000D01*
X101266898Y-112755226D01*
X101455256Y-112677205D01*
X101624774Y-112563937D01*
X101768937Y-112419774D01*
X101882205Y-112250256D01*
X101960226Y-112061898D01*
X102000000Y-111861939D01*
X102000000Y-111799801D01*
X105286004Y-108513798D01*
X105315001Y-108490001D01*
X105409974Y-108374276D01*
X105480546Y-108242247D01*
X105524003Y-108098986D01*
X105535000Y-107987333D01*
X105535000Y-107987325D01*
X105538676Y-107950000D01*
X105535000Y-107912675D01*
X105535000Y-106113711D01*
X105578937Y-106069774D01*
X105692205Y-105900256D01*
X105770226Y-105711898D01*
X105810000Y-105511939D01*
X105810000Y-105308061D01*
X105770226Y-105108102D01*
X105692205Y-104919744D01*
X105578937Y-104750226D01*
X105434774Y-104606063D01*
X105265256Y-104492795D01*
X105076898Y-104414774D01*
X104876939Y-104375000D01*
X104673061Y-104375000D01*
X104473102Y-104414774D01*
X104284744Y-104492795D01*
X104115226Y-104606063D01*
X103971063Y-104750226D01*
X103857795Y-104919744D01*
X103779774Y-105108102D01*
X103740000Y-105308061D01*
X103740000Y-105511939D01*
X103779774Y-105711898D01*
X103857795Y-105900256D01*
X103971063Y-106069774D01*
X104015001Y-106113712D01*
X104015000Y-107635198D01*
X100925199Y-110725000D01*
X100863061Y-110725000D01*
X100663102Y-110764774D01*
X100474744Y-110842795D01*
X100305226Y-110956063D01*
X100161063Y-111100226D01*
X100047795Y-111269744D01*
X99969774Y-111458102D01*
X99930000Y-111658061D01*
X95412802Y-111658061D01*
X95434632Y-111643475D01*
X95641475Y-111436632D01*
X95803990Y-111193411D01*
X95915932Y-110923158D01*
X95973000Y-110636260D01*
X95973000Y-110343740D01*
X95929210Y-110123592D01*
X96174005Y-109878797D01*
X96203002Y-109855000D01*
X96297975Y-109739275D01*
X96368547Y-109607246D01*
X96412004Y-109463985D01*
X96423001Y-109352332D01*
X96423001Y-109352323D01*
X96426677Y-109315000D01*
X96423001Y-109277677D01*
X96423001Y-102133061D01*
X99930000Y-102133061D01*
X99930000Y-102336939D01*
X99969774Y-102536898D01*
X100047795Y-102725256D01*
X100161063Y-102894774D01*
X100305226Y-103038937D01*
X100474744Y-103152205D01*
X100663102Y-103230226D01*
X100863061Y-103270000D01*
X101066939Y-103270000D01*
X101266898Y-103230226D01*
X101455256Y-103152205D01*
X101624774Y-103038937D01*
X101768937Y-102894774D01*
X101882205Y-102725256D01*
X101960226Y-102536898D01*
X102000000Y-102336939D01*
X102000000Y-102274801D01*
X103950621Y-100324181D01*
X103971063Y-100354774D01*
X104015001Y-100398712D01*
X104015000Y-101285198D01*
X100925199Y-104375000D01*
X100863061Y-104375000D01*
X100663102Y-104414774D01*
X100474744Y-104492795D01*
X100305226Y-104606063D01*
X100161063Y-104750226D01*
X100047795Y-104919744D01*
X99969774Y-105108102D01*
X99930000Y-105308061D01*
X99930000Y-105511939D01*
X99969774Y-105711898D01*
X100047795Y-105900256D01*
X100161063Y-106069774D01*
X100305226Y-106213937D01*
X100474744Y-106327205D01*
X100663102Y-106405226D01*
X100863061Y-106445000D01*
X101066939Y-106445000D01*
X101266898Y-106405226D01*
X101455256Y-106327205D01*
X101624774Y-106213937D01*
X101768937Y-106069774D01*
X101882205Y-105900256D01*
X101960226Y-105711898D01*
X102000000Y-105511939D01*
X102000000Y-105449801D01*
X105286004Y-102163798D01*
X105315001Y-102140001D01*
X105409974Y-102024276D01*
X105480546Y-101892247D01*
X105524003Y-101748986D01*
X105535000Y-101637333D01*
X105535000Y-101637325D01*
X105538676Y-101600000D01*
X105535000Y-101562675D01*
X105535000Y-100398711D01*
X105578937Y-100354774D01*
X105692205Y-100185256D01*
X105770226Y-99996898D01*
X105810000Y-99796939D01*
X105810000Y-99593061D01*
X105770226Y-99393102D01*
X105692205Y-99204744D01*
X105595490Y-99060000D01*
X105692205Y-98915256D01*
X105770226Y-98726898D01*
X105810000Y-98526939D01*
X105810000Y-98323061D01*
X105770226Y-98123102D01*
X105692205Y-97934744D01*
X105578937Y-97765226D01*
X105434774Y-97621063D01*
X105265256Y-97507795D01*
X105076898Y-97429774D01*
X104876939Y-97390000D01*
X104673061Y-97390000D01*
X104473102Y-97429774D01*
X104284744Y-97507795D01*
X104115226Y-97621063D01*
X103971063Y-97765226D01*
X103857795Y-97934744D01*
X103779774Y-98123102D01*
X103740000Y-98323061D01*
X103740000Y-98385198D01*
X100925199Y-101200000D01*
X100863061Y-101200000D01*
X100663102Y-101239774D01*
X100474744Y-101317795D01*
X100305226Y-101431063D01*
X100161063Y-101575226D01*
X100047795Y-101744744D01*
X99969774Y-101933102D01*
X99930000Y-102133061D01*
X96423001Y-102133061D01*
X96423001Y-101501800D01*
X100205001Y-97719801D01*
X100205000Y-98356289D01*
X100161063Y-98400226D01*
X100047795Y-98569744D01*
X99969774Y-98758102D01*
X99930000Y-98958061D01*
X99930000Y-99161939D01*
X99969774Y-99361898D01*
X100047795Y-99550256D01*
X100161063Y-99719774D01*
X100305226Y-99863937D01*
X100474744Y-99977205D01*
X100663102Y-100055226D01*
X100863061Y-100095000D01*
X101066939Y-100095000D01*
X101266898Y-100055226D01*
X101455256Y-99977205D01*
X101624774Y-99863937D01*
X101768937Y-99719774D01*
X101882205Y-99550256D01*
X101960226Y-99361898D01*
X102000000Y-99161939D01*
X102000000Y-98958061D01*
X101960226Y-98758102D01*
X101882205Y-98569744D01*
X101768937Y-98400226D01*
X101725000Y-98356289D01*
X101725000Y-97824833D01*
X104814802Y-94735032D01*
X104876939Y-94735032D01*
X105076898Y-94695258D01*
X105265256Y-94617237D01*
X105434774Y-94503969D01*
X105578937Y-94359806D01*
X105692205Y-94190288D01*
X105770226Y-94001930D01*
X105810000Y-93801971D01*
X105810000Y-93598093D01*
X105770226Y-93398134D01*
X105692205Y-93209776D01*
X105578937Y-93040258D01*
X105434774Y-92896095D01*
X105265256Y-92782827D01*
X105178083Y-92746719D01*
X105470802Y-92454000D01*
X119255001Y-92454000D01*
X119255000Y-107246289D01*
X119211063Y-107290226D01*
X119097795Y-107459744D01*
X119019774Y-107648102D01*
X118980000Y-107848061D01*
X118980000Y-108051939D01*
X119019774Y-108251898D01*
X119097795Y-108440256D01*
X119211063Y-108609774D01*
X119355226Y-108753937D01*
X119524744Y-108867205D01*
X119713102Y-108945226D01*
X119913061Y-108985000D01*
X120116939Y-108985000D01*
X120316898Y-108945226D01*
X120505256Y-108867205D01*
X120674774Y-108753937D01*
X120818937Y-108609774D01*
X120932205Y-108440256D01*
X121010226Y-108251898D01*
X121050000Y-108051939D01*
X121050000Y-107848061D01*
X121010226Y-107648102D01*
X120932205Y-107459744D01*
X120818937Y-107290226D01*
X120775000Y-107246289D01*
X120775000Y-92389801D01*
X124335001Y-88829801D01*
X124335000Y-95955199D01*
X123590000Y-95210199D01*
X123590000Y-95148061D01*
X123550226Y-94948102D01*
X123472205Y-94759744D01*
X123358937Y-94590226D01*
X123214774Y-94446063D01*
X123045256Y-94332795D01*
X122856898Y-94254774D01*
X122656939Y-94215000D01*
X122453061Y-94215000D01*
X122253102Y-94254774D01*
X122064744Y-94332795D01*
X121895226Y-94446063D01*
X121751063Y-94590226D01*
X121637795Y-94759744D01*
X121559774Y-94948102D01*
X121520000Y-95148061D01*
X121520000Y-95351939D01*
X121559774Y-95551898D01*
X121637795Y-95740256D01*
X121751063Y-95909774D01*
X121895226Y-96053937D01*
X122064744Y-96167205D01*
X122253102Y-96245226D01*
X122453061Y-96285000D01*
X122515199Y-96285000D01*
X123609999Y-97379801D01*
X123610000Y-104450669D01*
X123606323Y-104488001D01*
X123610000Y-104525334D01*
X123620997Y-104636987D01*
X123623829Y-104646323D01*
X123664453Y-104780247D01*
X123735025Y-104912277D01*
X123788013Y-104976842D01*
X123829999Y-105028002D01*
X123858997Y-105051800D01*
X124183195Y-105375998D01*
X124206998Y-105405002D01*
X124322723Y-105499975D01*
X124391991Y-105537000D01*
X124454752Y-105570547D01*
X124598013Y-105614004D01*
X124746999Y-105628678D01*
X124784332Y-105625001D01*
X125533360Y-105625001D01*
X125570682Y-105628677D01*
X125608004Y-105625001D01*
X125608015Y-105625001D01*
X125719668Y-105614004D01*
X125862929Y-105570547D01*
X125994958Y-105499975D01*
X126110683Y-105405002D01*
X126134486Y-105375998D01*
X130051002Y-101459483D01*
X130079999Y-101435686D01*
X130174972Y-101319961D01*
X130245544Y-101187932D01*
X130288985Y-101044724D01*
X130343935Y-100989774D01*
X130457203Y-100820256D01*
X130535224Y-100631898D01*
X130574998Y-100431939D01*
X130574998Y-100228061D01*
X130535224Y-100028102D01*
X130457203Y-99839744D01*
X130343935Y-99670226D01*
X130199772Y-99526063D01*
X130030254Y-99412795D01*
X129841896Y-99334774D01*
X129641937Y-99295000D01*
X129438059Y-99295000D01*
X129238100Y-99334774D01*
X129049742Y-99412795D01*
X128880224Y-99526063D01*
X128736061Y-99670226D01*
X128622793Y-99839744D01*
X128544772Y-100028102D01*
X128504998Y-100228061D01*
X128504998Y-100431939D01*
X128544772Y-100631898D01*
X128598726Y-100762155D01*
X125889796Y-103471085D01*
X125855000Y-103436289D01*
X125855000Y-102635000D01*
X125921949Y-102635000D01*
X126121908Y-102595226D01*
X126310266Y-102517205D01*
X126479784Y-102403937D01*
X126623947Y-102259774D01*
X126737215Y-102090256D01*
X126815236Y-101901898D01*
X126855010Y-101701939D01*
X126855010Y-101498061D01*
X126815236Y-101298102D01*
X126737215Y-101109744D01*
X126623947Y-100940226D01*
X126580010Y-100896289D01*
X126580010Y-87857611D01*
X129222622Y-85215000D01*
X132677678Y-85215000D01*
X132715000Y-85218676D01*
X132752322Y-85215000D01*
X132752333Y-85215000D01*
X132863986Y-85204003D01*
X133007247Y-85160546D01*
X133139276Y-85089974D01*
X133255001Y-84995001D01*
X133278804Y-84965998D01*
X134124782Y-84120020D01*
X137688767Y-84120020D01*
X129224515Y-92584273D01*
X129195511Y-92608076D01*
X129170298Y-92638799D01*
X129107437Y-92715394D01*
X129075738Y-92736575D01*
X128931575Y-92880738D01*
X128818307Y-93050256D01*
X128801655Y-93090457D01*
X128760256Y-93062795D01*
X128571898Y-92984774D01*
X128371939Y-92945000D01*
X128168061Y-92945000D01*
X127968102Y-92984774D01*
X127779744Y-93062795D01*
X127610226Y-93176063D01*
X127466063Y-93320226D01*
X127352795Y-93489744D01*
X127274774Y-93678102D01*
X127235000Y-93878061D01*
X127235000Y-94081939D01*
X127274774Y-94281898D01*
X127352795Y-94470256D01*
X127466063Y-94639774D01*
X127610226Y-94783937D01*
X127779744Y-94897205D01*
X127968102Y-94975226D01*
X128168061Y-95015000D01*
X128230198Y-95015000D01*
X128341200Y-95126002D01*
X128364999Y-95155001D01*
X128393997Y-95178799D01*
X128480724Y-95249974D01*
X128612753Y-95320546D01*
X128756014Y-95364003D01*
X128905000Y-95378677D01*
X128942333Y-95375000D01*
X130772678Y-95375000D01*
X130810000Y-95378676D01*
X130847322Y-95375000D01*
X130847333Y-95375000D01*
X130958986Y-95364003D01*
X131102247Y-95320546D01*
X131234276Y-95249974D01*
X131350001Y-95155001D01*
X131373804Y-95125997D01*
X134024802Y-92475000D01*
X134086939Y-92475000D01*
X134286898Y-92435226D01*
X134475256Y-92357205D01*
X134644774Y-92243937D01*
X134788937Y-92099774D01*
X134902205Y-91930256D01*
X134980226Y-91741898D01*
X135020000Y-91541939D01*
X135020000Y-91338061D01*
X134980226Y-91138102D01*
X134902205Y-90949744D01*
X134788937Y-90780226D01*
X134644774Y-90636063D01*
X134475256Y-90522795D01*
X134286898Y-90444774D01*
X134172735Y-90422066D01*
X137111212Y-87483589D01*
X140085000Y-87483589D01*
X140085000Y-87756411D01*
X140138225Y-88023989D01*
X140242629Y-88276043D01*
X140394201Y-88502886D01*
X140587114Y-88695799D01*
X140813957Y-88847371D01*
X141066011Y-88951775D01*
X141333589Y-89005000D01*
X141606411Y-89005000D01*
X141873989Y-88951775D01*
X142126043Y-88847371D01*
X142352886Y-88695799D01*
X142545799Y-88502886D01*
X142697371Y-88276043D01*
X142801775Y-88023989D01*
X142855000Y-87756411D01*
X142855000Y-87483589D01*
X144965000Y-87483589D01*
X144965000Y-87756411D01*
X145018225Y-88023989D01*
X145122629Y-88276043D01*
X145274201Y-88502886D01*
X145467114Y-88695799D01*
X145693957Y-88847371D01*
X145946011Y-88951775D01*
X146213589Y-89005000D01*
X146486411Y-89005000D01*
X146753989Y-88951775D01*
X147006043Y-88847371D01*
X147232886Y-88695799D01*
X147425799Y-88502886D01*
X147577371Y-88276043D01*
X147681775Y-88023989D01*
X147735000Y-87756411D01*
X147735000Y-87483589D01*
X147681775Y-87216011D01*
X147577371Y-86963957D01*
X147425799Y-86737114D01*
X147232886Y-86544201D01*
X147006043Y-86392629D01*
X146753989Y-86288225D01*
X146486411Y-86235000D01*
X146213589Y-86235000D01*
X145946011Y-86288225D01*
X145693957Y-86392629D01*
X145467114Y-86544201D01*
X145274201Y-86737114D01*
X145122629Y-86963957D01*
X145018225Y-87216011D01*
X144965000Y-87483589D01*
X142855000Y-87483589D01*
X142801775Y-87216011D01*
X142697371Y-86963957D01*
X142545799Y-86737114D01*
X142352886Y-86544201D01*
X142126043Y-86392629D01*
X141873989Y-86288225D01*
X141606411Y-86235000D01*
X141333589Y-86235000D01*
X141066011Y-86288225D01*
X140813957Y-86392629D01*
X140587114Y-86544201D01*
X140394201Y-86737114D01*
X140242629Y-86963957D01*
X140138225Y-87216011D01*
X140085000Y-87483589D01*
X137111212Y-87483589D01*
X139379802Y-85215000D01*
X146616303Y-85215000D01*
X146660240Y-85258937D01*
X146829758Y-85372205D01*
X147018116Y-85450226D01*
X147218075Y-85490000D01*
X147421953Y-85490000D01*
X147621912Y-85450226D01*
X147810270Y-85372205D01*
X147979788Y-85258937D01*
X148123951Y-85114774D01*
X148237219Y-84945256D01*
X148315240Y-84756898D01*
X148355014Y-84556939D01*
X148355014Y-84353061D01*
X148315240Y-84153102D01*
X148237219Y-83964744D01*
X148140497Y-83819990D01*
X148232098Y-83682899D01*
X149100001Y-84550802D01*
X149100000Y-93276289D01*
X149056063Y-93320226D01*
X148942795Y-93489744D01*
X148864774Y-93678102D01*
X148825000Y-93878061D01*
X148825000Y-94081939D01*
X148864774Y-94281898D01*
X148942795Y-94470256D01*
X149056063Y-94639774D01*
X149200226Y-94783937D01*
X149369744Y-94897205D01*
X149558102Y-94975226D01*
X149672264Y-94997934D01*
X146645199Y-98025000D01*
X146583061Y-98025000D01*
X146383102Y-98064774D01*
X146194744Y-98142795D01*
X146025226Y-98256063D01*
X145881063Y-98400226D01*
X145767795Y-98569744D01*
X145689774Y-98758102D01*
X145650000Y-98958061D01*
X145650000Y-99161939D01*
X145689774Y-99361898D01*
X145767795Y-99550256D01*
X145881063Y-99719774D01*
X146025226Y-99863937D01*
X146194744Y-99977205D01*
X146383102Y-100055226D01*
X146583061Y-100095000D01*
X146786939Y-100095000D01*
X146986898Y-100055226D01*
X147175256Y-99977205D01*
X147344774Y-99863937D01*
X147488937Y-99719774D01*
X147602205Y-99550256D01*
X147680226Y-99361898D01*
X147720000Y-99161939D01*
X147720000Y-99099801D01*
X153545001Y-93274801D01*
X153545000Y-111876928D01*
X153455000Y-111876928D01*
X153330518Y-111889188D01*
X153210820Y-111925498D01*
X153100506Y-111984463D01*
X153003815Y-112063815D01*
X152924463Y-112160506D01*
X152865498Y-112270820D01*
X152829188Y-112390518D01*
X152816928Y-112515000D01*
X152816928Y-114215000D01*
X152829188Y-114339482D01*
X152865498Y-114459180D01*
X152924463Y-114569494D01*
X153003815Y-114666185D01*
X153100506Y-114745537D01*
X153210820Y-114804502D01*
X153330518Y-114840812D01*
X153455000Y-114853072D01*
X155155000Y-114853072D01*
X155279482Y-114840812D01*
X155399180Y-114804502D01*
X155509494Y-114745537D01*
X155606185Y-114666185D01*
X155685537Y-114569494D01*
X155744502Y-114459180D01*
X155766513Y-114386620D01*
X155898368Y-114518475D01*
X156141589Y-114680990D01*
X156411842Y-114792932D01*
X156698740Y-114850000D01*
X156991260Y-114850000D01*
X157278158Y-114792932D01*
X157548411Y-114680990D01*
X157791632Y-114518475D01*
X157998475Y-114311632D01*
X158115000Y-114137240D01*
X158231525Y-114311632D01*
X158438368Y-114518475D01*
X158681589Y-114680990D01*
X158951842Y-114792932D01*
X159238740Y-114850000D01*
X159531260Y-114850000D01*
X159818158Y-114792932D01*
X160088411Y-114680990D01*
X160331632Y-114518475D01*
X160538475Y-114311632D01*
X160660195Y-114129466D01*
X160729822Y-114246355D01*
X160924731Y-114462588D01*
X161158080Y-114636641D01*
X161420901Y-114761825D01*
X161568110Y-114806476D01*
X161798000Y-114685155D01*
X161798000Y-113492000D01*
X162052000Y-113492000D01*
X162052000Y-114685155D01*
X162281890Y-114806476D01*
X162429099Y-114761825D01*
X162691920Y-114636641D01*
X162925269Y-114462588D01*
X163120178Y-114246355D01*
X163269157Y-113996252D01*
X163366481Y-113721891D01*
X163245814Y-113492000D01*
X162052000Y-113492000D01*
X161798000Y-113492000D01*
X161778000Y-113492000D01*
X161778000Y-113238000D01*
X161798000Y-113238000D01*
X161798000Y-112044845D01*
X162052000Y-112044845D01*
X162052000Y-113238000D01*
X163245814Y-113238000D01*
X163366481Y-113008109D01*
X163269157Y-112733748D01*
X163120178Y-112483645D01*
X162925269Y-112267412D01*
X162691920Y-112093359D01*
X162429099Y-111968175D01*
X162281890Y-111923524D01*
X162052000Y-112044845D01*
X161798000Y-112044845D01*
X161568110Y-111923524D01*
X161420901Y-111968175D01*
X161158080Y-112093359D01*
X160924731Y-112267412D01*
X160729822Y-112483645D01*
X160660195Y-112600534D01*
X160538475Y-112418368D01*
X160331632Y-112211525D01*
X160088411Y-112049010D01*
X159818158Y-111937068D01*
X159531260Y-111880000D01*
X159238740Y-111880000D01*
X158951842Y-111937068D01*
X158681589Y-112049010D01*
X158438368Y-112211525D01*
X158231525Y-112418368D01*
X158115000Y-112592760D01*
X157998475Y-112418368D01*
X157791632Y-112211525D01*
X157548411Y-112049010D01*
X157278158Y-111937068D01*
X156991260Y-111880000D01*
X156698740Y-111880000D01*
X156478592Y-111923790D01*
X155700000Y-111145199D01*
X155700000Y-103621653D01*
X160147952Y-103621653D01*
X160303962Y-103937214D01*
X160678745Y-104128020D01*
X161083551Y-104242044D01*
X161502824Y-104274902D01*
X161920451Y-104225334D01*
X162320383Y-104095243D01*
X162616038Y-103937214D01*
X162772048Y-103621653D01*
X161460000Y-102309605D01*
X160147952Y-103621653D01*
X155700000Y-103621653D01*
X155700000Y-102172824D01*
X159315098Y-102172824D01*
X159364666Y-102590451D01*
X159494757Y-102990383D01*
X159652786Y-103286038D01*
X159968347Y-103442048D01*
X161280395Y-102130000D01*
X161639605Y-102130000D01*
X162951653Y-103442048D01*
X163267214Y-103286038D01*
X163458020Y-102911255D01*
X163572044Y-102506449D01*
X163604902Y-102087176D01*
X163555334Y-101669549D01*
X163425243Y-101269617D01*
X163267214Y-100973962D01*
X162951653Y-100817952D01*
X161639605Y-102130000D01*
X161280395Y-102130000D01*
X159968347Y-100817952D01*
X159652786Y-100973962D01*
X159461980Y-101348745D01*
X159347956Y-101753551D01*
X159315098Y-102172824D01*
X155700000Y-102172824D01*
X155700000Y-100638347D01*
X160147952Y-100638347D01*
X161460000Y-101950395D01*
X162772048Y-100638347D01*
X162616038Y-100322786D01*
X162241255Y-100131980D01*
X161836449Y-100017956D01*
X161417176Y-99985098D01*
X160999549Y-100034666D01*
X160599617Y-100164757D01*
X160303962Y-100322786D01*
X160147952Y-100638347D01*
X155700000Y-100638347D01*
X155700000Y-98260000D01*
X157311928Y-98260000D01*
X157311928Y-99860000D01*
X157324188Y-99984482D01*
X157360498Y-100104180D01*
X157419463Y-100214494D01*
X157498815Y-100311185D01*
X157595506Y-100390537D01*
X157705820Y-100449502D01*
X157825518Y-100485812D01*
X157950000Y-100498072D01*
X159550000Y-100498072D01*
X159674482Y-100485812D01*
X159794180Y-100449502D01*
X159904494Y-100390537D01*
X160001185Y-100311185D01*
X160080537Y-100214494D01*
X160139502Y-100104180D01*
X160175812Y-99984482D01*
X160188072Y-99860000D01*
X160188072Y-98260000D01*
X160175812Y-98135518D01*
X160139502Y-98015820D01*
X160080537Y-97905506D01*
X160001185Y-97808815D01*
X159904494Y-97729463D01*
X159794180Y-97670498D01*
X159698057Y-97641339D01*
X159864637Y-97474759D01*
X160021680Y-97239727D01*
X160129853Y-96978574D01*
X160185000Y-96701335D01*
X160185000Y-96418665D01*
X160129853Y-96141426D01*
X160021680Y-95880273D01*
X159864637Y-95645241D01*
X159779396Y-95560000D01*
X159864637Y-95474759D01*
X160021680Y-95239727D01*
X160129853Y-94978574D01*
X160185000Y-94701335D01*
X160185000Y-94418665D01*
X160129853Y-94141426D01*
X160021680Y-93880273D01*
X159864637Y-93645241D01*
X159664759Y-93445363D01*
X159464131Y-93311308D01*
X159491514Y-93296671D01*
X159563097Y-93052702D01*
X158750000Y-92239605D01*
X157936903Y-93052702D01*
X158008486Y-93296671D01*
X158037341Y-93310324D01*
X157835241Y-93445363D01*
X157635363Y-93645241D01*
X157478320Y-93880273D01*
X157370147Y-94141426D01*
X157315000Y-94418665D01*
X157315000Y-94701335D01*
X157370147Y-94978574D01*
X157478320Y-95239727D01*
X157635363Y-95474759D01*
X157720604Y-95560000D01*
X157635363Y-95645241D01*
X157478320Y-95880273D01*
X157370147Y-96141426D01*
X157315000Y-96418665D01*
X157315000Y-96701335D01*
X157370147Y-96978574D01*
X157478320Y-97239727D01*
X157635363Y-97474759D01*
X157801943Y-97641339D01*
X157705820Y-97670498D01*
X157595506Y-97729463D01*
X157498815Y-97808815D01*
X157419463Y-97905506D01*
X157360498Y-98015820D01*
X157324188Y-98135518D01*
X157311928Y-98260000D01*
X155700000Y-98260000D01*
X155700000Y-92130512D01*
X157309783Y-92130512D01*
X157351213Y-92410130D01*
X157446397Y-92676292D01*
X157513329Y-92801514D01*
X157757298Y-92873097D01*
X158570395Y-92060000D01*
X158929605Y-92060000D01*
X159742702Y-92873097D01*
X159986671Y-92801514D01*
X160107571Y-92546004D01*
X160176300Y-92271816D01*
X160190217Y-91989488D01*
X160148787Y-91709870D01*
X160053603Y-91443708D01*
X159986671Y-91318486D01*
X159742702Y-91246903D01*
X158929605Y-92060000D01*
X158570395Y-92060000D01*
X157757298Y-91246903D01*
X157513329Y-91318486D01*
X157392429Y-91573996D01*
X157323700Y-91848184D01*
X157309783Y-92130512D01*
X155700000Y-92130512D01*
X155700000Y-91067298D01*
X157936903Y-91067298D01*
X158750000Y-91880395D01*
X159563097Y-91067298D01*
X159491514Y-90823329D01*
X159236004Y-90702429D01*
X158961816Y-90633700D01*
X158679488Y-90619783D01*
X158399870Y-90661213D01*
X158133708Y-90756397D01*
X158008486Y-90823329D01*
X157936903Y-91067298D01*
X155700000Y-91067298D01*
X155700000Y-90481653D01*
X160147952Y-90481653D01*
X160303962Y-90797214D01*
X160678745Y-90988020D01*
X161083551Y-91102044D01*
X161502824Y-91134902D01*
X161920451Y-91085334D01*
X162320383Y-90955243D01*
X162616038Y-90797214D01*
X162772048Y-90481653D01*
X161460000Y-89169605D01*
X160147952Y-90481653D01*
X155700000Y-90481653D01*
X155700000Y-89032824D01*
X159315098Y-89032824D01*
X159364666Y-89450451D01*
X159494757Y-89850383D01*
X159652786Y-90146038D01*
X159968347Y-90302048D01*
X161280395Y-88990000D01*
X161639605Y-88990000D01*
X162951653Y-90302048D01*
X163267214Y-90146038D01*
X163458020Y-89771255D01*
X163572044Y-89366449D01*
X163604902Y-88947176D01*
X163555334Y-88529549D01*
X163425243Y-88129617D01*
X163267214Y-87833962D01*
X162951653Y-87677952D01*
X161639605Y-88990000D01*
X161280395Y-88990000D01*
X159968347Y-87677952D01*
X159652786Y-87833962D01*
X159461980Y-88208745D01*
X159347956Y-88613551D01*
X159315098Y-89032824D01*
X155700000Y-89032824D01*
X155700000Y-87498347D01*
X160147952Y-87498347D01*
X161460000Y-88810395D01*
X162772048Y-87498347D01*
X162616038Y-87182786D01*
X162241255Y-86991980D01*
X161836449Y-86877956D01*
X161417176Y-86845098D01*
X160999549Y-86894666D01*
X160599617Y-87024757D01*
X160303962Y-87182786D01*
X160147952Y-87498347D01*
X155700000Y-87498347D01*
X155700000Y-85623061D01*
X155810000Y-85623061D01*
X155810000Y-85826939D01*
X155849774Y-86026898D01*
X155927795Y-86215256D01*
X156041063Y-86384774D01*
X156185226Y-86528937D01*
X156354744Y-86642205D01*
X156543102Y-86720226D01*
X156743061Y-86760000D01*
X156946939Y-86760000D01*
X157146898Y-86720226D01*
X157335256Y-86642205D01*
X157504774Y-86528937D01*
X157548711Y-86485000D01*
X162522678Y-86485000D01*
X162560000Y-86488676D01*
X162597322Y-86485000D01*
X162597333Y-86485000D01*
X162708986Y-86474003D01*
X162852247Y-86430546D01*
X162984276Y-86359974D01*
X163100001Y-86265001D01*
X163123804Y-86235997D01*
X166684802Y-82675000D01*
X166736928Y-82675000D01*
X166736928Y-82815000D01*
X166749188Y-82939482D01*
X166785498Y-83059180D01*
X166844463Y-83169494D01*
X166923815Y-83266185D01*
X167020506Y-83345537D01*
X167130820Y-83404502D01*
X167250518Y-83440812D01*
X167375000Y-83453072D01*
X169175000Y-83453072D01*
X169299482Y-83440812D01*
X169419180Y-83404502D01*
X169529494Y-83345537D01*
X169626185Y-83266185D01*
X169705537Y-83169494D01*
X169764502Y-83059180D01*
X169800812Y-82939482D01*
X169813072Y-82815000D01*
X169813072Y-81015000D01*
X169800812Y-80890518D01*
X169764502Y-80770820D01*
X169705537Y-80660506D01*
X169626185Y-80563815D01*
X169529494Y-80484463D01*
X169419180Y-80425498D01*
X169400873Y-80419944D01*
X169467312Y-80353505D01*
X169635299Y-80102095D01*
X169751011Y-79822743D01*
X169810000Y-79526184D01*
X169810000Y-79223816D01*
X169751011Y-78927257D01*
X169635299Y-78647905D01*
X169467312Y-78396495D01*
X169253505Y-78182688D01*
X169002095Y-78014701D01*
X168722743Y-77898989D01*
X168426184Y-77840000D01*
X168123816Y-77840000D01*
X167827257Y-77898989D01*
X167547905Y-78014701D01*
X167296495Y-78182688D01*
X167082688Y-78396495D01*
X166914701Y-78647905D01*
X166798989Y-78927257D01*
X166740000Y-79223816D01*
X166740000Y-79526184D01*
X166798989Y-79822743D01*
X166914701Y-80102095D01*
X167082688Y-80353505D01*
X167149127Y-80419944D01*
X167130820Y-80425498D01*
X167020506Y-80484463D01*
X166923815Y-80563815D01*
X166844463Y-80660506D01*
X166785498Y-80770820D01*
X166749188Y-80890518D01*
X166736928Y-81015000D01*
X166736928Y-81155000D01*
X166407325Y-81155000D01*
X166370000Y-81151324D01*
X166332675Y-81155000D01*
X166332667Y-81155000D01*
X166221014Y-81165997D01*
X166077753Y-81209454D01*
X165945724Y-81280026D01*
X165829999Y-81374999D01*
X165806201Y-81403997D01*
X162245199Y-84965000D01*
X157548711Y-84965000D01*
X157504774Y-84921063D01*
X157335256Y-84807795D01*
X157146898Y-84729774D01*
X156946939Y-84690000D01*
X156743061Y-84690000D01*
X156543102Y-84729774D01*
X156354744Y-84807795D01*
X156185226Y-84921063D01*
X156041063Y-85065226D01*
X155927795Y-85234744D01*
X155849774Y-85423102D01*
X155810000Y-85623061D01*
X155700000Y-85623061D01*
X155700000Y-77149801D01*
X156249802Y-76600000D01*
X156311939Y-76600000D01*
X156511898Y-76560226D01*
X156700256Y-76482205D01*
X156869774Y-76368937D01*
X157013937Y-76224774D01*
X157127205Y-76055256D01*
X157205226Y-75866898D01*
X157245000Y-75666939D01*
X157245000Y-75463061D01*
X157205226Y-75263102D01*
X157127205Y-75074744D01*
X157030486Y-74929994D01*
X157127197Y-74785256D01*
X157205218Y-74596898D01*
X157244992Y-74396939D01*
X157244992Y-74193061D01*
X157205218Y-73993102D01*
X157127197Y-73804744D01*
X157013929Y-73635226D01*
X156869766Y-73491063D01*
X156721932Y-73392284D01*
X159653326Y-70460890D01*
X168662324Y-70460890D01*
X168706975Y-70608099D01*
X168832159Y-70870920D01*
X169006212Y-71104269D01*
X169222445Y-71299178D01*
X169472548Y-71448157D01*
X169746909Y-71545481D01*
X169976800Y-71424814D01*
X169976800Y-70231000D01*
X168783645Y-70231000D01*
X168662324Y-70460890D01*
X159653326Y-70460890D01*
X160509198Y-69605019D01*
X163705459Y-69605019D01*
X163742781Y-69608695D01*
X163780103Y-69605019D01*
X163780114Y-69605019D01*
X163891767Y-69594022D01*
X164035028Y-69550565D01*
X164167057Y-69479993D01*
X164282782Y-69385020D01*
X164306585Y-69356016D01*
X168618800Y-65043802D01*
X168618800Y-65170260D01*
X168675868Y-65457158D01*
X168787810Y-65727411D01*
X168950325Y-65970632D01*
X169157168Y-66177475D01*
X169331560Y-66294000D01*
X169157168Y-66410525D01*
X168950325Y-66617368D01*
X168787810Y-66860589D01*
X168675868Y-67130842D01*
X168618800Y-67417740D01*
X168618800Y-67710260D01*
X168675868Y-67997158D01*
X168787810Y-68267411D01*
X168950325Y-68510632D01*
X169157168Y-68717475D01*
X169339334Y-68839195D01*
X169222445Y-68908822D01*
X169006212Y-69103731D01*
X168832159Y-69337080D01*
X168706975Y-69599901D01*
X168662324Y-69747110D01*
X168783645Y-69977000D01*
X169976800Y-69977000D01*
X169976800Y-69957000D01*
X170230800Y-69957000D01*
X170230800Y-69977000D01*
X170250800Y-69977000D01*
X170250800Y-70231000D01*
X170230800Y-70231000D01*
X170230800Y-71424814D01*
X170460691Y-71545481D01*
X170735052Y-71448157D01*
X170985155Y-71299178D01*
X171201388Y-71104269D01*
X171220000Y-71079316D01*
X171220001Y-109923465D01*
X170893839Y-109435330D01*
X170359670Y-108901161D01*
X169731554Y-108481467D01*
X169033628Y-108192377D01*
X168292715Y-108045000D01*
X167537285Y-108045000D01*
X166796372Y-108192377D01*
X166098446Y-108481467D01*
X165470330Y-108901161D01*
X164936161Y-109435330D01*
X164516467Y-110063446D01*
X164227377Y-110761372D01*
X164080000Y-111502285D01*
X164080000Y-112257715D01*
X164227377Y-112998628D01*
X164516467Y-113696554D01*
X164936161Y-114324670D01*
X165470330Y-114858839D01*
X165958464Y-115185000D01*
X115956536Y-115185000D01*
X116444670Y-114858839D01*
X116978839Y-114324670D01*
X117398533Y-113696554D01*
X117687623Y-112998628D01*
X117835000Y-112257715D01*
X117835000Y-111502285D01*
X117687623Y-110761372D01*
X117398533Y-110063446D01*
X116978839Y-109435330D01*
X116602476Y-109058967D01*
X133640000Y-109058967D01*
X133640000Y-109381033D01*
X133702832Y-109696912D01*
X133826082Y-109994463D01*
X134005013Y-110262252D01*
X134232748Y-110489987D01*
X134500537Y-110668918D01*
X134798088Y-110792168D01*
X135113967Y-110855000D01*
X135436033Y-110855000D01*
X135751912Y-110792168D01*
X136049463Y-110668918D01*
X136317252Y-110489987D01*
X136544987Y-110262252D01*
X136723918Y-109994463D01*
X136847168Y-109696912D01*
X136910000Y-109381033D01*
X136910000Y-109058967D01*
X136847168Y-108743088D01*
X136723918Y-108445537D01*
X136573219Y-108220000D01*
X141236928Y-108220000D01*
X141236928Y-110220000D01*
X141249188Y-110344482D01*
X141285498Y-110464180D01*
X141344463Y-110574494D01*
X141423815Y-110671185D01*
X141520506Y-110750537D01*
X141630820Y-110809502D01*
X141750518Y-110845812D01*
X141875000Y-110858072D01*
X143875000Y-110858072D01*
X143999482Y-110845812D01*
X144119180Y-110809502D01*
X144229494Y-110750537D01*
X144326185Y-110671185D01*
X144405537Y-110574494D01*
X144464502Y-110464180D01*
X144500812Y-110344482D01*
X144513072Y-110220000D01*
X144513072Y-108220000D01*
X144500812Y-108095518D01*
X144464502Y-107975820D01*
X144405537Y-107865506D01*
X144326185Y-107768815D01*
X144229494Y-107689463D01*
X144119180Y-107630498D01*
X143999482Y-107594188D01*
X143875000Y-107581928D01*
X141875000Y-107581928D01*
X141750518Y-107594188D01*
X141630820Y-107630498D01*
X141520506Y-107689463D01*
X141423815Y-107768815D01*
X141344463Y-107865506D01*
X141285498Y-107975820D01*
X141249188Y-108095518D01*
X141236928Y-108220000D01*
X136573219Y-108220000D01*
X136544987Y-108177748D01*
X136317252Y-107950013D01*
X136049463Y-107771082D01*
X135751912Y-107647832D01*
X135436033Y-107585000D01*
X135113967Y-107585000D01*
X134798088Y-107647832D01*
X134500537Y-107771082D01*
X134232748Y-107950013D01*
X134005013Y-108177748D01*
X133826082Y-108445537D01*
X133702832Y-108743088D01*
X133640000Y-109058967D01*
X116602476Y-109058967D01*
X116444670Y-108901161D01*
X115816554Y-108481467D01*
X115118628Y-108192377D01*
X114377715Y-108045000D01*
X113622285Y-108045000D01*
X112881372Y-108192377D01*
X112183446Y-108481467D01*
X111555330Y-108901161D01*
X111021161Y-109435330D01*
X110601467Y-110063446D01*
X110312377Y-110761372D01*
X110165000Y-111502285D01*
X110165000Y-112257715D01*
X110312377Y-112998628D01*
X110601467Y-113696554D01*
X111021161Y-114324670D01*
X111555330Y-114858839D01*
X112043464Y-115185000D01*
X82610000Y-115185000D01*
X82610000Y-113386890D01*
X90506524Y-113386890D01*
X90551175Y-113534099D01*
X90676359Y-113796920D01*
X90850412Y-114030269D01*
X91066645Y-114225178D01*
X91316748Y-114374157D01*
X91591109Y-114471481D01*
X91821000Y-114350814D01*
X91821000Y-113157000D01*
X90627845Y-113157000D01*
X90506524Y-113386890D01*
X82610000Y-113386890D01*
X82610000Y-110846890D01*
X90506524Y-110846890D01*
X90551175Y-110994099D01*
X90676359Y-111256920D01*
X90850412Y-111490269D01*
X91066645Y-111685178D01*
X91192255Y-111760000D01*
X91066645Y-111834822D01*
X90850412Y-112029731D01*
X90676359Y-112263080D01*
X90551175Y-112525901D01*
X90506524Y-112673110D01*
X90627845Y-112903000D01*
X91821000Y-112903000D01*
X91821000Y-110617000D01*
X90627845Y-110617000D01*
X90506524Y-110846890D01*
X82610000Y-110846890D01*
X82610000Y-108306890D01*
X90506524Y-108306890D01*
X90551175Y-108454099D01*
X90676359Y-108716920D01*
X90850412Y-108950269D01*
X91066645Y-109145178D01*
X91192255Y-109220000D01*
X91066645Y-109294822D01*
X90850412Y-109489731D01*
X90676359Y-109723080D01*
X90551175Y-109985901D01*
X90506524Y-110133110D01*
X90627845Y-110363000D01*
X91821000Y-110363000D01*
X91821000Y-108077000D01*
X90627845Y-108077000D01*
X90506524Y-108306890D01*
X82610000Y-108306890D01*
X82610000Y-105766890D01*
X90506524Y-105766890D01*
X90551175Y-105914099D01*
X90676359Y-106176920D01*
X90850412Y-106410269D01*
X91066645Y-106605178D01*
X91192255Y-106680000D01*
X91066645Y-106754822D01*
X90850412Y-106949731D01*
X90676359Y-107183080D01*
X90551175Y-107445901D01*
X90506524Y-107593110D01*
X90627845Y-107823000D01*
X91821000Y-107823000D01*
X91821000Y-105537000D01*
X90627845Y-105537000D01*
X90506524Y-105766890D01*
X82610000Y-105766890D01*
X82610000Y-103226890D01*
X90506524Y-103226890D01*
X90551175Y-103374099D01*
X90676359Y-103636920D01*
X90850412Y-103870269D01*
X91066645Y-104065178D01*
X91192255Y-104140000D01*
X91066645Y-104214822D01*
X90850412Y-104409731D01*
X90676359Y-104643080D01*
X90551175Y-104905901D01*
X90506524Y-105053110D01*
X90627845Y-105283000D01*
X91821000Y-105283000D01*
X91821000Y-102997000D01*
X90627845Y-102997000D01*
X90506524Y-103226890D01*
X82610000Y-103226890D01*
X82610000Y-100686890D01*
X90506524Y-100686890D01*
X90551175Y-100834099D01*
X90676359Y-101096920D01*
X90850412Y-101330269D01*
X91066645Y-101525178D01*
X91192255Y-101600000D01*
X91066645Y-101674822D01*
X90850412Y-101869731D01*
X90676359Y-102103080D01*
X90551175Y-102365901D01*
X90506524Y-102513110D01*
X90627845Y-102743000D01*
X91821000Y-102743000D01*
X91821000Y-100457000D01*
X90627845Y-100457000D01*
X90506524Y-100686890D01*
X82610000Y-100686890D01*
X82610000Y-98146890D01*
X90506524Y-98146890D01*
X90551175Y-98294099D01*
X90676359Y-98556920D01*
X90850412Y-98790269D01*
X91066645Y-98985178D01*
X91192255Y-99060000D01*
X91066645Y-99134822D01*
X90850412Y-99329731D01*
X90676359Y-99563080D01*
X90551175Y-99825901D01*
X90506524Y-99973110D01*
X90627845Y-100203000D01*
X91821000Y-100203000D01*
X91821000Y-97917000D01*
X90627845Y-97917000D01*
X90506524Y-98146890D01*
X82610000Y-98146890D01*
X82610000Y-95606890D01*
X90506524Y-95606890D01*
X90551175Y-95754099D01*
X90676359Y-96016920D01*
X90850412Y-96250269D01*
X91066645Y-96445178D01*
X91192255Y-96520000D01*
X91066645Y-96594822D01*
X90850412Y-96789731D01*
X90676359Y-97023080D01*
X90551175Y-97285901D01*
X90506524Y-97433110D01*
X90627845Y-97663000D01*
X91821000Y-97663000D01*
X91821000Y-95377000D01*
X90627845Y-95377000D01*
X90506524Y-95606890D01*
X82610000Y-95606890D01*
X82610000Y-93066890D01*
X90506524Y-93066890D01*
X90551175Y-93214099D01*
X90676359Y-93476920D01*
X90850412Y-93710269D01*
X91066645Y-93905178D01*
X91192255Y-93980000D01*
X91066645Y-94054822D01*
X90850412Y-94249731D01*
X90676359Y-94483080D01*
X90551175Y-94745901D01*
X90506524Y-94893110D01*
X90627845Y-95123000D01*
X91821000Y-95123000D01*
X91821000Y-92837000D01*
X90627845Y-92837000D01*
X90506524Y-93066890D01*
X82610000Y-93066890D01*
X82610000Y-90526890D01*
X90506524Y-90526890D01*
X90551175Y-90674099D01*
X90676359Y-90936920D01*
X90850412Y-91170269D01*
X91066645Y-91365178D01*
X91192255Y-91440000D01*
X91066645Y-91514822D01*
X90850412Y-91709731D01*
X90676359Y-91943080D01*
X90551175Y-92205901D01*
X90506524Y-92353110D01*
X90627845Y-92583000D01*
X91821000Y-92583000D01*
X91821000Y-90297000D01*
X90627845Y-90297000D01*
X90506524Y-90526890D01*
X82610000Y-90526890D01*
X82610000Y-87986890D01*
X90506524Y-87986890D01*
X90551175Y-88134099D01*
X90676359Y-88396920D01*
X90850412Y-88630269D01*
X91066645Y-88825178D01*
X91192255Y-88900000D01*
X91066645Y-88974822D01*
X90850412Y-89169731D01*
X90676359Y-89403080D01*
X90551175Y-89665901D01*
X90506524Y-89813110D01*
X90627845Y-90043000D01*
X91821000Y-90043000D01*
X91821000Y-87757000D01*
X90627845Y-87757000D01*
X90506524Y-87986890D01*
X82610000Y-87986890D01*
X82610000Y-58600476D01*
X84777500Y-58600476D01*
X84777500Y-83639524D01*
X89347500Y-83639524D01*
X89347500Y-65893740D01*
X90590000Y-65893740D01*
X90590000Y-66186260D01*
X90647068Y-66473158D01*
X90759010Y-66743411D01*
X90921525Y-66986632D01*
X91128368Y-67193475D01*
X91371589Y-67355990D01*
X91641842Y-67467932D01*
X91928740Y-67525000D01*
X92221260Y-67525000D01*
X92508158Y-67467932D01*
X92778411Y-67355990D01*
X93021632Y-67193475D01*
X93228475Y-66986632D01*
X93269656Y-66925000D01*
X117116529Y-66925000D01*
X117159998Y-66929281D01*
X117203467Y-66925000D01*
X117203475Y-66925000D01*
X117333488Y-66912195D01*
X117500311Y-66861589D01*
X117654057Y-66779411D01*
X117788815Y-66668817D01*
X117816532Y-66635044D01*
X122413937Y-62037640D01*
X122480843Y-62226252D01*
X122629822Y-62476355D01*
X122806626Y-62672502D01*
X122730820Y-62695498D01*
X122620506Y-62754463D01*
X122523815Y-62833815D01*
X122444463Y-62930506D01*
X122385498Y-63040820D01*
X122349188Y-63160518D01*
X122336928Y-63285000D01*
X122336928Y-64985000D01*
X122349188Y-65109482D01*
X122385498Y-65229180D01*
X122444463Y-65339494D01*
X122523815Y-65436185D01*
X122620506Y-65515537D01*
X122730820Y-65574502D01*
X122850518Y-65610812D01*
X122975000Y-65623072D01*
X124675000Y-65623072D01*
X124799482Y-65610812D01*
X124919180Y-65574502D01*
X125029494Y-65515537D01*
X125126185Y-65436185D01*
X125205537Y-65339494D01*
X125264502Y-65229180D01*
X125286513Y-65156620D01*
X125418368Y-65288475D01*
X125609088Y-65415910D01*
X125615998Y-65486067D01*
X125629180Y-65529523D01*
X125659454Y-65629327D01*
X125730026Y-65761357D01*
X125751626Y-65787676D01*
X125825000Y-65877082D01*
X125853998Y-65900880D01*
X126758119Y-66805002D01*
X126781918Y-66834001D01*
X126897643Y-66928974D01*
X127029672Y-66999546D01*
X127172933Y-67043003D01*
X127284586Y-67054000D01*
X127284596Y-67054000D01*
X127321919Y-67057676D01*
X127359242Y-67054000D01*
X135122050Y-67054000D01*
X135224990Y-67156940D01*
X135224991Y-67807071D01*
X135221314Y-67844402D01*
X135224991Y-67881734D01*
X135224991Y-67881735D01*
X135235988Y-67993388D01*
X135248611Y-68035001D01*
X135279444Y-68136648D01*
X135350016Y-68268678D01*
X135412653Y-68345000D01*
X135444990Y-68384403D01*
X135473988Y-68408201D01*
X136061799Y-68996013D01*
X136085598Y-69025012D01*
X136117682Y-69051343D01*
X136201322Y-69119985D01*
X136266849Y-69155010D01*
X136333352Y-69190557D01*
X136476613Y-69234014D01*
X136588266Y-69245011D01*
X136588276Y-69245011D01*
X136625599Y-69248687D01*
X136662922Y-69245011D01*
X141029077Y-69245011D01*
X141066399Y-69248687D01*
X141103721Y-69245011D01*
X141103732Y-69245011D01*
X141215385Y-69234014D01*
X141358646Y-69190557D01*
X141490675Y-69119985D01*
X141606400Y-69025012D01*
X141630203Y-68996008D01*
X141831201Y-68795010D01*
X142806299Y-68795010D01*
X142850226Y-68838937D01*
X143019744Y-68952205D01*
X143208102Y-69030226D01*
X143408061Y-69070000D01*
X143611939Y-69070000D01*
X143811898Y-69030226D01*
X144000256Y-68952205D01*
X144133576Y-68863124D01*
X144198209Y-68889896D01*
X144398168Y-68929670D01*
X144602046Y-68929670D01*
X144802005Y-68889896D01*
X144990363Y-68811875D01*
X145159881Y-68698607D01*
X145304044Y-68554444D01*
X145417312Y-68384926D01*
X145495333Y-68196568D01*
X145535107Y-67996609D01*
X145535107Y-67792731D01*
X145495333Y-67592772D01*
X145417312Y-67404414D01*
X145304044Y-67234896D01*
X145159881Y-67090733D01*
X144990363Y-66977465D01*
X144802005Y-66899444D01*
X144602046Y-66859670D01*
X144539908Y-66859670D01*
X144479240Y-66799002D01*
X144455438Y-66769999D01*
X144339713Y-66675026D01*
X144207684Y-66604454D01*
X144064423Y-66560997D01*
X143952770Y-66550000D01*
X143952759Y-66550000D01*
X143915437Y-66546324D01*
X143878115Y-66550000D01*
X141642322Y-66550000D01*
X141604999Y-66546324D01*
X141567676Y-66550000D01*
X141567667Y-66550000D01*
X141456014Y-66560997D01*
X141312753Y-66604454D01*
X141180724Y-66675026D01*
X141064999Y-66769999D01*
X141041201Y-66798997D01*
X140717922Y-67122276D01*
X140695212Y-67008102D01*
X140617191Y-66819744D01*
X140503923Y-66650226D01*
X140359760Y-66506063D01*
X140190242Y-66392795D01*
X140001884Y-66314774D01*
X139801925Y-66275000D01*
X139739788Y-66275000D01*
X135723791Y-62259004D01*
X135699988Y-62230000D01*
X135584263Y-62135027D01*
X135452234Y-62064455D01*
X135403963Y-62049812D01*
X135412932Y-62028158D01*
X135470000Y-61741260D01*
X135470000Y-61448740D01*
X135412932Y-61161842D01*
X135300990Y-60891589D01*
X135138475Y-60648368D01*
X134931632Y-60441525D01*
X134688411Y-60279010D01*
X134418158Y-60167068D01*
X134131260Y-60110000D01*
X133838740Y-60110000D01*
X133551842Y-60167068D01*
X133281589Y-60279010D01*
X133038368Y-60441525D01*
X132831525Y-60648368D01*
X132715000Y-60822760D01*
X132598475Y-60648368D01*
X132391632Y-60441525D01*
X132148411Y-60279010D01*
X131878158Y-60167068D01*
X131591260Y-60110000D01*
X131298740Y-60110000D01*
X131011842Y-60167068D01*
X130741589Y-60279010D01*
X130498368Y-60441525D01*
X130291525Y-60648368D01*
X130175000Y-60822760D01*
X130058475Y-60648368D01*
X129851632Y-60441525D01*
X129608411Y-60279010D01*
X129338158Y-60167068D01*
X129051260Y-60110000D01*
X128758740Y-60110000D01*
X128471842Y-60167068D01*
X128201589Y-60279010D01*
X127958368Y-60441525D01*
X127751525Y-60648368D01*
X127635000Y-60822760D01*
X127518475Y-60648368D01*
X127311632Y-60441525D01*
X127068411Y-60279010D01*
X126798158Y-60167068D01*
X126511260Y-60110000D01*
X126218740Y-60110000D01*
X126146040Y-60124461D01*
X125521533Y-59499955D01*
X125493816Y-59466182D01*
X125359058Y-59355588D01*
X125205312Y-59273410D01*
X125038489Y-59222804D01*
X124908476Y-59209999D01*
X124908468Y-59209999D01*
X124864999Y-59205718D01*
X124821530Y-59209999D01*
X123148465Y-59209999D01*
X123104998Y-59205718D01*
X123061532Y-59209999D01*
X123061522Y-59209999D01*
X122931509Y-59222804D01*
X122764686Y-59273410D01*
X122610940Y-59355588D01*
X122610938Y-59355589D01*
X122610939Y-59355589D01*
X122509952Y-59438467D01*
X122509950Y-59438469D01*
X122476182Y-59466182D01*
X122448469Y-59499950D01*
X116793420Y-65155000D01*
X93269656Y-65155000D01*
X93228475Y-65093368D01*
X93021632Y-64886525D01*
X92839466Y-64764805D01*
X92956355Y-64695178D01*
X93172588Y-64500269D01*
X93346641Y-64266920D01*
X93471825Y-64004099D01*
X93516476Y-63856890D01*
X93395155Y-63627000D01*
X92202000Y-63627000D01*
X92202000Y-63647000D01*
X91948000Y-63647000D01*
X91948000Y-63627000D01*
X90754845Y-63627000D01*
X90633524Y-63856890D01*
X90678175Y-64004099D01*
X90803359Y-64266920D01*
X90977412Y-64500269D01*
X91193645Y-64695178D01*
X91310534Y-64764805D01*
X91128368Y-64886525D01*
X90921525Y-65093368D01*
X90759010Y-65336589D01*
X90647068Y-65606842D01*
X90590000Y-65893740D01*
X89347500Y-65893740D01*
X89347500Y-61316890D01*
X90633524Y-61316890D01*
X90678175Y-61464099D01*
X90803359Y-61726920D01*
X90977412Y-61960269D01*
X91193645Y-62155178D01*
X91319255Y-62230000D01*
X91193645Y-62304822D01*
X90977412Y-62499731D01*
X90803359Y-62733080D01*
X90678175Y-62995901D01*
X90633524Y-63143110D01*
X90754845Y-63373000D01*
X91948000Y-63373000D01*
X91948000Y-61087000D01*
X92202000Y-61087000D01*
X92202000Y-63373000D01*
X93395155Y-63373000D01*
X93516476Y-63143110D01*
X93471825Y-62995901D01*
X93346641Y-62733080D01*
X93172588Y-62499731D01*
X92956355Y-62304822D01*
X92830745Y-62230000D01*
X92956355Y-62155178D01*
X93172588Y-61960269D01*
X93346641Y-61726920D01*
X93471825Y-61464099D01*
X93516476Y-61316890D01*
X93395155Y-61087000D01*
X92202000Y-61087000D01*
X91948000Y-61087000D01*
X90754845Y-61087000D01*
X90633524Y-61316890D01*
X89347500Y-61316890D01*
X89347500Y-58600476D01*
X84777500Y-58600476D01*
X82610000Y-58600476D01*
X82610000Y-57570000D01*
X90586928Y-57570000D01*
X90586928Y-59270000D01*
X90599188Y-59394482D01*
X90635498Y-59514180D01*
X90694463Y-59624494D01*
X90773815Y-59721185D01*
X90870506Y-59800537D01*
X90980820Y-59859502D01*
X91061466Y-59883966D01*
X90977412Y-59959731D01*
X90803359Y-60193080D01*
X90678175Y-60455901D01*
X90633524Y-60603110D01*
X90754845Y-60833000D01*
X91948000Y-60833000D01*
X91948000Y-60813000D01*
X92202000Y-60813000D01*
X92202000Y-60833000D01*
X93395155Y-60833000D01*
X93516476Y-60603110D01*
X93471825Y-60455901D01*
X93346641Y-60193080D01*
X93172588Y-59959731D01*
X93088534Y-59883966D01*
X93169180Y-59859502D01*
X93279494Y-59800537D01*
X93376185Y-59721185D01*
X93455537Y-59624494D01*
X93514502Y-59514180D01*
X93550812Y-59394482D01*
X93563072Y-59270000D01*
X93563072Y-57570000D01*
X93550812Y-57445518D01*
X93514502Y-57325820D01*
X93455537Y-57215506D01*
X93376185Y-57118815D01*
X93279494Y-57039463D01*
X93169180Y-56980498D01*
X93049482Y-56944188D01*
X92925000Y-56931928D01*
X91225000Y-56931928D01*
X91100518Y-56944188D01*
X90980820Y-56980498D01*
X90870506Y-57039463D01*
X90773815Y-57118815D01*
X90694463Y-57215506D01*
X90635498Y-57325820D01*
X90599188Y-57445518D01*
X90586928Y-57570000D01*
X82610000Y-57570000D01*
X82610000Y-56575000D01*
X112043464Y-56575000D01*
X111555330Y-56901161D01*
G37*
X111555330Y-56901161D02*
X111021161Y-57435330D01*
X110601467Y-58063446D01*
X110312377Y-58761372D01*
X110165000Y-59502285D01*
X110165000Y-60257715D01*
X110312377Y-60998628D01*
X110601467Y-61696554D01*
X111021161Y-62324670D01*
X111555330Y-62858839D01*
X112183446Y-63278533D01*
X112881372Y-63567623D01*
X113622285Y-63715000D01*
X114377715Y-63715000D01*
X115118628Y-63567623D01*
X115816554Y-63278533D01*
X116444670Y-62858839D01*
X116978839Y-62324670D01*
X117398533Y-61696554D01*
X117687623Y-60998628D01*
X117835000Y-60257715D01*
X117835000Y-59502285D01*
X117687623Y-58761372D01*
X117398533Y-58063446D01*
X116978839Y-57435330D01*
X116444670Y-56901161D01*
X115956536Y-56575000D01*
X155523464Y-56575000D01*
X155035330Y-56901161D01*
X154501161Y-57435330D01*
X154081467Y-58063446D01*
X153792377Y-58761372D01*
X153645000Y-59502285D01*
X153645000Y-60257715D01*
X153792377Y-60998628D01*
X154081467Y-61696554D01*
X154501161Y-62324670D01*
X155035330Y-62858839D01*
X155663446Y-63278533D01*
X156361372Y-63567623D01*
X157102285Y-63715000D01*
X157857715Y-63715000D01*
X158598628Y-63567623D01*
X159296554Y-63278533D01*
X159924670Y-62858839D01*
X160458839Y-62324670D01*
X160878533Y-61696554D01*
X161167623Y-60998628D01*
X161315000Y-60257715D01*
X161315000Y-59502285D01*
X161167623Y-58761372D01*
X160878533Y-58063446D01*
X160458839Y-57435330D01*
X159924670Y-56901161D01*
X159436536Y-56575000D01*
X171220000Y-56575000D01*
X171220000Y-58005934D01*
X171213801Y-58005323D01*
X171176479Y-58008999D01*
X169031124Y-58008999D01*
X168993799Y-58005323D01*
X168956474Y-58008999D01*
X168956466Y-58008999D01*
X168844813Y-58019996D01*
X168701552Y-58063453D01*
X168569523Y-58134025D01*
X168453798Y-58228998D01*
X168430000Y-58257996D01*
X167084683Y-59603314D01*
X167055685Y-59627112D01*
X167031887Y-59656110D01*
X167031886Y-59656111D01*
X166960711Y-59742837D01*
X166890139Y-59874867D01*
X166846683Y-60018128D01*
X166832009Y-60167113D01*
X166835686Y-60204445D01*
X166835685Y-63404493D01*
X163055179Y-67185000D01*
X151833711Y-67185000D01*
X151789774Y-67141063D01*
X151620256Y-67027795D01*
X151431898Y-66949774D01*
X151231939Y-66910000D01*
X151028061Y-66910000D01*
X150828102Y-66949774D01*
X150639744Y-67027795D01*
X150580583Y-67067325D01*
X150565546Y-67017753D01*
X150494974Y-66885724D01*
X150400001Y-66769999D01*
X150371003Y-66746201D01*
X149625000Y-66000199D01*
X149625000Y-65938061D01*
X149585226Y-65738102D01*
X149507205Y-65549744D01*
X149393937Y-65380226D01*
X149249774Y-65236063D01*
X149080256Y-65122795D01*
X148891898Y-65044774D01*
X148691939Y-65005000D01*
X148488061Y-65005000D01*
X148288102Y-65044774D01*
X148099744Y-65122795D01*
X147930226Y-65236063D01*
X147786063Y-65380226D01*
X147672795Y-65549744D01*
X147594774Y-65738102D01*
X147555000Y-65938061D01*
X147555000Y-66141939D01*
X147594774Y-66341898D01*
X147672795Y-66530256D01*
X147786063Y-66699774D01*
X147930226Y-66843937D01*
X148099744Y-66957205D01*
X148288102Y-67035226D01*
X148488061Y-67075000D01*
X148550199Y-67075000D01*
X149100001Y-67624803D01*
X149100000Y-71082677D01*
X149096324Y-71120000D01*
X149100000Y-71157322D01*
X149100000Y-71157332D01*
X149110997Y-71268985D01*
X149154454Y-71412246D01*
X149225026Y-71544276D01*
X149240233Y-71562805D01*
X149319999Y-71660001D01*
X149349003Y-71683804D01*
X151925201Y-74260002D01*
X151534805Y-74260003D01*
X149788804Y-72514003D01*
X149765001Y-72484999D01*
X149649276Y-72390026D01*
X149517247Y-72319454D01*
X149373986Y-72275997D01*
X149262333Y-72265000D01*
X149262322Y-72265000D01*
X149225000Y-72261324D01*
X149187678Y-72265000D01*
X148224013Y-72265000D01*
X148237205Y-72245256D01*
X148315226Y-72056898D01*
X148355000Y-71856939D01*
X148355000Y-71653061D01*
X148315226Y-71453102D01*
X148237205Y-71264744D01*
X148123937Y-71095226D01*
X147979774Y-70951063D01*
X147810256Y-70837795D01*
X147621898Y-70759774D01*
X147421939Y-70720000D01*
X147218061Y-70720000D01*
X147018102Y-70759774D01*
X146829744Y-70837795D01*
X146660226Y-70951063D01*
X146616289Y-70995000D01*
X140372333Y-70995000D01*
X140335000Y-70991323D01*
X140297667Y-70995000D01*
X140186014Y-71005997D01*
X140042753Y-71049454D01*
X139910724Y-71120026D01*
X139794999Y-71214999D01*
X139771201Y-71243997D01*
X137916826Y-73098373D01*
X134450483Y-73098373D01*
X134413160Y-73094697D01*
X134375837Y-73098373D01*
X134375828Y-73098373D01*
X134264175Y-73109370D01*
X134120914Y-73152827D01*
X133988885Y-73223399D01*
X133988883Y-73223400D01*
X133988884Y-73223400D01*
X133902157Y-73294574D01*
X133902153Y-73294578D01*
X133873160Y-73318372D01*
X133849366Y-73347365D01*
X127275603Y-79921130D01*
X127246599Y-79944933D01*
X127222801Y-79973931D01*
X120047242Y-87149491D01*
X120043205Y-87139744D01*
X119929937Y-86970226D01*
X119785774Y-86826063D01*
X119616256Y-86712795D01*
X119427898Y-86634774D01*
X119227939Y-86595000D01*
X119024061Y-86595000D01*
X118824102Y-86634774D01*
X118635744Y-86712795D01*
X118466226Y-86826063D01*
X118322063Y-86970226D01*
X118208795Y-87139744D01*
X118130774Y-87328102D01*
X118091000Y-87528061D01*
X118091000Y-87590198D01*
X117621231Y-88059968D01*
X97731772Y-88059968D01*
X95668295Y-85996492D01*
X95803990Y-85793411D01*
X95915932Y-85523158D01*
X95973000Y-85236260D01*
X95973000Y-84943740D01*
X95915932Y-84656842D01*
X95803990Y-84386589D01*
X95641475Y-84143368D01*
X95434632Y-83936525D01*
X95260240Y-83820000D01*
X95434632Y-83703475D01*
X95641475Y-83496632D01*
X95803990Y-83253411D01*
X95915932Y-82983158D01*
X95951967Y-82802000D01*
X105048680Y-82802000D01*
X105086002Y-82805676D01*
X105123324Y-82802000D01*
X105123335Y-82802000D01*
X105234988Y-82791003D01*
X105378249Y-82747546D01*
X105510278Y-82676974D01*
X105626003Y-82582001D01*
X105649806Y-82552997D01*
X109972805Y-78230000D01*
X116771289Y-78230000D01*
X116815226Y-78273937D01*
X116984744Y-78387205D01*
X117173102Y-78465226D01*
X117373061Y-78505000D01*
X117440001Y-78505000D01*
X117440002Y-84126669D01*
X117436325Y-84164001D01*
X117440002Y-84201334D01*
X117450999Y-84312987D01*
X117457458Y-84334279D01*
X117494455Y-84456247D01*
X117565027Y-84588277D01*
X117623071Y-84659003D01*
X117660001Y-84704002D01*
X117688999Y-84727800D01*
X118091000Y-85129801D01*
X118091000Y-85191939D01*
X118130774Y-85391898D01*
X118208795Y-85580256D01*
X118322063Y-85749774D01*
X118466226Y-85893937D01*
X118635744Y-86007205D01*
X118824102Y-86085226D01*
X119024061Y-86125000D01*
X119227939Y-86125000D01*
X119427898Y-86085226D01*
X119616256Y-86007205D01*
X119785774Y-85893937D01*
X119929937Y-85749774D01*
X120043205Y-85580256D01*
X120121226Y-85391898D01*
X120161000Y-85191939D01*
X120161000Y-84988061D01*
X120121226Y-84788102D01*
X120043205Y-84599744D01*
X119929937Y-84430226D01*
X119785774Y-84286063D01*
X119616256Y-84172795D01*
X119427898Y-84094774D01*
X119227939Y-84055000D01*
X119165801Y-84055000D01*
X118960001Y-83849200D01*
X118960001Y-74619332D01*
X118963678Y-74581999D01*
X118958557Y-74530000D01*
X118949004Y-74433013D01*
X118905547Y-74289752D01*
X118834975Y-74157723D01*
X118740002Y-74041998D01*
X118710999Y-74018196D01*
X118386805Y-73694002D01*
X118363002Y-73664998D01*
X118247277Y-73570025D01*
X118115248Y-73499453D01*
X117971987Y-73455996D01*
X117860334Y-73444999D01*
X117860323Y-73444999D01*
X117823001Y-73441323D01*
X117785679Y-73444999D01*
X117164321Y-73444999D01*
X117126998Y-73441323D01*
X117089675Y-73444999D01*
X117089666Y-73444999D01*
X116978013Y-73455996D01*
X116862411Y-73491063D01*
X116834752Y-73499453D01*
X116702722Y-73570025D01*
X116672907Y-73594494D01*
X116586998Y-73664998D01*
X116563200Y-73693996D01*
X114727196Y-75530001D01*
X105810000Y-75530001D01*
X105810000Y-75463061D01*
X105770226Y-75263102D01*
X105692205Y-75074744D01*
X105578937Y-74905226D01*
X105434774Y-74761063D01*
X105265256Y-74647795D01*
X105076898Y-74569774D01*
X104876939Y-74530000D01*
X104673061Y-74530000D01*
X104473102Y-74569774D01*
X104284744Y-74647795D01*
X104115226Y-74761063D01*
X104071289Y-74805000D01*
X103184802Y-74805000D01*
X102000000Y-73620199D01*
X102000000Y-73558061D01*
X101960226Y-73358102D01*
X101882205Y-73169744D01*
X101768937Y-73000226D01*
X101624774Y-72856063D01*
X101455256Y-72742795D01*
X101266898Y-72664774D01*
X101066939Y-72625000D01*
X100863061Y-72625000D01*
X100663102Y-72664774D01*
X100474744Y-72742795D01*
X100305226Y-72856063D01*
X100161063Y-73000226D01*
X100047795Y-73169744D01*
X99969774Y-73358102D01*
X99930000Y-73558061D01*
X99930000Y-73761939D01*
X99969774Y-73961898D01*
X100047795Y-74150256D01*
X100161063Y-74319774D01*
X100305226Y-74463937D01*
X100474744Y-74577205D01*
X100663102Y-74655226D01*
X100863061Y-74695000D01*
X100925199Y-74695000D01*
X101681859Y-75451661D01*
X101679724Y-75451013D01*
X101624774Y-75396063D01*
X101455256Y-75282795D01*
X101266898Y-75204774D01*
X101066939Y-75165000D01*
X100863061Y-75165000D01*
X100663102Y-75204774D01*
X100474744Y-75282795D01*
X100305226Y-75396063D01*
X100161063Y-75540226D01*
X100047795Y-75709744D01*
X99969774Y-75898102D01*
X99930000Y-76098061D01*
X99930000Y-76301939D01*
X99969774Y-76501898D01*
X100047795Y-76690256D01*
X100161063Y-76859774D01*
X100305226Y-77003937D01*
X100474744Y-77117205D01*
X100663102Y-77195226D01*
X100863061Y-77235000D01*
X101066939Y-77235000D01*
X101266898Y-77195226D01*
X101455256Y-77117205D01*
X101559369Y-77047639D01*
X101583353Y-77050001D01*
X101583361Y-77050001D01*
X101620686Y-77053677D01*
X101658011Y-77050001D01*
X108366789Y-77050001D01*
X105621792Y-79794999D01*
X100654321Y-79794999D01*
X100616998Y-79791323D01*
X100579675Y-79794999D01*
X100579666Y-79794999D01*
X100468013Y-79805996D01*
X100324752Y-79849453D01*
X100192723Y-79920025D01*
X100076998Y-80014998D01*
X100053200Y-80043997D01*
X99577197Y-80520000D01*
X95884103Y-80520000D01*
X95915932Y-80443158D01*
X95973000Y-80156260D01*
X95973000Y-79863740D01*
X95915932Y-79576842D01*
X95803990Y-79306589D01*
X95641475Y-79063368D01*
X95434632Y-78856525D01*
X95260240Y-78740000D01*
X95434632Y-78623475D01*
X95641475Y-78416632D01*
X95803990Y-78173411D01*
X95915932Y-77903158D01*
X95973000Y-77616260D01*
X95973000Y-77323740D01*
X95915932Y-77036842D01*
X95803990Y-76766589D01*
X95641475Y-76523368D01*
X95434632Y-76316525D01*
X95260240Y-76200000D01*
X95434632Y-76083475D01*
X95641475Y-75876632D01*
X95803990Y-75633411D01*
X95915932Y-75363158D01*
X95973000Y-75076260D01*
X95973000Y-74783740D01*
X95915932Y-74496842D01*
X95803990Y-74226589D01*
X95641475Y-73983368D01*
X95434632Y-73776525D01*
X95260240Y-73660000D01*
X95434632Y-73543475D01*
X95641475Y-73336632D01*
X95803990Y-73093411D01*
X95915932Y-72823158D01*
X95973000Y-72536260D01*
X95973000Y-72243740D01*
X95915932Y-71956842D01*
X95803990Y-71686589D01*
X95641475Y-71443368D01*
X95434632Y-71236525D01*
X95191411Y-71074010D01*
X94921158Y-70962068D01*
X94634260Y-70905000D01*
X94341740Y-70905000D01*
X94054842Y-70962068D01*
X93784589Y-71074010D01*
X93541368Y-71236525D01*
X93409513Y-71368380D01*
X93387502Y-71295820D01*
X93328537Y-71185506D01*
X93249185Y-71088815D01*
X93152494Y-71009463D01*
X93042180Y-70950498D01*
X92922482Y-70914188D01*
X92798000Y-70901928D01*
X91098000Y-70901928D01*
X90973518Y-70914188D01*
X90853820Y-70950498D01*
X90743506Y-71009463D01*
X90646815Y-71088815D01*
X90567463Y-71185506D01*
X90508498Y-71295820D01*
X90472188Y-71415518D01*
X90459928Y-71540000D01*
X90459928Y-71735674D01*
X90423724Y-71755026D01*
X90307999Y-71849999D01*
X90284199Y-71878999D01*
X90261999Y-71901199D01*
X90232998Y-71925000D01*
X90179856Y-71989754D01*
X90138025Y-72040725D01*
X90107543Y-72097753D01*
X90067453Y-72172755D01*
X90023996Y-72316016D01*
X90012999Y-72427669D01*
X90012999Y-72427679D01*
X90009323Y-72465001D01*
X90012999Y-72502323D01*
X90013000Y-85806667D01*
X90009323Y-85843999D01*
X90013000Y-85881332D01*
X90023997Y-85992985D01*
X90031357Y-86017247D01*
X90067453Y-86136245D01*
X90138025Y-86268275D01*
X90209200Y-86355001D01*
X90232999Y-86384000D01*
X90261997Y-86407798D01*
X90693841Y-86839643D01*
X90676359Y-86863080D01*
X90551175Y-87125901D01*
X90506524Y-87273110D01*
X90627845Y-87503000D01*
X91821000Y-87503000D01*
X91821000Y-87483000D01*
X92075000Y-87483000D01*
X92075000Y-87503000D01*
X92095000Y-87503000D01*
X92095000Y-87757000D01*
X92075000Y-87757000D01*
X92075000Y-90043000D01*
X92095000Y-90043000D01*
X92095000Y-90297000D01*
X92075000Y-90297000D01*
X92075000Y-92583000D01*
X92095000Y-92583000D01*
X92095000Y-92837000D01*
X92075000Y-92837000D01*
X92075000Y-95123000D01*
X92095000Y-95123000D01*
X92095000Y-95377000D01*
X92075000Y-95377000D01*
X92075000Y-97663000D01*
X92095000Y-97663000D01*
X92095000Y-97917000D01*
X92075000Y-97917000D01*
X92075000Y-100203000D01*
X92095000Y-100203000D01*
X92095000Y-100457000D01*
X92075000Y-100457000D01*
X92075000Y-102743000D01*
X92095000Y-102743000D01*
X92095000Y-102997000D01*
X92075000Y-102997000D01*
X92075000Y-105283000D01*
X92095000Y-105283000D01*
X92095000Y-105537000D01*
X92075000Y-105537000D01*
X92075000Y-107823000D01*
X92095000Y-107823000D01*
X92095000Y-108077000D01*
X92075000Y-108077000D01*
X92075000Y-110363000D01*
X92095000Y-110363000D01*
X92095000Y-110617000D01*
X92075000Y-110617000D01*
X92075000Y-112903000D01*
X92095000Y-112903000D01*
X92095000Y-113157000D01*
X92075000Y-113157000D01*
X92075000Y-114350814D01*
X92304891Y-114471481D01*
X92579252Y-114374157D01*
X92829355Y-114225178D01*
X93045588Y-114030269D01*
X93216900Y-113800594D01*
X93334525Y-113976632D01*
X93541368Y-114183475D01*
X93784589Y-114345990D01*
X94054842Y-114457932D01*
X94341740Y-114515000D01*
X94634260Y-114515000D01*
X94921158Y-114457932D01*
X95191411Y-114345990D01*
X95434632Y-114183475D01*
X95641475Y-113976632D01*
X95803990Y-113733411D01*
X95915932Y-113463158D01*
X95973000Y-113176260D01*
X95973000Y-112883740D01*
X95915932Y-112596842D01*
X95803990Y-112326589D01*
X95641475Y-112083368D01*
X95434632Y-111876525D01*
X95260240Y-111760000D01*
X95412802Y-111658061D01*
X99930000Y-111658061D01*
X99930000Y-111861939D01*
X99969774Y-112061898D01*
X100047795Y-112250256D01*
X100161063Y-112419774D01*
X100305226Y-112563937D01*
X100474744Y-112677205D01*
X100663102Y-112755226D01*
X100863061Y-112795000D01*
X101066939Y-112795000D01*
X101266898Y-112755226D01*
X101455256Y-112677205D01*
X101624774Y-112563937D01*
X101768937Y-112419774D01*
X101882205Y-112250256D01*
X101960226Y-112061898D01*
X102000000Y-111861939D01*
X102000000Y-111799801D01*
X105286004Y-108513798D01*
X105315001Y-108490001D01*
X105409974Y-108374276D01*
X105480546Y-108242247D01*
X105524003Y-108098986D01*
X105535000Y-107987333D01*
X105535000Y-107987325D01*
X105538676Y-107950000D01*
X105535000Y-107912675D01*
X105535000Y-106113711D01*
X105578937Y-106069774D01*
X105692205Y-105900256D01*
X105770226Y-105711898D01*
X105810000Y-105511939D01*
X105810000Y-105308061D01*
X105770226Y-105108102D01*
X105692205Y-104919744D01*
X105578937Y-104750226D01*
X105434774Y-104606063D01*
X105265256Y-104492795D01*
X105076898Y-104414774D01*
X104876939Y-104375000D01*
X104673061Y-104375000D01*
X104473102Y-104414774D01*
X104284744Y-104492795D01*
X104115226Y-104606063D01*
X103971063Y-104750226D01*
X103857795Y-104919744D01*
X103779774Y-105108102D01*
X103740000Y-105308061D01*
X103740000Y-105511939D01*
X103779774Y-105711898D01*
X103857795Y-105900256D01*
X103971063Y-106069774D01*
X104015001Y-106113712D01*
X104015000Y-107635198D01*
X100925199Y-110725000D01*
X100863061Y-110725000D01*
X100663102Y-110764774D01*
X100474744Y-110842795D01*
X100305226Y-110956063D01*
X100161063Y-111100226D01*
X100047795Y-111269744D01*
X99969774Y-111458102D01*
X99930000Y-111658061D01*
X95412802Y-111658061D01*
X95434632Y-111643475D01*
X95641475Y-111436632D01*
X95803990Y-111193411D01*
X95915932Y-110923158D01*
X95973000Y-110636260D01*
X95973000Y-110343740D01*
X95929210Y-110123592D01*
X96174005Y-109878797D01*
X96203002Y-109855000D01*
X96297975Y-109739275D01*
X96368547Y-109607246D01*
X96412004Y-109463985D01*
X96423001Y-109352332D01*
X96423001Y-109352323D01*
X96426677Y-109315000D01*
X96423001Y-109277677D01*
X96423001Y-102133061D01*
X99930000Y-102133061D01*
X99930000Y-102336939D01*
X99969774Y-102536898D01*
X100047795Y-102725256D01*
X100161063Y-102894774D01*
X100305226Y-103038937D01*
X100474744Y-103152205D01*
X100663102Y-103230226D01*
X100863061Y-103270000D01*
X101066939Y-103270000D01*
X101266898Y-103230226D01*
X101455256Y-103152205D01*
X101624774Y-103038937D01*
X101768937Y-102894774D01*
X101882205Y-102725256D01*
X101960226Y-102536898D01*
X102000000Y-102336939D01*
X102000000Y-102274801D01*
X103950621Y-100324181D01*
X103971063Y-100354774D01*
X104015001Y-100398712D01*
X104015000Y-101285198D01*
X100925199Y-104375000D01*
X100863061Y-104375000D01*
X100663102Y-104414774D01*
X100474744Y-104492795D01*
X100305226Y-104606063D01*
X100161063Y-104750226D01*
X100047795Y-104919744D01*
X99969774Y-105108102D01*
X99930000Y-105308061D01*
X99930000Y-105511939D01*
X99969774Y-105711898D01*
X100047795Y-105900256D01*
X100161063Y-106069774D01*
X100305226Y-106213937D01*
X100474744Y-106327205D01*
X100663102Y-106405226D01*
X100863061Y-106445000D01*
X101066939Y-106445000D01*
X101266898Y-106405226D01*
X101455256Y-106327205D01*
X101624774Y-106213937D01*
X101768937Y-106069774D01*
X101882205Y-105900256D01*
X101960226Y-105711898D01*
X102000000Y-105511939D01*
X102000000Y-105449801D01*
X105286004Y-102163798D01*
X105315001Y-102140001D01*
X105409974Y-102024276D01*
X105480546Y-101892247D01*
X105524003Y-101748986D01*
X105535000Y-101637333D01*
X105535000Y-101637325D01*
X105538676Y-101600000D01*
X105535000Y-101562675D01*
X105535000Y-100398711D01*
X105578937Y-100354774D01*
X105692205Y-100185256D01*
X105770226Y-99996898D01*
X105810000Y-99796939D01*
X105810000Y-99593061D01*
X105770226Y-99393102D01*
X105692205Y-99204744D01*
X105595490Y-99060000D01*
X105692205Y-98915256D01*
X105770226Y-98726898D01*
X105810000Y-98526939D01*
X105810000Y-98323061D01*
X105770226Y-98123102D01*
X105692205Y-97934744D01*
X105578937Y-97765226D01*
X105434774Y-97621063D01*
X105265256Y-97507795D01*
X105076898Y-97429774D01*
X104876939Y-97390000D01*
X104673061Y-97390000D01*
X104473102Y-97429774D01*
X104284744Y-97507795D01*
X104115226Y-97621063D01*
X103971063Y-97765226D01*
X103857795Y-97934744D01*
X103779774Y-98123102D01*
X103740000Y-98323061D01*
X103740000Y-98385198D01*
X100925199Y-101200000D01*
X100863061Y-101200000D01*
X100663102Y-101239774D01*
X100474744Y-101317795D01*
X100305226Y-101431063D01*
X100161063Y-101575226D01*
X100047795Y-101744744D01*
X99969774Y-101933102D01*
X99930000Y-102133061D01*
X96423001Y-102133061D01*
X96423001Y-101501800D01*
X100205001Y-97719801D01*
X100205000Y-98356289D01*
X100161063Y-98400226D01*
X100047795Y-98569744D01*
X99969774Y-98758102D01*
X99930000Y-98958061D01*
X99930000Y-99161939D01*
X99969774Y-99361898D01*
X100047795Y-99550256D01*
X100161063Y-99719774D01*
X100305226Y-99863937D01*
X100474744Y-99977205D01*
X100663102Y-100055226D01*
X100863061Y-100095000D01*
X101066939Y-100095000D01*
X101266898Y-100055226D01*
X101455256Y-99977205D01*
X101624774Y-99863937D01*
X101768937Y-99719774D01*
X101882205Y-99550256D01*
X101960226Y-99361898D01*
X102000000Y-99161939D01*
X102000000Y-98958061D01*
X101960226Y-98758102D01*
X101882205Y-98569744D01*
X101768937Y-98400226D01*
X101725000Y-98356289D01*
X101725000Y-97824833D01*
X104814802Y-94735032D01*
X104876939Y-94735032D01*
X105076898Y-94695258D01*
X105265256Y-94617237D01*
X105434774Y-94503969D01*
X105578937Y-94359806D01*
X105692205Y-94190288D01*
X105770226Y-94001930D01*
X105810000Y-93801971D01*
X105810000Y-93598093D01*
X105770226Y-93398134D01*
X105692205Y-93209776D01*
X105578937Y-93040258D01*
X105434774Y-92896095D01*
X105265256Y-92782827D01*
X105178083Y-92746719D01*
X105470802Y-92454000D01*
X119255001Y-92454000D01*
X119255000Y-107246289D01*
X119211063Y-107290226D01*
X119097795Y-107459744D01*
X119019774Y-107648102D01*
X118980000Y-107848061D01*
X118980000Y-108051939D01*
X119019774Y-108251898D01*
X119097795Y-108440256D01*
X119211063Y-108609774D01*
X119355226Y-108753937D01*
X119524744Y-108867205D01*
X119713102Y-108945226D01*
X119913061Y-108985000D01*
X120116939Y-108985000D01*
X120316898Y-108945226D01*
X120505256Y-108867205D01*
X120674774Y-108753937D01*
X120818937Y-108609774D01*
X120932205Y-108440256D01*
X121010226Y-108251898D01*
X121050000Y-108051939D01*
X121050000Y-107848061D01*
X121010226Y-107648102D01*
X120932205Y-107459744D01*
X120818937Y-107290226D01*
X120775000Y-107246289D01*
X120775000Y-92389801D01*
X124335001Y-88829801D01*
X124335000Y-95955199D01*
X123590000Y-95210199D01*
X123590000Y-95148061D01*
X123550226Y-94948102D01*
X123472205Y-94759744D01*
X123358937Y-94590226D01*
X123214774Y-94446063D01*
X123045256Y-94332795D01*
X122856898Y-94254774D01*
X122656939Y-94215000D01*
X122453061Y-94215000D01*
X122253102Y-94254774D01*
X122064744Y-94332795D01*
X121895226Y-94446063D01*
X121751063Y-94590226D01*
X121637795Y-94759744D01*
X121559774Y-94948102D01*
X121520000Y-95148061D01*
X121520000Y-95351939D01*
X121559774Y-95551898D01*
X121637795Y-95740256D01*
X121751063Y-95909774D01*
X121895226Y-96053937D01*
X122064744Y-96167205D01*
X122253102Y-96245226D01*
X122453061Y-96285000D01*
X122515199Y-96285000D01*
X123609999Y-97379801D01*
X123610000Y-104450669D01*
X123606323Y-104488001D01*
X123610000Y-104525334D01*
X123620997Y-104636987D01*
X123623829Y-104646323D01*
X123664453Y-104780247D01*
X123735025Y-104912277D01*
X123788013Y-104976842D01*
X123829999Y-105028002D01*
X123858997Y-105051800D01*
X124183195Y-105375998D01*
X124206998Y-105405002D01*
X124322723Y-105499975D01*
X124391991Y-105537000D01*
X124454752Y-105570547D01*
X124598013Y-105614004D01*
X124746999Y-105628678D01*
X124784332Y-105625001D01*
X125533360Y-105625001D01*
X125570682Y-105628677D01*
X125608004Y-105625001D01*
X125608015Y-105625001D01*
X125719668Y-105614004D01*
X125862929Y-105570547D01*
X125994958Y-105499975D01*
X126110683Y-105405002D01*
X126134486Y-105375998D01*
X130051002Y-101459483D01*
X130079999Y-101435686D01*
X130174972Y-101319961D01*
X130245544Y-101187932D01*
X130288985Y-101044724D01*
X130343935Y-100989774D01*
X130457203Y-100820256D01*
X130535224Y-100631898D01*
X130574998Y-100431939D01*
X130574998Y-100228061D01*
X130535224Y-100028102D01*
X130457203Y-99839744D01*
X130343935Y-99670226D01*
X130199772Y-99526063D01*
X130030254Y-99412795D01*
X129841896Y-99334774D01*
X129641937Y-99295000D01*
X129438059Y-99295000D01*
X129238100Y-99334774D01*
X129049742Y-99412795D01*
X128880224Y-99526063D01*
X128736061Y-99670226D01*
X128622793Y-99839744D01*
X128544772Y-100028102D01*
X128504998Y-100228061D01*
X128504998Y-100431939D01*
X128544772Y-100631898D01*
X128598726Y-100762155D01*
X125889796Y-103471085D01*
X125855000Y-103436289D01*
X125855000Y-102635000D01*
X125921949Y-102635000D01*
X126121908Y-102595226D01*
X126310266Y-102517205D01*
X126479784Y-102403937D01*
X126623947Y-102259774D01*
X126737215Y-102090256D01*
X126815236Y-101901898D01*
X126855010Y-101701939D01*
X126855010Y-101498061D01*
X126815236Y-101298102D01*
X126737215Y-101109744D01*
X126623947Y-100940226D01*
X126580010Y-100896289D01*
X126580010Y-87857611D01*
X129222622Y-85215000D01*
X132677678Y-85215000D01*
X132715000Y-85218676D01*
X132752322Y-85215000D01*
X132752333Y-85215000D01*
X132863986Y-85204003D01*
X133007247Y-85160546D01*
X133139276Y-85089974D01*
X133255001Y-84995001D01*
X133278804Y-84965998D01*
X134124782Y-84120020D01*
X137688767Y-84120020D01*
X129224515Y-92584273D01*
X129195511Y-92608076D01*
X129170298Y-92638799D01*
X129107437Y-92715394D01*
X129075738Y-92736575D01*
X128931575Y-92880738D01*
X128818307Y-93050256D01*
X128801655Y-93090457D01*
X128760256Y-93062795D01*
X128571898Y-92984774D01*
X128371939Y-92945000D01*
X128168061Y-92945000D01*
X127968102Y-92984774D01*
X127779744Y-93062795D01*
X127610226Y-93176063D01*
X127466063Y-93320226D01*
X127352795Y-93489744D01*
X127274774Y-93678102D01*
X127235000Y-93878061D01*
X127235000Y-94081939D01*
X127274774Y-94281898D01*
X127352795Y-94470256D01*
X127466063Y-94639774D01*
X127610226Y-94783937D01*
X127779744Y-94897205D01*
X127968102Y-94975226D01*
X128168061Y-95015000D01*
X128230198Y-95015000D01*
X128341200Y-95126002D01*
X128364999Y-95155001D01*
X128393997Y-95178799D01*
X128480724Y-95249974D01*
X128612753Y-95320546D01*
X128756014Y-95364003D01*
X128905000Y-95378677D01*
X128942333Y-95375000D01*
X130772678Y-95375000D01*
X130810000Y-95378676D01*
X130847322Y-95375000D01*
X130847333Y-95375000D01*
X130958986Y-95364003D01*
X131102247Y-95320546D01*
X131234276Y-95249974D01*
X131350001Y-95155001D01*
X131373804Y-95125997D01*
X134024802Y-92475000D01*
X134086939Y-92475000D01*
X134286898Y-92435226D01*
X134475256Y-92357205D01*
X134644774Y-92243937D01*
X134788937Y-92099774D01*
X134902205Y-91930256D01*
X134980226Y-91741898D01*
X135020000Y-91541939D01*
X135020000Y-91338061D01*
X134980226Y-91138102D01*
X134902205Y-90949744D01*
X134788937Y-90780226D01*
X134644774Y-90636063D01*
X134475256Y-90522795D01*
X134286898Y-90444774D01*
X134172735Y-90422066D01*
X137111212Y-87483589D01*
X140085000Y-87483589D01*
X140085000Y-87756411D01*
X140138225Y-88023989D01*
X140242629Y-88276043D01*
X140394201Y-88502886D01*
X140587114Y-88695799D01*
X140813957Y-88847371D01*
X141066011Y-88951775D01*
X141333589Y-89005000D01*
X141606411Y-89005000D01*
X141873989Y-88951775D01*
X142126043Y-88847371D01*
X142352886Y-88695799D01*
X142545799Y-88502886D01*
X142697371Y-88276043D01*
X142801775Y-88023989D01*
X142855000Y-87756411D01*
X142855000Y-87483589D01*
X144965000Y-87483589D01*
X144965000Y-87756411D01*
X145018225Y-88023989D01*
X145122629Y-88276043D01*
X145274201Y-88502886D01*
X145467114Y-88695799D01*
X145693957Y-88847371D01*
X145946011Y-88951775D01*
X146213589Y-89005000D01*
X146486411Y-89005000D01*
X146753989Y-88951775D01*
X147006043Y-88847371D01*
X147232886Y-88695799D01*
X147425799Y-88502886D01*
X147577371Y-88276043D01*
X147681775Y-88023989D01*
X147735000Y-87756411D01*
X147735000Y-87483589D01*
X147681775Y-87216011D01*
X147577371Y-86963957D01*
X147425799Y-86737114D01*
X147232886Y-86544201D01*
X147006043Y-86392629D01*
X146753989Y-86288225D01*
X146486411Y-86235000D01*
X146213589Y-86235000D01*
X145946011Y-86288225D01*
X145693957Y-86392629D01*
X145467114Y-86544201D01*
X145274201Y-86737114D01*
X145122629Y-86963957D01*
X145018225Y-87216011D01*
X144965000Y-87483589D01*
X142855000Y-87483589D01*
X142801775Y-87216011D01*
X142697371Y-86963957D01*
X142545799Y-86737114D01*
X142352886Y-86544201D01*
X142126043Y-86392629D01*
X141873989Y-86288225D01*
X141606411Y-86235000D01*
X141333589Y-86235000D01*
X141066011Y-86288225D01*
X140813957Y-86392629D01*
X140587114Y-86544201D01*
X140394201Y-86737114D01*
X140242629Y-86963957D01*
X140138225Y-87216011D01*
X140085000Y-87483589D01*
X137111212Y-87483589D01*
X139379802Y-85215000D01*
X146616303Y-85215000D01*
X146660240Y-85258937D01*
X146829758Y-85372205D01*
X147018116Y-85450226D01*
X147218075Y-85490000D01*
X147421953Y-85490000D01*
X147621912Y-85450226D01*
X147810270Y-85372205D01*
X147979788Y-85258937D01*
X148123951Y-85114774D01*
X148237219Y-84945256D01*
X148315240Y-84756898D01*
X148355014Y-84556939D01*
X148355014Y-84353061D01*
X148315240Y-84153102D01*
X148237219Y-83964744D01*
X148140497Y-83819990D01*
X148232098Y-83682899D01*
X149100001Y-84550802D01*
X149100000Y-93276289D01*
X149056063Y-93320226D01*
X148942795Y-93489744D01*
X148864774Y-93678102D01*
X148825000Y-93878061D01*
X148825000Y-94081939D01*
X148864774Y-94281898D01*
X148942795Y-94470256D01*
X149056063Y-94639774D01*
X149200226Y-94783937D01*
X149369744Y-94897205D01*
X149558102Y-94975226D01*
X149672264Y-94997934D01*
X146645199Y-98025000D01*
X146583061Y-98025000D01*
X146383102Y-98064774D01*
X146194744Y-98142795D01*
X146025226Y-98256063D01*
X145881063Y-98400226D01*
X145767795Y-98569744D01*
X145689774Y-98758102D01*
X145650000Y-98958061D01*
X145650000Y-99161939D01*
X145689774Y-99361898D01*
X145767795Y-99550256D01*
X145881063Y-99719774D01*
X146025226Y-99863937D01*
X146194744Y-99977205D01*
X146383102Y-100055226D01*
X146583061Y-100095000D01*
X146786939Y-100095000D01*
X146986898Y-100055226D01*
X147175256Y-99977205D01*
X147344774Y-99863937D01*
X147488937Y-99719774D01*
X147602205Y-99550256D01*
X147680226Y-99361898D01*
X147720000Y-99161939D01*
X147720000Y-99099801D01*
X153545001Y-93274801D01*
X153545000Y-111876928D01*
X153455000Y-111876928D01*
X153330518Y-111889188D01*
X153210820Y-111925498D01*
X153100506Y-111984463D01*
X153003815Y-112063815D01*
X152924463Y-112160506D01*
X152865498Y-112270820D01*
X152829188Y-112390518D01*
X152816928Y-112515000D01*
X152816928Y-114215000D01*
X152829188Y-114339482D01*
X152865498Y-114459180D01*
X152924463Y-114569494D01*
X153003815Y-114666185D01*
X153100506Y-114745537D01*
X153210820Y-114804502D01*
X153330518Y-114840812D01*
X153455000Y-114853072D01*
X155155000Y-114853072D01*
X155279482Y-114840812D01*
X155399180Y-114804502D01*
X155509494Y-114745537D01*
X155606185Y-114666185D01*
X155685537Y-114569494D01*
X155744502Y-114459180D01*
X155766513Y-114386620D01*
X155898368Y-114518475D01*
X156141589Y-114680990D01*
X156411842Y-114792932D01*
X156698740Y-114850000D01*
X156991260Y-114850000D01*
X157278158Y-114792932D01*
X157548411Y-114680990D01*
X157791632Y-114518475D01*
X157998475Y-114311632D01*
X158115000Y-114137240D01*
X158231525Y-114311632D01*
X158438368Y-114518475D01*
X158681589Y-114680990D01*
X158951842Y-114792932D01*
X159238740Y-114850000D01*
X159531260Y-114850000D01*
X159818158Y-114792932D01*
X160088411Y-114680990D01*
X160331632Y-114518475D01*
X160538475Y-114311632D01*
X160660195Y-114129466D01*
X160729822Y-114246355D01*
X160924731Y-114462588D01*
X161158080Y-114636641D01*
X161420901Y-114761825D01*
X161568110Y-114806476D01*
X161798000Y-114685155D01*
X161798000Y-113492000D01*
X162052000Y-113492000D01*
X162052000Y-114685155D01*
X162281890Y-114806476D01*
X162429099Y-114761825D01*
X162691920Y-114636641D01*
X162925269Y-114462588D01*
X163120178Y-114246355D01*
X163269157Y-113996252D01*
X163366481Y-113721891D01*
X163245814Y-113492000D01*
X162052000Y-113492000D01*
X161798000Y-113492000D01*
X161778000Y-113492000D01*
X161778000Y-113238000D01*
X161798000Y-113238000D01*
X161798000Y-112044845D01*
X162052000Y-112044845D01*
X162052000Y-113238000D01*
X163245814Y-113238000D01*
X163366481Y-113008109D01*
X163269157Y-112733748D01*
X163120178Y-112483645D01*
X162925269Y-112267412D01*
X162691920Y-112093359D01*
X162429099Y-111968175D01*
X162281890Y-111923524D01*
X162052000Y-112044845D01*
X161798000Y-112044845D01*
X161568110Y-111923524D01*
X161420901Y-111968175D01*
X161158080Y-112093359D01*
X160924731Y-112267412D01*
X160729822Y-112483645D01*
X160660195Y-112600534D01*
X160538475Y-112418368D01*
X160331632Y-112211525D01*
X160088411Y-112049010D01*
X159818158Y-111937068D01*
X159531260Y-111880000D01*
X159238740Y-111880000D01*
X158951842Y-111937068D01*
X158681589Y-112049010D01*
X158438368Y-112211525D01*
X158231525Y-112418368D01*
X158115000Y-112592760D01*
X157998475Y-112418368D01*
X157791632Y-112211525D01*
X157548411Y-112049010D01*
X157278158Y-111937068D01*
X156991260Y-111880000D01*
X156698740Y-111880000D01*
X156478592Y-111923790D01*
X155700000Y-111145199D01*
X155700000Y-103621653D01*
X160147952Y-103621653D01*
X160303962Y-103937214D01*
X160678745Y-104128020D01*
X161083551Y-104242044D01*
X161502824Y-104274902D01*
X161920451Y-104225334D01*
X162320383Y-104095243D01*
X162616038Y-103937214D01*
X162772048Y-103621653D01*
X161460000Y-102309605D01*
X160147952Y-103621653D01*
X155700000Y-103621653D01*
X155700000Y-102172824D01*
X159315098Y-102172824D01*
X159364666Y-102590451D01*
X159494757Y-102990383D01*
X159652786Y-103286038D01*
X159968347Y-103442048D01*
X161280395Y-102130000D01*
X161639605Y-102130000D01*
X162951653Y-103442048D01*
X163267214Y-103286038D01*
X163458020Y-102911255D01*
X163572044Y-102506449D01*
X163604902Y-102087176D01*
X163555334Y-101669549D01*
X163425243Y-101269617D01*
X163267214Y-100973962D01*
X162951653Y-100817952D01*
X161639605Y-102130000D01*
X161280395Y-102130000D01*
X159968347Y-100817952D01*
X159652786Y-100973962D01*
X159461980Y-101348745D01*
X159347956Y-101753551D01*
X159315098Y-102172824D01*
X155700000Y-102172824D01*
X155700000Y-100638347D01*
X160147952Y-100638347D01*
X161460000Y-101950395D01*
X162772048Y-100638347D01*
X162616038Y-100322786D01*
X162241255Y-100131980D01*
X161836449Y-100017956D01*
X161417176Y-99985098D01*
X160999549Y-100034666D01*
X160599617Y-100164757D01*
X160303962Y-100322786D01*
X160147952Y-100638347D01*
X155700000Y-100638347D01*
X155700000Y-98260000D01*
X157311928Y-98260000D01*
X157311928Y-99860000D01*
X157324188Y-99984482D01*
X157360498Y-100104180D01*
X157419463Y-100214494D01*
X157498815Y-100311185D01*
X157595506Y-100390537D01*
X157705820Y-100449502D01*
X157825518Y-100485812D01*
X157950000Y-100498072D01*
X159550000Y-100498072D01*
X159674482Y-100485812D01*
X159794180Y-100449502D01*
X159904494Y-100390537D01*
X160001185Y-100311185D01*
X160080537Y-100214494D01*
X160139502Y-100104180D01*
X160175812Y-99984482D01*
X160188072Y-99860000D01*
X160188072Y-98260000D01*
X160175812Y-98135518D01*
X160139502Y-98015820D01*
X160080537Y-97905506D01*
X160001185Y-97808815D01*
X159904494Y-97729463D01*
X159794180Y-97670498D01*
X159698057Y-97641339D01*
X159864637Y-97474759D01*
X160021680Y-97239727D01*
X160129853Y-96978574D01*
X160185000Y-96701335D01*
X160185000Y-96418665D01*
X160129853Y-96141426D01*
X160021680Y-95880273D01*
X159864637Y-95645241D01*
X159779396Y-95560000D01*
X159864637Y-95474759D01*
X160021680Y-95239727D01*
X160129853Y-94978574D01*
X160185000Y-94701335D01*
X160185000Y-94418665D01*
X160129853Y-94141426D01*
X160021680Y-93880273D01*
X159864637Y-93645241D01*
X159664759Y-93445363D01*
X159464131Y-93311308D01*
X159491514Y-93296671D01*
X159563097Y-93052702D01*
X158750000Y-92239605D01*
X157936903Y-93052702D01*
X158008486Y-93296671D01*
X158037341Y-93310324D01*
X157835241Y-93445363D01*
X157635363Y-93645241D01*
X157478320Y-93880273D01*
X157370147Y-94141426D01*
X157315000Y-94418665D01*
X157315000Y-94701335D01*
X157370147Y-94978574D01*
X157478320Y-95239727D01*
X157635363Y-95474759D01*
X157720604Y-95560000D01*
X157635363Y-95645241D01*
X157478320Y-95880273D01*
X157370147Y-96141426D01*
X157315000Y-96418665D01*
X157315000Y-96701335D01*
X157370147Y-96978574D01*
X157478320Y-97239727D01*
X157635363Y-97474759D01*
X157801943Y-97641339D01*
X157705820Y-97670498D01*
X157595506Y-97729463D01*
X157498815Y-97808815D01*
X157419463Y-97905506D01*
X157360498Y-98015820D01*
X157324188Y-98135518D01*
X157311928Y-98260000D01*
X155700000Y-98260000D01*
X155700000Y-92130512D01*
X157309783Y-92130512D01*
X157351213Y-92410130D01*
X157446397Y-92676292D01*
X157513329Y-92801514D01*
X157757298Y-92873097D01*
X158570395Y-92060000D01*
X158929605Y-92060000D01*
X159742702Y-92873097D01*
X159986671Y-92801514D01*
X160107571Y-92546004D01*
X160176300Y-92271816D01*
X160190217Y-91989488D01*
X160148787Y-91709870D01*
X160053603Y-91443708D01*
X159986671Y-91318486D01*
X159742702Y-91246903D01*
X158929605Y-92060000D01*
X158570395Y-92060000D01*
X157757298Y-91246903D01*
X157513329Y-91318486D01*
X157392429Y-91573996D01*
X157323700Y-91848184D01*
X157309783Y-92130512D01*
X155700000Y-92130512D01*
X155700000Y-91067298D01*
X157936903Y-91067298D01*
X158750000Y-91880395D01*
X159563097Y-91067298D01*
X159491514Y-90823329D01*
X159236004Y-90702429D01*
X158961816Y-90633700D01*
X158679488Y-90619783D01*
X158399870Y-90661213D01*
X158133708Y-90756397D01*
X158008486Y-90823329D01*
X157936903Y-91067298D01*
X155700000Y-91067298D01*
X155700000Y-90481653D01*
X160147952Y-90481653D01*
X160303962Y-90797214D01*
X160678745Y-90988020D01*
X161083551Y-91102044D01*
X161502824Y-91134902D01*
X161920451Y-91085334D01*
X162320383Y-90955243D01*
X162616038Y-90797214D01*
X162772048Y-90481653D01*
X161460000Y-89169605D01*
X160147952Y-90481653D01*
X155700000Y-90481653D01*
X155700000Y-89032824D01*
X159315098Y-89032824D01*
X159364666Y-89450451D01*
X159494757Y-89850383D01*
X159652786Y-90146038D01*
X159968347Y-90302048D01*
X161280395Y-88990000D01*
X161639605Y-88990000D01*
X162951653Y-90302048D01*
X163267214Y-90146038D01*
X163458020Y-89771255D01*
X163572044Y-89366449D01*
X163604902Y-88947176D01*
X163555334Y-88529549D01*
X163425243Y-88129617D01*
X163267214Y-87833962D01*
X162951653Y-87677952D01*
X161639605Y-88990000D01*
X161280395Y-88990000D01*
X159968347Y-87677952D01*
X159652786Y-87833962D01*
X159461980Y-88208745D01*
X159347956Y-88613551D01*
X159315098Y-89032824D01*
X155700000Y-89032824D01*
X155700000Y-87498347D01*
X160147952Y-87498347D01*
X161460000Y-88810395D01*
X162772048Y-87498347D01*
X162616038Y-87182786D01*
X162241255Y-86991980D01*
X161836449Y-86877956D01*
X161417176Y-86845098D01*
X160999549Y-86894666D01*
X160599617Y-87024757D01*
X160303962Y-87182786D01*
X160147952Y-87498347D01*
X155700000Y-87498347D01*
X155700000Y-85623061D01*
X155810000Y-85623061D01*
X155810000Y-85826939D01*
X155849774Y-86026898D01*
X155927795Y-86215256D01*
X156041063Y-86384774D01*
X156185226Y-86528937D01*
X156354744Y-86642205D01*
X156543102Y-86720226D01*
X156743061Y-86760000D01*
X156946939Y-86760000D01*
X157146898Y-86720226D01*
X157335256Y-86642205D01*
X157504774Y-86528937D01*
X157548711Y-86485000D01*
X162522678Y-86485000D01*
X162560000Y-86488676D01*
X162597322Y-86485000D01*
X162597333Y-86485000D01*
X162708986Y-86474003D01*
X162852247Y-86430546D01*
X162984276Y-86359974D01*
X163100001Y-86265001D01*
X163123804Y-86235997D01*
X166684802Y-82675000D01*
X166736928Y-82675000D01*
X166736928Y-82815000D01*
X166749188Y-82939482D01*
X166785498Y-83059180D01*
X166844463Y-83169494D01*
X166923815Y-83266185D01*
X167020506Y-83345537D01*
X167130820Y-83404502D01*
X167250518Y-83440812D01*
X167375000Y-83453072D01*
X169175000Y-83453072D01*
X169299482Y-83440812D01*
X169419180Y-83404502D01*
X169529494Y-83345537D01*
X169626185Y-83266185D01*
X169705537Y-83169494D01*
X169764502Y-83059180D01*
X169800812Y-82939482D01*
X169813072Y-82815000D01*
X169813072Y-81015000D01*
X169800812Y-80890518D01*
X169764502Y-80770820D01*
X169705537Y-80660506D01*
X169626185Y-80563815D01*
X169529494Y-80484463D01*
X169419180Y-80425498D01*
X169400873Y-80419944D01*
X169467312Y-80353505D01*
X169635299Y-80102095D01*
X169751011Y-79822743D01*
X169810000Y-79526184D01*
X169810000Y-79223816D01*
X169751011Y-78927257D01*
X169635299Y-78647905D01*
X169467312Y-78396495D01*
X169253505Y-78182688D01*
X169002095Y-78014701D01*
X168722743Y-77898989D01*
X168426184Y-77840000D01*
X168123816Y-77840000D01*
X167827257Y-77898989D01*
X167547905Y-78014701D01*
X167296495Y-78182688D01*
X167082688Y-78396495D01*
X166914701Y-78647905D01*
X166798989Y-78927257D01*
X166740000Y-79223816D01*
X166740000Y-79526184D01*
X166798989Y-79822743D01*
X166914701Y-80102095D01*
X167082688Y-80353505D01*
X167149127Y-80419944D01*
X167130820Y-80425498D01*
X167020506Y-80484463D01*
X166923815Y-80563815D01*
X166844463Y-80660506D01*
X166785498Y-80770820D01*
X166749188Y-80890518D01*
X166736928Y-81015000D01*
X166736928Y-81155000D01*
X166407325Y-81155000D01*
X166370000Y-81151324D01*
X166332675Y-81155000D01*
X166332667Y-81155000D01*
X166221014Y-81165997D01*
X166077753Y-81209454D01*
X165945724Y-81280026D01*
X165829999Y-81374999D01*
X165806201Y-81403997D01*
X162245199Y-84965000D01*
X157548711Y-84965000D01*
X157504774Y-84921063D01*
X157335256Y-84807795D01*
X157146898Y-84729774D01*
X156946939Y-84690000D01*
X156743061Y-84690000D01*
X156543102Y-84729774D01*
X156354744Y-84807795D01*
X156185226Y-84921063D01*
X156041063Y-85065226D01*
X155927795Y-85234744D01*
X155849774Y-85423102D01*
X155810000Y-85623061D01*
X155700000Y-85623061D01*
X155700000Y-77149801D01*
X156249802Y-76600000D01*
X156311939Y-76600000D01*
X156511898Y-76560226D01*
X156700256Y-76482205D01*
X156869774Y-76368937D01*
X157013937Y-76224774D01*
X157127205Y-76055256D01*
X157205226Y-75866898D01*
X157245000Y-75666939D01*
X157245000Y-75463061D01*
X157205226Y-75263102D01*
X157127205Y-75074744D01*
X157030486Y-74929994D01*
X157127197Y-74785256D01*
X157205218Y-74596898D01*
X157244992Y-74396939D01*
X157244992Y-74193061D01*
X157205218Y-73993102D01*
X157127197Y-73804744D01*
X157013929Y-73635226D01*
X156869766Y-73491063D01*
X156721932Y-73392284D01*
X159653326Y-70460890D01*
X168662324Y-70460890D01*
X168706975Y-70608099D01*
X168832159Y-70870920D01*
X169006212Y-71104269D01*
X169222445Y-71299178D01*
X169472548Y-71448157D01*
X169746909Y-71545481D01*
X169976800Y-71424814D01*
X169976800Y-70231000D01*
X168783645Y-70231000D01*
X168662324Y-70460890D01*
X159653326Y-70460890D01*
X160509198Y-69605019D01*
X163705459Y-69605019D01*
X163742781Y-69608695D01*
X163780103Y-69605019D01*
X163780114Y-69605019D01*
X163891767Y-69594022D01*
X164035028Y-69550565D01*
X164167057Y-69479993D01*
X164282782Y-69385020D01*
X164306585Y-69356016D01*
X168618800Y-65043802D01*
X168618800Y-65170260D01*
X168675868Y-65457158D01*
X168787810Y-65727411D01*
X168950325Y-65970632D01*
X169157168Y-66177475D01*
X169331560Y-66294000D01*
X169157168Y-66410525D01*
X168950325Y-66617368D01*
X168787810Y-66860589D01*
X168675868Y-67130842D01*
X168618800Y-67417740D01*
X168618800Y-67710260D01*
X168675868Y-67997158D01*
X168787810Y-68267411D01*
X168950325Y-68510632D01*
X169157168Y-68717475D01*
X169339334Y-68839195D01*
X169222445Y-68908822D01*
X169006212Y-69103731D01*
X168832159Y-69337080D01*
X168706975Y-69599901D01*
X168662324Y-69747110D01*
X168783645Y-69977000D01*
X169976800Y-69977000D01*
X169976800Y-69957000D01*
X170230800Y-69957000D01*
X170230800Y-69977000D01*
X170250800Y-69977000D01*
X170250800Y-70231000D01*
X170230800Y-70231000D01*
X170230800Y-71424814D01*
X170460691Y-71545481D01*
X170735052Y-71448157D01*
X170985155Y-71299178D01*
X171201388Y-71104269D01*
X171220000Y-71079316D01*
X171220001Y-109923465D01*
X170893839Y-109435330D01*
X170359670Y-108901161D01*
X169731554Y-108481467D01*
X169033628Y-108192377D01*
X168292715Y-108045000D01*
X167537285Y-108045000D01*
X166796372Y-108192377D01*
X166098446Y-108481467D01*
X165470330Y-108901161D01*
X164936161Y-109435330D01*
X164516467Y-110063446D01*
X164227377Y-110761372D01*
X164080000Y-111502285D01*
X164080000Y-112257715D01*
X164227377Y-112998628D01*
X164516467Y-113696554D01*
X164936161Y-114324670D01*
X165470330Y-114858839D01*
X165958464Y-115185000D01*
X115956536Y-115185000D01*
X116444670Y-114858839D01*
X116978839Y-114324670D01*
X117398533Y-113696554D01*
X117687623Y-112998628D01*
X117835000Y-112257715D01*
X117835000Y-111502285D01*
X117687623Y-110761372D01*
X117398533Y-110063446D01*
X116978839Y-109435330D01*
X116602476Y-109058967D01*
X133640000Y-109058967D01*
X133640000Y-109381033D01*
X133702832Y-109696912D01*
X133826082Y-109994463D01*
X134005013Y-110262252D01*
X134232748Y-110489987D01*
X134500537Y-110668918D01*
X134798088Y-110792168D01*
X135113967Y-110855000D01*
X135436033Y-110855000D01*
X135751912Y-110792168D01*
X136049463Y-110668918D01*
X136317252Y-110489987D01*
X136544987Y-110262252D01*
X136723918Y-109994463D01*
X136847168Y-109696912D01*
X136910000Y-109381033D01*
X136910000Y-109058967D01*
X136847168Y-108743088D01*
X136723918Y-108445537D01*
X136573219Y-108220000D01*
X141236928Y-108220000D01*
X141236928Y-110220000D01*
X141249188Y-110344482D01*
X141285498Y-110464180D01*
X141344463Y-110574494D01*
X141423815Y-110671185D01*
X141520506Y-110750537D01*
X141630820Y-110809502D01*
X141750518Y-110845812D01*
X141875000Y-110858072D01*
X143875000Y-110858072D01*
X143999482Y-110845812D01*
X144119180Y-110809502D01*
X144229494Y-110750537D01*
X144326185Y-110671185D01*
X144405537Y-110574494D01*
X144464502Y-110464180D01*
X144500812Y-110344482D01*
X144513072Y-110220000D01*
X144513072Y-108220000D01*
X144500812Y-108095518D01*
X144464502Y-107975820D01*
X144405537Y-107865506D01*
X144326185Y-107768815D01*
X144229494Y-107689463D01*
X144119180Y-107630498D01*
X143999482Y-107594188D01*
X143875000Y-107581928D01*
X141875000Y-107581928D01*
X141750518Y-107594188D01*
X141630820Y-107630498D01*
X141520506Y-107689463D01*
X141423815Y-107768815D01*
X141344463Y-107865506D01*
X141285498Y-107975820D01*
X141249188Y-108095518D01*
X141236928Y-108220000D01*
X136573219Y-108220000D01*
X136544987Y-108177748D01*
X136317252Y-107950013D01*
X136049463Y-107771082D01*
X135751912Y-107647832D01*
X135436033Y-107585000D01*
X135113967Y-107585000D01*
X134798088Y-107647832D01*
X134500537Y-107771082D01*
X134232748Y-107950013D01*
X134005013Y-108177748D01*
X133826082Y-108445537D01*
X133702832Y-108743088D01*
X133640000Y-109058967D01*
X116602476Y-109058967D01*
X116444670Y-108901161D01*
X115816554Y-108481467D01*
X115118628Y-108192377D01*
X114377715Y-108045000D01*
X113622285Y-108045000D01*
X112881372Y-108192377D01*
X112183446Y-108481467D01*
X111555330Y-108901161D01*
X111021161Y-109435330D01*
X110601467Y-110063446D01*
X110312377Y-110761372D01*
X110165000Y-111502285D01*
X110165000Y-112257715D01*
X110312377Y-112998628D01*
X110601467Y-113696554D01*
X111021161Y-114324670D01*
X111555330Y-114858839D01*
X112043464Y-115185000D01*
X82610000Y-115185000D01*
X82610000Y-113386890D01*
X90506524Y-113386890D01*
X90551175Y-113534099D01*
X90676359Y-113796920D01*
X90850412Y-114030269D01*
X91066645Y-114225178D01*
X91316748Y-114374157D01*
X91591109Y-114471481D01*
X91821000Y-114350814D01*
X91821000Y-113157000D01*
X90627845Y-113157000D01*
X90506524Y-113386890D01*
X82610000Y-113386890D01*
X82610000Y-110846890D01*
X90506524Y-110846890D01*
X90551175Y-110994099D01*
X90676359Y-111256920D01*
X90850412Y-111490269D01*
X91066645Y-111685178D01*
X91192255Y-111760000D01*
X91066645Y-111834822D01*
X90850412Y-112029731D01*
X90676359Y-112263080D01*
X90551175Y-112525901D01*
X90506524Y-112673110D01*
X90627845Y-112903000D01*
X91821000Y-112903000D01*
X91821000Y-110617000D01*
X90627845Y-110617000D01*
X90506524Y-110846890D01*
X82610000Y-110846890D01*
X82610000Y-108306890D01*
X90506524Y-108306890D01*
X90551175Y-108454099D01*
X90676359Y-108716920D01*
X90850412Y-108950269D01*
X91066645Y-109145178D01*
X91192255Y-109220000D01*
X91066645Y-109294822D01*
X90850412Y-109489731D01*
X90676359Y-109723080D01*
X90551175Y-109985901D01*
X90506524Y-110133110D01*
X90627845Y-110363000D01*
X91821000Y-110363000D01*
X91821000Y-108077000D01*
X90627845Y-108077000D01*
X90506524Y-108306890D01*
X82610000Y-108306890D01*
X82610000Y-105766890D01*
X90506524Y-105766890D01*
X90551175Y-105914099D01*
X90676359Y-106176920D01*
X90850412Y-106410269D01*
X91066645Y-106605178D01*
X91192255Y-106680000D01*
X91066645Y-106754822D01*
X90850412Y-106949731D01*
X90676359Y-107183080D01*
X90551175Y-107445901D01*
X90506524Y-107593110D01*
X90627845Y-107823000D01*
X91821000Y-107823000D01*
X91821000Y-105537000D01*
X90627845Y-105537000D01*
X90506524Y-105766890D01*
X82610000Y-105766890D01*
X82610000Y-103226890D01*
X90506524Y-103226890D01*
X90551175Y-103374099D01*
X90676359Y-103636920D01*
X90850412Y-103870269D01*
X91066645Y-104065178D01*
X91192255Y-104140000D01*
X91066645Y-104214822D01*
X90850412Y-104409731D01*
X90676359Y-104643080D01*
X90551175Y-104905901D01*
X90506524Y-105053110D01*
X90627845Y-105283000D01*
X91821000Y-105283000D01*
X91821000Y-102997000D01*
X90627845Y-102997000D01*
X90506524Y-103226890D01*
X82610000Y-103226890D01*
X82610000Y-100686890D01*
X90506524Y-100686890D01*
X90551175Y-100834099D01*
X90676359Y-101096920D01*
X90850412Y-101330269D01*
X91066645Y-101525178D01*
X91192255Y-101600000D01*
X91066645Y-101674822D01*
X90850412Y-101869731D01*
X90676359Y-102103080D01*
X90551175Y-102365901D01*
X90506524Y-102513110D01*
X90627845Y-102743000D01*
X91821000Y-102743000D01*
X91821000Y-100457000D01*
X90627845Y-100457000D01*
X90506524Y-100686890D01*
X82610000Y-100686890D01*
X82610000Y-98146890D01*
X90506524Y-98146890D01*
X90551175Y-98294099D01*
X90676359Y-98556920D01*
X90850412Y-98790269D01*
X91066645Y-98985178D01*
X91192255Y-99060000D01*
X91066645Y-99134822D01*
X90850412Y-99329731D01*
X90676359Y-99563080D01*
X90551175Y-99825901D01*
X90506524Y-99973110D01*
X90627845Y-100203000D01*
X91821000Y-100203000D01*
X91821000Y-97917000D01*
X90627845Y-97917000D01*
X90506524Y-98146890D01*
X82610000Y-98146890D01*
X82610000Y-95606890D01*
X90506524Y-95606890D01*
X90551175Y-95754099D01*
X90676359Y-96016920D01*
X90850412Y-96250269D01*
X91066645Y-96445178D01*
X91192255Y-96520000D01*
X91066645Y-96594822D01*
X90850412Y-96789731D01*
X90676359Y-97023080D01*
X90551175Y-97285901D01*
X90506524Y-97433110D01*
X90627845Y-97663000D01*
X91821000Y-97663000D01*
X91821000Y-95377000D01*
X90627845Y-95377000D01*
X90506524Y-95606890D01*
X82610000Y-95606890D01*
X82610000Y-93066890D01*
X90506524Y-93066890D01*
X90551175Y-93214099D01*
X90676359Y-93476920D01*
X90850412Y-93710269D01*
X91066645Y-93905178D01*
X91192255Y-93980000D01*
X91066645Y-94054822D01*
X90850412Y-94249731D01*
X90676359Y-94483080D01*
X90551175Y-94745901D01*
X90506524Y-94893110D01*
X90627845Y-95123000D01*
X91821000Y-95123000D01*
X91821000Y-92837000D01*
X90627845Y-92837000D01*
X90506524Y-93066890D01*
X82610000Y-93066890D01*
X82610000Y-90526890D01*
X90506524Y-90526890D01*
X90551175Y-90674099D01*
X90676359Y-90936920D01*
X90850412Y-91170269D01*
X91066645Y-91365178D01*
X91192255Y-91440000D01*
X91066645Y-91514822D01*
X90850412Y-91709731D01*
X90676359Y-91943080D01*
X90551175Y-92205901D01*
X90506524Y-92353110D01*
X90627845Y-92583000D01*
X91821000Y-92583000D01*
X91821000Y-90297000D01*
X90627845Y-90297000D01*
X90506524Y-90526890D01*
X82610000Y-90526890D01*
X82610000Y-87986890D01*
X90506524Y-87986890D01*
X90551175Y-88134099D01*
X90676359Y-88396920D01*
X90850412Y-88630269D01*
X91066645Y-88825178D01*
X91192255Y-88900000D01*
X91066645Y-88974822D01*
X90850412Y-89169731D01*
X90676359Y-89403080D01*
X90551175Y-89665901D01*
X90506524Y-89813110D01*
X90627845Y-90043000D01*
X91821000Y-90043000D01*
X91821000Y-87757000D01*
X90627845Y-87757000D01*
X90506524Y-87986890D01*
X82610000Y-87986890D01*
X82610000Y-58600476D01*
X84777500Y-58600476D01*
X84777500Y-83639524D01*
X89347500Y-83639524D01*
X89347500Y-65893740D01*
X90590000Y-65893740D01*
X90590000Y-66186260D01*
X90647068Y-66473158D01*
X90759010Y-66743411D01*
X90921525Y-66986632D01*
X91128368Y-67193475D01*
X91371589Y-67355990D01*
X91641842Y-67467932D01*
X91928740Y-67525000D01*
X92221260Y-67525000D01*
X92508158Y-67467932D01*
X92778411Y-67355990D01*
X93021632Y-67193475D01*
X93228475Y-66986632D01*
X93269656Y-66925000D01*
X117116529Y-66925000D01*
X117159998Y-66929281D01*
X117203467Y-66925000D01*
X117203475Y-66925000D01*
X117333488Y-66912195D01*
X117500311Y-66861589D01*
X117654057Y-66779411D01*
X117788815Y-66668817D01*
X117816532Y-66635044D01*
X122413937Y-62037640D01*
X122480843Y-62226252D01*
X122629822Y-62476355D01*
X122806626Y-62672502D01*
X122730820Y-62695498D01*
X122620506Y-62754463D01*
X122523815Y-62833815D01*
X122444463Y-62930506D01*
X122385498Y-63040820D01*
X122349188Y-63160518D01*
X122336928Y-63285000D01*
X122336928Y-64985000D01*
X122349188Y-65109482D01*
X122385498Y-65229180D01*
X122444463Y-65339494D01*
X122523815Y-65436185D01*
X122620506Y-65515537D01*
X122730820Y-65574502D01*
X122850518Y-65610812D01*
X122975000Y-65623072D01*
X124675000Y-65623072D01*
X124799482Y-65610812D01*
X124919180Y-65574502D01*
X125029494Y-65515537D01*
X125126185Y-65436185D01*
X125205537Y-65339494D01*
X125264502Y-65229180D01*
X125286513Y-65156620D01*
X125418368Y-65288475D01*
X125609088Y-65415910D01*
X125615998Y-65486067D01*
X125629180Y-65529523D01*
X125659454Y-65629327D01*
X125730026Y-65761357D01*
X125751626Y-65787676D01*
X125825000Y-65877082D01*
X125853998Y-65900880D01*
X126758119Y-66805002D01*
X126781918Y-66834001D01*
X126897643Y-66928974D01*
X127029672Y-66999546D01*
X127172933Y-67043003D01*
X127284586Y-67054000D01*
X127284596Y-67054000D01*
X127321919Y-67057676D01*
X127359242Y-67054000D01*
X135122050Y-67054000D01*
X135224990Y-67156940D01*
X135224991Y-67807071D01*
X135221314Y-67844402D01*
X135224991Y-67881734D01*
X135224991Y-67881735D01*
X135235988Y-67993388D01*
X135248611Y-68035001D01*
X135279444Y-68136648D01*
X135350016Y-68268678D01*
X135412653Y-68345000D01*
X135444990Y-68384403D01*
X135473988Y-68408201D01*
X136061799Y-68996013D01*
X136085598Y-69025012D01*
X136117682Y-69051343D01*
X136201322Y-69119985D01*
X136266849Y-69155010D01*
X136333352Y-69190557D01*
X136476613Y-69234014D01*
X136588266Y-69245011D01*
X136588276Y-69245011D01*
X136625599Y-69248687D01*
X136662922Y-69245011D01*
X141029077Y-69245011D01*
X141066399Y-69248687D01*
X141103721Y-69245011D01*
X141103732Y-69245011D01*
X141215385Y-69234014D01*
X141358646Y-69190557D01*
X141490675Y-69119985D01*
X141606400Y-69025012D01*
X141630203Y-68996008D01*
X141831201Y-68795010D01*
X142806299Y-68795010D01*
X142850226Y-68838937D01*
X143019744Y-68952205D01*
X143208102Y-69030226D01*
X143408061Y-69070000D01*
X143611939Y-69070000D01*
X143811898Y-69030226D01*
X144000256Y-68952205D01*
X144133576Y-68863124D01*
X144198209Y-68889896D01*
X144398168Y-68929670D01*
X144602046Y-68929670D01*
X144802005Y-68889896D01*
X144990363Y-68811875D01*
X145159881Y-68698607D01*
X145304044Y-68554444D01*
X145417312Y-68384926D01*
X145495333Y-68196568D01*
X145535107Y-67996609D01*
X145535107Y-67792731D01*
X145495333Y-67592772D01*
X145417312Y-67404414D01*
X145304044Y-67234896D01*
X145159881Y-67090733D01*
X144990363Y-66977465D01*
X144802005Y-66899444D01*
X144602046Y-66859670D01*
X144539908Y-66859670D01*
X144479240Y-66799002D01*
X144455438Y-66769999D01*
X144339713Y-66675026D01*
X144207684Y-66604454D01*
X144064423Y-66560997D01*
X143952770Y-66550000D01*
X143952759Y-66550000D01*
X143915437Y-66546324D01*
X143878115Y-66550000D01*
X141642322Y-66550000D01*
X141604999Y-66546324D01*
X141567676Y-66550000D01*
X141567667Y-66550000D01*
X141456014Y-66560997D01*
X141312753Y-66604454D01*
X141180724Y-66675026D01*
X141064999Y-66769999D01*
X141041201Y-66798997D01*
X140717922Y-67122276D01*
X140695212Y-67008102D01*
X140617191Y-66819744D01*
X140503923Y-66650226D01*
X140359760Y-66506063D01*
X140190242Y-66392795D01*
X140001884Y-66314774D01*
X139801925Y-66275000D01*
X139739788Y-66275000D01*
X135723791Y-62259004D01*
X135699988Y-62230000D01*
X135584263Y-62135027D01*
X135452234Y-62064455D01*
X135403963Y-62049812D01*
X135412932Y-62028158D01*
X135470000Y-61741260D01*
X135470000Y-61448740D01*
X135412932Y-61161842D01*
X135300990Y-60891589D01*
X135138475Y-60648368D01*
X134931632Y-60441525D01*
X134688411Y-60279010D01*
X134418158Y-60167068D01*
X134131260Y-60110000D01*
X133838740Y-60110000D01*
X133551842Y-60167068D01*
X133281589Y-60279010D01*
X133038368Y-60441525D01*
X132831525Y-60648368D01*
X132715000Y-60822760D01*
X132598475Y-60648368D01*
X132391632Y-60441525D01*
X132148411Y-60279010D01*
X131878158Y-60167068D01*
X131591260Y-60110000D01*
X131298740Y-60110000D01*
X131011842Y-60167068D01*
X130741589Y-60279010D01*
X130498368Y-60441525D01*
X130291525Y-60648368D01*
X130175000Y-60822760D01*
X130058475Y-60648368D01*
X129851632Y-60441525D01*
X129608411Y-60279010D01*
X129338158Y-60167068D01*
X129051260Y-60110000D01*
X128758740Y-60110000D01*
X128471842Y-60167068D01*
X128201589Y-60279010D01*
X127958368Y-60441525D01*
X127751525Y-60648368D01*
X127635000Y-60822760D01*
X127518475Y-60648368D01*
X127311632Y-60441525D01*
X127068411Y-60279010D01*
X126798158Y-60167068D01*
X126511260Y-60110000D01*
X126218740Y-60110000D01*
X126146040Y-60124461D01*
X125521533Y-59499955D01*
X125493816Y-59466182D01*
X125359058Y-59355588D01*
X125205312Y-59273410D01*
X125038489Y-59222804D01*
X124908476Y-59209999D01*
X124908468Y-59209999D01*
X124864999Y-59205718D01*
X124821530Y-59209999D01*
X123148465Y-59209999D01*
X123104998Y-59205718D01*
X123061532Y-59209999D01*
X123061522Y-59209999D01*
X122931509Y-59222804D01*
X122764686Y-59273410D01*
X122610940Y-59355588D01*
X122610938Y-59355589D01*
X122610939Y-59355589D01*
X122509952Y-59438467D01*
X122509950Y-59438469D01*
X122476182Y-59466182D01*
X122448469Y-59499950D01*
X116793420Y-65155000D01*
X93269656Y-65155000D01*
X93228475Y-65093368D01*
X93021632Y-64886525D01*
X92839466Y-64764805D01*
X92956355Y-64695178D01*
X93172588Y-64500269D01*
X93346641Y-64266920D01*
X93471825Y-64004099D01*
X93516476Y-63856890D01*
X93395155Y-63627000D01*
X92202000Y-63627000D01*
X92202000Y-63647000D01*
X91948000Y-63647000D01*
X91948000Y-63627000D01*
X90754845Y-63627000D01*
X90633524Y-63856890D01*
X90678175Y-64004099D01*
X90803359Y-64266920D01*
X90977412Y-64500269D01*
X91193645Y-64695178D01*
X91310534Y-64764805D01*
X91128368Y-64886525D01*
X90921525Y-65093368D01*
X90759010Y-65336589D01*
X90647068Y-65606842D01*
X90590000Y-65893740D01*
X89347500Y-65893740D01*
X89347500Y-61316890D01*
X90633524Y-61316890D01*
X90678175Y-61464099D01*
X90803359Y-61726920D01*
X90977412Y-61960269D01*
X91193645Y-62155178D01*
X91319255Y-62230000D01*
X91193645Y-62304822D01*
X90977412Y-62499731D01*
X90803359Y-62733080D01*
X90678175Y-62995901D01*
X90633524Y-63143110D01*
X90754845Y-63373000D01*
X91948000Y-63373000D01*
X91948000Y-61087000D01*
X92202000Y-61087000D01*
X92202000Y-63373000D01*
X93395155Y-63373000D01*
X93516476Y-63143110D01*
X93471825Y-62995901D01*
X93346641Y-62733080D01*
X93172588Y-62499731D01*
X92956355Y-62304822D01*
X92830745Y-62230000D01*
X92956355Y-62155178D01*
X93172588Y-61960269D01*
X93346641Y-61726920D01*
X93471825Y-61464099D01*
X93516476Y-61316890D01*
X93395155Y-61087000D01*
X92202000Y-61087000D01*
X91948000Y-61087000D01*
X90754845Y-61087000D01*
X90633524Y-61316890D01*
X89347500Y-61316890D01*
X89347500Y-58600476D01*
X84777500Y-58600476D01*
X82610000Y-58600476D01*
X82610000Y-57570000D01*
X90586928Y-57570000D01*
X90586928Y-59270000D01*
X90599188Y-59394482D01*
X90635498Y-59514180D01*
X90694463Y-59624494D01*
X90773815Y-59721185D01*
X90870506Y-59800537D01*
X90980820Y-59859502D01*
X91061466Y-59883966D01*
X90977412Y-59959731D01*
X90803359Y-60193080D01*
X90678175Y-60455901D01*
X90633524Y-60603110D01*
X90754845Y-60833000D01*
X91948000Y-60833000D01*
X91948000Y-60813000D01*
X92202000Y-60813000D01*
X92202000Y-60833000D01*
X93395155Y-60833000D01*
X93516476Y-60603110D01*
X93471825Y-60455901D01*
X93346641Y-60193080D01*
X93172588Y-59959731D01*
X93088534Y-59883966D01*
X93169180Y-59859502D01*
X93279494Y-59800537D01*
X93376185Y-59721185D01*
X93455537Y-59624494D01*
X93514502Y-59514180D01*
X93550812Y-59394482D01*
X93563072Y-59270000D01*
X93563072Y-57570000D01*
X93550812Y-57445518D01*
X93514502Y-57325820D01*
X93455537Y-57215506D01*
X93376185Y-57118815D01*
X93279494Y-57039463D01*
X93169180Y-56980498D01*
X93049482Y-56944188D01*
X92925000Y-56931928D01*
X91225000Y-56931928D01*
X91100518Y-56944188D01*
X90980820Y-56980498D01*
X90870506Y-57039463D01*
X90773815Y-57118815D01*
X90694463Y-57215506D01*
X90635498Y-57325820D01*
X90599188Y-57445518D01*
X90586928Y-57570000D01*
X82610000Y-57570000D01*
X82610000Y-56575000D01*
X112043464Y-56575000D01*
X111555330Y-56901161D01*
G36*
X123952000Y-61468000D02*
G01*
X123972000Y-61468000D01*
X123972000Y-61722000D01*
X123952000Y-61722000D01*
X123952000Y-61742000D01*
X123698000Y-61742000D01*
X123698000Y-61722000D01*
X123678000Y-61722000D01*
X123678000Y-61468000D01*
X123698000Y-61468000D01*
X123698000Y-61448000D01*
X123952000Y-61448000D01*
X123952000Y-61468000D01*
G37*
X123952000Y-61468000D02*
X123972000Y-61468000D01*
X123972000Y-61722000D01*
X123952000Y-61722000D01*
X123952000Y-61742000D01*
X123698000Y-61742000D01*
X123698000Y-61722000D01*
X123678000Y-61722000D01*
X123678000Y-61468000D01*
X123698000Y-61468000D01*
X123698000Y-61448000D01*
X123952000Y-61448000D01*
X123952000Y-61468000D01*
G36*
X92075000Y-74803000D02*
G01*
X92095000Y-74803000D01*
X92095000Y-75057000D01*
X92075000Y-75057000D01*
X92075000Y-77343000D01*
X92095000Y-77343000D01*
X92095000Y-77597000D01*
X92075000Y-77597000D01*
X92075000Y-79883000D01*
X92095000Y-79883000D01*
X92095000Y-80137000D01*
X92075000Y-80137000D01*
X92075000Y-82423000D01*
X92095000Y-82423000D01*
X92095000Y-82677000D01*
X92075000Y-82677000D01*
X92075000Y-84963000D01*
X92095000Y-84963000D01*
X92095000Y-85217000D01*
X92075000Y-85217000D01*
X92075000Y-85237000D01*
X91821000Y-85237000D01*
X91821000Y-85217000D01*
X91801000Y-85217000D01*
X91801000Y-84963000D01*
X91821000Y-84963000D01*
X91821000Y-82677000D01*
X91801000Y-82677000D01*
X91801000Y-82423000D01*
X91821000Y-82423000D01*
X91821000Y-80137000D01*
X91801000Y-80137000D01*
X91801000Y-79883000D01*
X91821000Y-79883000D01*
X91821000Y-77597000D01*
X91801000Y-77597000D01*
X91801000Y-77343000D01*
X91821000Y-77343000D01*
X91821000Y-75057000D01*
X91801000Y-75057000D01*
X91801000Y-74803000D01*
X91821000Y-74803000D01*
X91821000Y-74783000D01*
X92075000Y-74783000D01*
X92075000Y-74803000D01*
G37*
X92075000Y-74803000D02*
X92095000Y-74803000D01*
X92095000Y-75057000D01*
X92075000Y-75057000D01*
X92075000Y-77343000D01*
X92095000Y-77343000D01*
X92095000Y-77597000D01*
X92075000Y-77597000D01*
X92075000Y-79883000D01*
X92095000Y-79883000D01*
X92095000Y-80137000D01*
X92075000Y-80137000D01*
X92075000Y-82423000D01*
X92095000Y-82423000D01*
X92095000Y-82677000D01*
X92075000Y-82677000D01*
X92075000Y-84963000D01*
X92095000Y-84963000D01*
X92095000Y-85217000D01*
X92075000Y-85217000D01*
X92075000Y-85237000D01*
X91821000Y-85237000D01*
X91821000Y-85217000D01*
X91801000Y-85217000D01*
X91801000Y-84963000D01*
X91821000Y-84963000D01*
X91821000Y-82677000D01*
X91801000Y-82677000D01*
X91801000Y-82423000D01*
X91821000Y-82423000D01*
X91821000Y-80137000D01*
X91801000Y-80137000D01*
X91801000Y-79883000D01*
X91821000Y-79883000D01*
X91821000Y-77597000D01*
X91801000Y-77597000D01*
X91801000Y-77343000D01*
X91821000Y-77343000D01*
X91821000Y-75057000D01*
X91801000Y-75057000D01*
X91801000Y-74803000D01*
X91821000Y-74803000D01*
X91821000Y-74783000D01*
X92075000Y-74783000D01*
X92075000Y-74803000D01*
G36*
X141232785Y-75709752D02*
G01*
X141154764Y-75898110D01*
X141114990Y-76098069D01*
X141114990Y-76301947D01*
X141154764Y-76501906D01*
X141232785Y-76690264D01*
X141346053Y-76859782D01*
X141359708Y-76873437D01*
X141306498Y-76873437D01*
X141106539Y-76913211D01*
X140918181Y-76991232D01*
X140748663Y-77104500D01*
X140604500Y-77248663D01*
X140491232Y-77418181D01*
X140413211Y-77606539D01*
X140373437Y-77806498D01*
X140373437Y-78010376D01*
X140413211Y-78210335D01*
X140491232Y-78398693D01*
X140604500Y-78568211D01*
X140648437Y-78612148D01*
X140648437Y-78621761D01*
X138020212Y-81249987D01*
X130006993Y-81249987D01*
X131893909Y-79363071D01*
X132315000Y-79363071D01*
X132315000Y-79566949D01*
X132354774Y-79766908D01*
X132432795Y-79955266D01*
X132546063Y-80124784D01*
X132690226Y-80268947D01*
X132859744Y-80382215D01*
X133048102Y-80460236D01*
X133248061Y-80500010D01*
X133451939Y-80500010D01*
X133651898Y-80460236D01*
X133840256Y-80382215D01*
X134009774Y-80268947D01*
X134053711Y-80225010D01*
X136758051Y-80225010D01*
X136897753Y-80282877D01*
X137097712Y-80322651D01*
X137301590Y-80322651D01*
X137501549Y-80282877D01*
X137689907Y-80204856D01*
X137859425Y-80091588D01*
X138003588Y-79947425D01*
X138116856Y-79777907D01*
X138194877Y-79589549D01*
X138234651Y-79389590D01*
X138234651Y-79185712D01*
X138194877Y-78985753D01*
X138116856Y-78797395D01*
X138003588Y-78627877D01*
X137859425Y-78483714D01*
X137689907Y-78370446D01*
X137501549Y-78292425D01*
X137301590Y-78252651D01*
X137097712Y-78252651D01*
X136897753Y-78292425D01*
X136709395Y-78370446D01*
X136679139Y-78390663D01*
X137199802Y-77870000D01*
X137261939Y-77870000D01*
X137461898Y-77830226D01*
X137650256Y-77752205D01*
X137819774Y-77638937D01*
X137963937Y-77494774D01*
X138077205Y-77325256D01*
X138155226Y-77136898D01*
X138195000Y-76936939D01*
X138195000Y-76733061D01*
X138155226Y-76533102D01*
X138077205Y-76344744D01*
X137963937Y-76175226D01*
X137819774Y-76031063D01*
X137650256Y-75917795D01*
X137461898Y-75839774D01*
X137261939Y-75800000D01*
X137058061Y-75800000D01*
X136858102Y-75839774D01*
X136669744Y-75917795D01*
X136500226Y-76031063D01*
X136356063Y-76175226D01*
X136242795Y-76344744D01*
X136164774Y-76533102D01*
X136125000Y-76733061D01*
X136125000Y-76795198D01*
X135736168Y-77184031D01*
X135556898Y-77109774D01*
X135356939Y-77070000D01*
X135153061Y-77070000D01*
X134953102Y-77109774D01*
X134764744Y-77187795D01*
X134595226Y-77301063D01*
X134451063Y-77445226D01*
X134337795Y-77614744D01*
X134259774Y-77803102D01*
X134220000Y-78003061D01*
X134220000Y-78206939D01*
X134259774Y-78406898D01*
X134337795Y-78595256D01*
X134411130Y-78705010D01*
X134053711Y-78705010D01*
X134009774Y-78661073D01*
X133840256Y-78547805D01*
X133651898Y-78469784D01*
X133451939Y-78430010D01*
X133248061Y-78430010D01*
X133048102Y-78469784D01*
X132859744Y-78547805D01*
X132690226Y-78661073D01*
X132546063Y-78805236D01*
X132432795Y-78974754D01*
X132354774Y-79163112D01*
X132315000Y-79363071D01*
X131893909Y-79363071D01*
X134771838Y-76485143D01*
X134953102Y-76560226D01*
X135153061Y-76600000D01*
X135356939Y-76600000D01*
X135556898Y-76560226D01*
X135745256Y-76482205D01*
X135914774Y-76368937D01*
X136058937Y-76224774D01*
X136172205Y-76055256D01*
X136250226Y-75866898D01*
X136290000Y-75666939D01*
X136290000Y-75576125D01*
X141322071Y-75576125D01*
X141232785Y-75709752D01*
G37*
X141232785Y-75709752D02*
X141154764Y-75898110D01*
X141114990Y-76098069D01*
X141114990Y-76301947D01*
X141154764Y-76501906D01*
X141232785Y-76690264D01*
X141346053Y-76859782D01*
X141359708Y-76873437D01*
X141306498Y-76873437D01*
X141106539Y-76913211D01*
X140918181Y-76991232D01*
X140748663Y-77104500D01*
X140604500Y-77248663D01*
X140491232Y-77418181D01*
X140413211Y-77606539D01*
X140373437Y-77806498D01*
X140373437Y-78010376D01*
X140413211Y-78210335D01*
X140491232Y-78398693D01*
X140604500Y-78568211D01*
X140648437Y-78612148D01*
X140648437Y-78621761D01*
X138020212Y-81249987D01*
X130006993Y-81249987D01*
X131893909Y-79363071D01*
X132315000Y-79363071D01*
X132315000Y-79566949D01*
X132354774Y-79766908D01*
X132432795Y-79955266D01*
X132546063Y-80124784D01*
X132690226Y-80268947D01*
X132859744Y-80382215D01*
X133048102Y-80460236D01*
X133248061Y-80500010D01*
X133451939Y-80500010D01*
X133651898Y-80460236D01*
X133840256Y-80382215D01*
X134009774Y-80268947D01*
X134053711Y-80225010D01*
X136758051Y-80225010D01*
X136897753Y-80282877D01*
X137097712Y-80322651D01*
X137301590Y-80322651D01*
X137501549Y-80282877D01*
X137689907Y-80204856D01*
X137859425Y-80091588D01*
X138003588Y-79947425D01*
X138116856Y-79777907D01*
X138194877Y-79589549D01*
X138234651Y-79389590D01*
X138234651Y-79185712D01*
X138194877Y-78985753D01*
X138116856Y-78797395D01*
X138003588Y-78627877D01*
X137859425Y-78483714D01*
X137689907Y-78370446D01*
X137501549Y-78292425D01*
X137301590Y-78252651D01*
X137097712Y-78252651D01*
X136897753Y-78292425D01*
X136709395Y-78370446D01*
X136679139Y-78390663D01*
X137199802Y-77870000D01*
X137261939Y-77870000D01*
X137461898Y-77830226D01*
X137650256Y-77752205D01*
X137819774Y-77638937D01*
X137963937Y-77494774D01*
X138077205Y-77325256D01*
X138155226Y-77136898D01*
X138195000Y-76936939D01*
X138195000Y-76733061D01*
X138155226Y-76533102D01*
X138077205Y-76344744D01*
X137963937Y-76175226D01*
X137819774Y-76031063D01*
X137650256Y-75917795D01*
X137461898Y-75839774D01*
X137261939Y-75800000D01*
X137058061Y-75800000D01*
X136858102Y-75839774D01*
X136669744Y-75917795D01*
X136500226Y-76031063D01*
X136356063Y-76175226D01*
X136242795Y-76344744D01*
X136164774Y-76533102D01*
X136125000Y-76733061D01*
X136125000Y-76795198D01*
X135736168Y-77184031D01*
X135556898Y-77109774D01*
X135356939Y-77070000D01*
X135153061Y-77070000D01*
X134953102Y-77109774D01*
X134764744Y-77187795D01*
X134595226Y-77301063D01*
X134451063Y-77445226D01*
X134337795Y-77614744D01*
X134259774Y-77803102D01*
X134220000Y-78003061D01*
X134220000Y-78206939D01*
X134259774Y-78406898D01*
X134337795Y-78595256D01*
X134411130Y-78705010D01*
X134053711Y-78705010D01*
X134009774Y-78661073D01*
X133840256Y-78547805D01*
X133651898Y-78469784D01*
X133451939Y-78430010D01*
X133248061Y-78430010D01*
X133048102Y-78469784D01*
X132859744Y-78547805D01*
X132690226Y-78661073D01*
X132546063Y-78805236D01*
X132432795Y-78974754D01*
X132354774Y-79163112D01*
X132315000Y-79363071D01*
X131893909Y-79363071D01*
X134771838Y-76485143D01*
X134953102Y-76560226D01*
X135153061Y-76600000D01*
X135356939Y-76600000D01*
X135556898Y-76560226D01*
X135745256Y-76482205D01*
X135914774Y-76368937D01*
X136058937Y-76224774D01*
X136172205Y-76055256D01*
X136250226Y-75866898D01*
X136290000Y-75666939D01*
X136290000Y-75576125D01*
X141322071Y-75576125D01*
X141232785Y-75709752D01*
M02*
