G04 #@! TF.GenerationSoftware,KiCad,Pcbnew,(5.1.5)-3*
G04 #@! TF.CreationDate,2020-10-28T12:36:19+01:00*
G04 #@! TF.ProjectId,Gotek_Floppy_Disk_Emulator_V2,476f7465-6b5f-4466-9c6f-7070795f4469,rev?*
G04 #@! TF.SameCoordinates,Original*
G04 #@! TF.FileFunction,Legend,Top*
G04 #@! TF.FilePolarity,Positive*
%FSLAX46Y46*%
G04 Gerber Fmt 4.6, Leading zero omitted, Abs format (unit mm)*
G04 Created by KiCad (PCBNEW (5.1.5)-3) date 2020-10-28 12:36:19*
%MOMM*%
%LPD*%
G04 APERTURE LIST*
%ADD10C,0.150000*%
%ADD11C,0.120000*%
G04 APERTURE END LIST*
D10*
X117348095Y-75334761D02*
X117490952Y-75382380D01*
X117729047Y-75382380D01*
X117824285Y-75334761D01*
X117871904Y-75287142D01*
X117919523Y-75191904D01*
X117919523Y-75096666D01*
X117871904Y-75001428D01*
X117824285Y-74953809D01*
X117729047Y-74906190D01*
X117538571Y-74858571D01*
X117443333Y-74810952D01*
X117395714Y-74763333D01*
X117348095Y-74668095D01*
X117348095Y-74572857D01*
X117395714Y-74477619D01*
X117443333Y-74430000D01*
X117538571Y-74382380D01*
X117776666Y-74382380D01*
X117919523Y-74430000D01*
X118871904Y-75382380D02*
X118300476Y-75382380D01*
X118586190Y-75382380D02*
X118586190Y-74382380D01*
X118490952Y-74525238D01*
X118395714Y-74620476D01*
X118300476Y-74668095D01*
X117348095Y-77874761D02*
X117490952Y-77922380D01*
X117729047Y-77922380D01*
X117824285Y-77874761D01*
X117871904Y-77827142D01*
X117919523Y-77731904D01*
X117919523Y-77636666D01*
X117871904Y-77541428D01*
X117824285Y-77493809D01*
X117729047Y-77446190D01*
X117538571Y-77398571D01*
X117443333Y-77350952D01*
X117395714Y-77303333D01*
X117348095Y-77208095D01*
X117348095Y-77112857D01*
X117395714Y-77017619D01*
X117443333Y-76970000D01*
X117538571Y-76922380D01*
X117776666Y-76922380D01*
X117919523Y-76970000D01*
X118538571Y-76922380D02*
X118633809Y-76922380D01*
X118729047Y-76970000D01*
X118776666Y-77017619D01*
X118824285Y-77112857D01*
X118871904Y-77303333D01*
X118871904Y-77541428D01*
X118824285Y-77731904D01*
X118776666Y-77827142D01*
X118729047Y-77874761D01*
X118633809Y-77922380D01*
X118538571Y-77922380D01*
X118443333Y-77874761D01*
X118395714Y-77827142D01*
X118348095Y-77731904D01*
X118300476Y-77541428D01*
X118300476Y-77303333D01*
X118348095Y-77112857D01*
X118395714Y-77017619D01*
X118443333Y-76970000D01*
X118538571Y-76922380D01*
X114482857Y-80414761D02*
X114625714Y-80462380D01*
X114863809Y-80462380D01*
X114959047Y-80414761D01*
X115006666Y-80367142D01*
X115054285Y-80271904D01*
X115054285Y-80176666D01*
X115006666Y-80081428D01*
X114959047Y-80033809D01*
X114863809Y-79986190D01*
X114673333Y-79938571D01*
X114578095Y-79890952D01*
X114530476Y-79843333D01*
X114482857Y-79748095D01*
X114482857Y-79652857D01*
X114530476Y-79557619D01*
X114578095Y-79510000D01*
X114673333Y-79462380D01*
X114911428Y-79462380D01*
X115054285Y-79510000D01*
X115673333Y-79462380D02*
X115863809Y-79462380D01*
X115959047Y-79510000D01*
X116054285Y-79605238D01*
X116101904Y-79795714D01*
X116101904Y-80129047D01*
X116054285Y-80319523D01*
X115959047Y-80414761D01*
X115863809Y-80462380D01*
X115673333Y-80462380D01*
X115578095Y-80414761D01*
X115482857Y-80319523D01*
X115435238Y-80129047D01*
X115435238Y-79795714D01*
X115482857Y-79605238D01*
X115578095Y-79510000D01*
X115673333Y-79462380D01*
X116530476Y-79462380D02*
X116530476Y-80271904D01*
X116578095Y-80367142D01*
X116625714Y-80414761D01*
X116720952Y-80462380D01*
X116911428Y-80462380D01*
X117006666Y-80414761D01*
X117054285Y-80367142D01*
X117101904Y-80271904D01*
X117101904Y-79462380D01*
X117578095Y-80462380D02*
X117578095Y-79462380D01*
X118149523Y-80462380D01*
X118149523Y-79462380D01*
X118625714Y-80462380D02*
X118625714Y-79462380D01*
X118863809Y-79462380D01*
X119006666Y-79510000D01*
X119101904Y-79605238D01*
X119149523Y-79700476D01*
X119197142Y-79890952D01*
X119197142Y-80033809D01*
X119149523Y-80224285D01*
X119101904Y-80319523D01*
X119006666Y-80414761D01*
X118863809Y-80462380D01*
X118625714Y-80462380D01*
X117752857Y-82002380D02*
X117752857Y-82716666D01*
X117705238Y-82859523D01*
X117610000Y-82954761D01*
X117467142Y-83002380D01*
X117371904Y-83002380D01*
X118800476Y-82907142D02*
X118752857Y-82954761D01*
X118610000Y-83002380D01*
X118514761Y-83002380D01*
X118371904Y-82954761D01*
X118276666Y-82859523D01*
X118229047Y-82764285D01*
X118181428Y-82573809D01*
X118181428Y-82430952D01*
X118229047Y-82240476D01*
X118276666Y-82145238D01*
X118371904Y-82050000D01*
X118514761Y-82002380D01*
X118610000Y-82002380D01*
X118752857Y-82050000D01*
X118800476Y-82097619D01*
X117776666Y-84542380D02*
X117776666Y-85256666D01*
X117729047Y-85399523D01*
X117633809Y-85494761D01*
X117490952Y-85542380D01*
X117395714Y-85542380D01*
X118729047Y-84542380D02*
X118252857Y-84542380D01*
X118205238Y-85018571D01*
X118252857Y-84970952D01*
X118348095Y-84923333D01*
X118586190Y-84923333D01*
X118681428Y-84970952D01*
X118729047Y-85018571D01*
X118776666Y-85113809D01*
X118776666Y-85351904D01*
X118729047Y-85447142D01*
X118681428Y-85494761D01*
X118586190Y-85542380D01*
X118348095Y-85542380D01*
X118252857Y-85494761D01*
X118205238Y-85447142D01*
X116871904Y-88082380D02*
X116871904Y-87082380D01*
X117110000Y-87082380D01*
X117252857Y-87130000D01*
X117348095Y-87225238D01*
X117395714Y-87320476D01*
X117443333Y-87510952D01*
X117443333Y-87653809D01*
X117395714Y-87844285D01*
X117348095Y-87939523D01*
X117252857Y-88034761D01*
X117110000Y-88082380D01*
X116871904Y-88082380D01*
X118443333Y-87987142D02*
X118395714Y-88034761D01*
X118252857Y-88082380D01*
X118157619Y-88082380D01*
X118014761Y-88034761D01*
X117919523Y-87939523D01*
X117871904Y-87844285D01*
X117824285Y-87653809D01*
X117824285Y-87510952D01*
X117871904Y-87320476D01*
X117919523Y-87225238D01*
X118014761Y-87130000D01*
X118157619Y-87082380D01*
X118252857Y-87082380D01*
X118395714Y-87130000D01*
X118443333Y-87177619D01*
X118824285Y-87177619D02*
X118871904Y-87130000D01*
X118967142Y-87082380D01*
X119205238Y-87082380D01*
X119300476Y-87130000D01*
X119348095Y-87177619D01*
X119395714Y-87272857D01*
X119395714Y-87368095D01*
X119348095Y-87510952D01*
X118776666Y-88082380D01*
X119395714Y-88082380D01*
X116871904Y-90622380D02*
X116871904Y-89622380D01*
X117110000Y-89622380D01*
X117252857Y-89670000D01*
X117348095Y-89765238D01*
X117395714Y-89860476D01*
X117443333Y-90050952D01*
X117443333Y-90193809D01*
X117395714Y-90384285D01*
X117348095Y-90479523D01*
X117252857Y-90574761D01*
X117110000Y-90622380D01*
X116871904Y-90622380D01*
X118443333Y-90527142D02*
X118395714Y-90574761D01*
X118252857Y-90622380D01*
X118157619Y-90622380D01*
X118014761Y-90574761D01*
X117919523Y-90479523D01*
X117871904Y-90384285D01*
X117824285Y-90193809D01*
X117824285Y-90050952D01*
X117871904Y-89860476D01*
X117919523Y-89765238D01*
X118014761Y-89670000D01*
X118157619Y-89622380D01*
X118252857Y-89622380D01*
X118395714Y-89670000D01*
X118443333Y-89717619D01*
X119395714Y-90622380D02*
X118824285Y-90622380D01*
X119110000Y-90622380D02*
X119110000Y-89622380D01*
X119014761Y-89765238D01*
X118919523Y-89860476D01*
X118824285Y-89908095D01*
X133927857Y-69716428D02*
X133965952Y-69602142D01*
X134004047Y-69564047D01*
X134080238Y-69525952D01*
X134194523Y-69525952D01*
X134270714Y-69564047D01*
X134308809Y-69602142D01*
X134346904Y-69678333D01*
X134346904Y-69983095D01*
X133546904Y-69983095D01*
X133546904Y-69716428D01*
X133585000Y-69640238D01*
X133623095Y-69602142D01*
X133699285Y-69564047D01*
X133775476Y-69564047D01*
X133851666Y-69602142D01*
X133889761Y-69640238D01*
X133927857Y-69716428D01*
X133927857Y-69983095D01*
X133546904Y-69030714D02*
X133546904Y-68878333D01*
X133585000Y-68802142D01*
X133661190Y-68725952D01*
X133813571Y-68687857D01*
X134080238Y-68687857D01*
X134232619Y-68725952D01*
X134308809Y-68802142D01*
X134346904Y-68878333D01*
X134346904Y-69030714D01*
X134308809Y-69106904D01*
X134232619Y-69183095D01*
X134080238Y-69221190D01*
X133813571Y-69221190D01*
X133661190Y-69183095D01*
X133585000Y-69106904D01*
X133546904Y-69030714D01*
X133546904Y-68192619D02*
X133546904Y-68040238D01*
X133585000Y-67964047D01*
X133661190Y-67887857D01*
X133813571Y-67849761D01*
X134080238Y-67849761D01*
X134232619Y-67887857D01*
X134308809Y-67964047D01*
X134346904Y-68040238D01*
X134346904Y-68192619D01*
X134308809Y-68268809D01*
X134232619Y-68345000D01*
X134080238Y-68383095D01*
X133813571Y-68383095D01*
X133661190Y-68345000D01*
X133585000Y-68268809D01*
X133546904Y-68192619D01*
X133546904Y-67621190D02*
X133546904Y-67164047D01*
X134346904Y-67392619D02*
X133546904Y-67392619D01*
X134423095Y-67087857D02*
X134423095Y-66478333D01*
X133546904Y-66135476D02*
X133546904Y-66059285D01*
X133585000Y-65983095D01*
X133623095Y-65945000D01*
X133699285Y-65906904D01*
X133851666Y-65868809D01*
X134042142Y-65868809D01*
X134194523Y-65906904D01*
X134270714Y-65945000D01*
X134308809Y-65983095D01*
X134346904Y-66059285D01*
X134346904Y-66135476D01*
X134308809Y-66211666D01*
X134270714Y-66249761D01*
X134194523Y-66287857D01*
X134042142Y-66325952D01*
X133851666Y-66325952D01*
X133699285Y-66287857D01*
X133623095Y-66249761D01*
X133585000Y-66211666D01*
X133546904Y-66135476D01*
X131502142Y-69545000D02*
X131502142Y-68935476D01*
X131806904Y-69240238D02*
X131197380Y-69240238D01*
X131006904Y-68630714D02*
X131006904Y-68135476D01*
X131311666Y-68402142D01*
X131311666Y-68287857D01*
X131349761Y-68211666D01*
X131387857Y-68173571D01*
X131464047Y-68135476D01*
X131654523Y-68135476D01*
X131730714Y-68173571D01*
X131768809Y-68211666D01*
X131806904Y-68287857D01*
X131806904Y-68516428D01*
X131768809Y-68592619D01*
X131730714Y-68630714D01*
X131730714Y-67792619D02*
X131768809Y-67754523D01*
X131806904Y-67792619D01*
X131768809Y-67830714D01*
X131730714Y-67792619D01*
X131806904Y-67792619D01*
X131006904Y-67487857D02*
X131006904Y-66992619D01*
X131311666Y-67259285D01*
X131311666Y-67145000D01*
X131349761Y-67068809D01*
X131387857Y-67030714D01*
X131464047Y-66992619D01*
X131654523Y-66992619D01*
X131730714Y-67030714D01*
X131768809Y-67068809D01*
X131806904Y-67145000D01*
X131806904Y-67373571D01*
X131768809Y-67449761D01*
X131730714Y-67487857D01*
X131006904Y-66764047D02*
X131806904Y-66497380D01*
X131006904Y-66230714D01*
X127791904Y-69983095D02*
X128439523Y-69983095D01*
X128515714Y-69945000D01*
X128553809Y-69906904D01*
X128591904Y-69830714D01*
X128591904Y-69678333D01*
X128553809Y-69602142D01*
X128515714Y-69564047D01*
X128439523Y-69525952D01*
X127791904Y-69525952D01*
X128553809Y-69183095D02*
X128591904Y-69068809D01*
X128591904Y-68878333D01*
X128553809Y-68802142D01*
X128515714Y-68764047D01*
X128439523Y-68725952D01*
X128363333Y-68725952D01*
X128287142Y-68764047D01*
X128249047Y-68802142D01*
X128210952Y-68878333D01*
X128172857Y-69030714D01*
X128134761Y-69106904D01*
X128096666Y-69145000D01*
X128020476Y-69183095D01*
X127944285Y-69183095D01*
X127868095Y-69145000D01*
X127830000Y-69106904D01*
X127791904Y-69030714D01*
X127791904Y-68840238D01*
X127830000Y-68725952D01*
X128363333Y-68421190D02*
X128363333Y-68040238D01*
X128591904Y-68497380D02*
X127791904Y-68230714D01*
X128591904Y-67964047D01*
X128591904Y-67240238D02*
X128210952Y-67506904D01*
X128591904Y-67697380D02*
X127791904Y-67697380D01*
X127791904Y-67392619D01*
X127830000Y-67316428D01*
X127868095Y-67278333D01*
X127944285Y-67240238D01*
X128058571Y-67240238D01*
X128134761Y-67278333D01*
X128172857Y-67316428D01*
X128210952Y-67392619D01*
X128210952Y-67697380D01*
X127791904Y-67011666D02*
X127791904Y-66554523D01*
X128591904Y-66783095D02*
X127791904Y-66783095D01*
X128591904Y-65868809D02*
X128591904Y-66325952D01*
X128591904Y-66097380D02*
X127791904Y-66097380D01*
X127906190Y-66173571D01*
X127982380Y-66249761D01*
X128020476Y-66325952D01*
X129141904Y-68554523D02*
X129141904Y-68097380D01*
X129941904Y-68325952D02*
X129141904Y-68325952D01*
X129141904Y-67906904D02*
X129941904Y-67373571D01*
X129141904Y-67373571D02*
X129941904Y-67906904D01*
X125251904Y-69983095D02*
X125899523Y-69983095D01*
X125975714Y-69945000D01*
X126013809Y-69906904D01*
X126051904Y-69830714D01*
X126051904Y-69678333D01*
X126013809Y-69602142D01*
X125975714Y-69564047D01*
X125899523Y-69525952D01*
X125251904Y-69525952D01*
X126013809Y-69183095D02*
X126051904Y-69068809D01*
X126051904Y-68878333D01*
X126013809Y-68802142D01*
X125975714Y-68764047D01*
X125899523Y-68725952D01*
X125823333Y-68725952D01*
X125747142Y-68764047D01*
X125709047Y-68802142D01*
X125670952Y-68878333D01*
X125632857Y-69030714D01*
X125594761Y-69106904D01*
X125556666Y-69145000D01*
X125480476Y-69183095D01*
X125404285Y-69183095D01*
X125328095Y-69145000D01*
X125290000Y-69106904D01*
X125251904Y-69030714D01*
X125251904Y-68840238D01*
X125290000Y-68725952D01*
X125823333Y-68421190D02*
X125823333Y-68040238D01*
X126051904Y-68497380D02*
X125251904Y-68230714D01*
X126051904Y-67964047D01*
X126051904Y-67240238D02*
X125670952Y-67506904D01*
X126051904Y-67697380D02*
X125251904Y-67697380D01*
X125251904Y-67392619D01*
X125290000Y-67316428D01*
X125328095Y-67278333D01*
X125404285Y-67240238D01*
X125518571Y-67240238D01*
X125594761Y-67278333D01*
X125632857Y-67316428D01*
X125670952Y-67392619D01*
X125670952Y-67697380D01*
X125251904Y-67011666D02*
X125251904Y-66554523D01*
X126051904Y-66783095D02*
X125251904Y-66783095D01*
X126051904Y-65868809D02*
X126051904Y-66325952D01*
X126051904Y-66097380D02*
X125251904Y-66097380D01*
X125366190Y-66173571D01*
X125442380Y-66249761D01*
X125480476Y-66325952D01*
X127401904Y-68078333D02*
X127020952Y-68345000D01*
X127401904Y-68535476D02*
X126601904Y-68535476D01*
X126601904Y-68230714D01*
X126640000Y-68154523D01*
X126678095Y-68116428D01*
X126754285Y-68078333D01*
X126868571Y-68078333D01*
X126944761Y-68116428D01*
X126982857Y-68154523D01*
X127020952Y-68230714D01*
X127020952Y-68535476D01*
X126601904Y-67811666D02*
X127401904Y-67278333D01*
X126601904Y-67278333D02*
X127401904Y-67811666D01*
X124186904Y-69259285D02*
X123386904Y-69259285D01*
X124186904Y-68802142D01*
X123386904Y-68802142D01*
X124186904Y-67964047D02*
X123805952Y-68230714D01*
X124186904Y-68421190D02*
X123386904Y-68421190D01*
X123386904Y-68116428D01*
X123425000Y-68040238D01*
X123463095Y-68002142D01*
X123539285Y-67964047D01*
X123653571Y-67964047D01*
X123729761Y-68002142D01*
X123767857Y-68040238D01*
X123805952Y-68116428D01*
X123805952Y-68421190D01*
X124148809Y-67659285D02*
X124186904Y-67545000D01*
X124186904Y-67354523D01*
X124148809Y-67278333D01*
X124110714Y-67240238D01*
X124034523Y-67202142D01*
X123958333Y-67202142D01*
X123882142Y-67240238D01*
X123844047Y-67278333D01*
X123805952Y-67354523D01*
X123767857Y-67506904D01*
X123729761Y-67583095D01*
X123691666Y-67621190D01*
X123615476Y-67659285D01*
X123539285Y-67659285D01*
X123463095Y-67621190D01*
X123425000Y-67583095D01*
X123386904Y-67506904D01*
X123386904Y-67316428D01*
X123425000Y-67202142D01*
X123386904Y-66973571D02*
X123386904Y-66516428D01*
X124186904Y-66745000D02*
X123386904Y-66745000D01*
X130331904Y-58813571D02*
X130903333Y-58813571D01*
X131017619Y-58851666D01*
X131093809Y-58927857D01*
X131131904Y-59042142D01*
X131131904Y-59118333D01*
X130331904Y-58546904D02*
X130331904Y-58089761D01*
X131131904Y-58318333D02*
X130331904Y-58318333D01*
X131131904Y-57823095D02*
X130331904Y-57823095D01*
X130903333Y-57556428D01*
X130331904Y-57289761D01*
X131131904Y-57289761D01*
X131093809Y-56946904D02*
X131131904Y-56832619D01*
X131131904Y-56642142D01*
X131093809Y-56565952D01*
X131055714Y-56527857D01*
X130979523Y-56489761D01*
X130903333Y-56489761D01*
X130827142Y-56527857D01*
X130789047Y-56565952D01*
X130750952Y-56642142D01*
X130712857Y-56794523D01*
X130674761Y-56870714D01*
X130636666Y-56908809D01*
X130560476Y-56946904D01*
X130484285Y-56946904D01*
X130408095Y-56908809D01*
X130370000Y-56870714D01*
X130331904Y-56794523D01*
X130331904Y-56604047D01*
X130370000Y-56489761D01*
X132443809Y-59480238D02*
X132481904Y-59365952D01*
X132481904Y-59175476D01*
X132443809Y-59099285D01*
X132405714Y-59061190D01*
X132329523Y-59023095D01*
X132253333Y-59023095D01*
X132177142Y-59061190D01*
X132139047Y-59099285D01*
X132100952Y-59175476D01*
X132062857Y-59327857D01*
X132024761Y-59404047D01*
X131986666Y-59442142D01*
X131910476Y-59480238D01*
X131834285Y-59480238D01*
X131758095Y-59442142D01*
X131720000Y-59404047D01*
X131681904Y-59327857D01*
X131681904Y-59137380D01*
X131720000Y-59023095D01*
X131681904Y-58756428D02*
X132481904Y-58565952D01*
X131910476Y-58413571D01*
X132481904Y-58261190D01*
X131681904Y-58070714D01*
X132481904Y-57765952D02*
X131681904Y-57765952D01*
X131681904Y-57575476D01*
X131720000Y-57461190D01*
X131796190Y-57385000D01*
X131872380Y-57346904D01*
X132024761Y-57308809D01*
X132139047Y-57308809D01*
X132291428Y-57346904D01*
X132367619Y-57385000D01*
X132443809Y-57461190D01*
X132481904Y-57575476D01*
X132481904Y-57765952D01*
X132481904Y-56965952D02*
X131681904Y-56965952D01*
X131681904Y-56432619D02*
X131681904Y-56280238D01*
X131720000Y-56204047D01*
X131796190Y-56127857D01*
X131948571Y-56089761D01*
X132215238Y-56089761D01*
X132367619Y-56127857D01*
X132443809Y-56204047D01*
X132481904Y-56280238D01*
X132481904Y-56432619D01*
X132443809Y-56508809D01*
X132367619Y-56585000D01*
X132215238Y-56623095D01*
X131948571Y-56623095D01*
X131796190Y-56585000D01*
X131720000Y-56508809D01*
X131681904Y-56432619D01*
X127791904Y-58775476D02*
X128363333Y-58775476D01*
X128477619Y-58813571D01*
X128553809Y-58889761D01*
X128591904Y-59004047D01*
X128591904Y-59080238D01*
X127791904Y-58508809D02*
X127791904Y-58051666D01*
X128591904Y-58280238D02*
X127791904Y-58280238D01*
X128515714Y-57327857D02*
X128553809Y-57365952D01*
X128591904Y-57480238D01*
X128591904Y-57556428D01*
X128553809Y-57670714D01*
X128477619Y-57746904D01*
X128401428Y-57785000D01*
X128249047Y-57823095D01*
X128134761Y-57823095D01*
X127982380Y-57785000D01*
X127906190Y-57746904D01*
X127830000Y-57670714D01*
X127791904Y-57556428D01*
X127791904Y-57480238D01*
X127830000Y-57365952D01*
X127868095Y-57327857D01*
X128591904Y-56985000D02*
X127791904Y-56985000D01*
X128591904Y-56527857D02*
X128134761Y-56870714D01*
X127791904Y-56527857D02*
X128249047Y-56985000D01*
X129903809Y-59594523D02*
X129941904Y-59480238D01*
X129941904Y-59289761D01*
X129903809Y-59213571D01*
X129865714Y-59175476D01*
X129789523Y-59137380D01*
X129713333Y-59137380D01*
X129637142Y-59175476D01*
X129599047Y-59213571D01*
X129560952Y-59289761D01*
X129522857Y-59442142D01*
X129484761Y-59518333D01*
X129446666Y-59556428D01*
X129370476Y-59594523D01*
X129294285Y-59594523D01*
X129218095Y-59556428D01*
X129180000Y-59518333D01*
X129141904Y-59442142D01*
X129141904Y-59251666D01*
X129180000Y-59137380D01*
X129141904Y-58870714D02*
X129941904Y-58680238D01*
X129370476Y-58527857D01*
X129941904Y-58375476D01*
X129141904Y-58185000D01*
X129865714Y-57423095D02*
X129903809Y-57461190D01*
X129941904Y-57575476D01*
X129941904Y-57651666D01*
X129903809Y-57765952D01*
X129827619Y-57842142D01*
X129751428Y-57880238D01*
X129599047Y-57918333D01*
X129484761Y-57918333D01*
X129332380Y-57880238D01*
X129256190Y-57842142D01*
X129180000Y-57765952D01*
X129141904Y-57651666D01*
X129141904Y-57575476D01*
X129180000Y-57461190D01*
X129218095Y-57423095D01*
X129941904Y-56699285D02*
X129941904Y-57080238D01*
X129141904Y-57080238D01*
X129941904Y-56432619D02*
X129141904Y-56432619D01*
X129941904Y-55975476D02*
X129484761Y-56318333D01*
X129141904Y-55975476D02*
X129599047Y-56432619D01*
X126422142Y-58813571D02*
X126422142Y-58204047D01*
X126726904Y-58508809D02*
X126117380Y-58508809D01*
X125926904Y-57442142D02*
X125926904Y-57823095D01*
X126307857Y-57861190D01*
X126269761Y-57823095D01*
X126231666Y-57746904D01*
X126231666Y-57556428D01*
X126269761Y-57480238D01*
X126307857Y-57442142D01*
X126384047Y-57404047D01*
X126574523Y-57404047D01*
X126650714Y-57442142D01*
X126688809Y-57480238D01*
X126726904Y-57556428D01*
X126726904Y-57746904D01*
X126688809Y-57823095D01*
X126650714Y-57861190D01*
X125926904Y-57175476D02*
X126726904Y-56908809D01*
X125926904Y-56642142D01*
X123425000Y-58394523D02*
X123386904Y-58470714D01*
X123386904Y-58585000D01*
X123425000Y-58699285D01*
X123501190Y-58775476D01*
X123577380Y-58813571D01*
X123729761Y-58851666D01*
X123844047Y-58851666D01*
X123996428Y-58813571D01*
X124072619Y-58775476D01*
X124148809Y-58699285D01*
X124186904Y-58585000D01*
X124186904Y-58508809D01*
X124148809Y-58394523D01*
X124110714Y-58356428D01*
X123844047Y-58356428D01*
X123844047Y-58508809D01*
X124186904Y-58013571D02*
X123386904Y-58013571D01*
X124186904Y-57556428D01*
X123386904Y-57556428D01*
X124186904Y-57175476D02*
X123386904Y-57175476D01*
X123386904Y-56985000D01*
X123425000Y-56870714D01*
X123501190Y-56794523D01*
X123577380Y-56756428D01*
X123729761Y-56718333D01*
X123844047Y-56718333D01*
X123996428Y-56756428D01*
X124072619Y-56794523D01*
X124148809Y-56870714D01*
X124186904Y-56985000D01*
X124186904Y-57175476D01*
D11*
X150525000Y-71405000D02*
X150525000Y-70455000D01*
X150525000Y-70455000D02*
X149575000Y-70455000D01*
X150525000Y-79725000D02*
X150525000Y-80675000D01*
X150525000Y-80675000D02*
X149575000Y-80675000D01*
X140305000Y-71405000D02*
X140305000Y-70455000D01*
X140305000Y-70455000D02*
X141255000Y-70455000D01*
X140305000Y-79725000D02*
X140305000Y-80675000D01*
X140305000Y-80675000D02*
X141255000Y-80675000D01*
X141255000Y-80675000D02*
X141255000Y-82015000D01*
X95758000Y-71120000D02*
X94488000Y-71120000D01*
X95758000Y-72390000D02*
X95758000Y-71120000D01*
X93445071Y-113410000D02*
X92990929Y-113410000D01*
X93445071Y-112650000D02*
X92990929Y-112650000D01*
X90905071Y-113410000D02*
X90508000Y-113410000D01*
X90905071Y-112650000D02*
X90508000Y-112650000D01*
X81848000Y-113410000D02*
X87848000Y-113410000D01*
X81848000Y-112650000D02*
X81848000Y-113410000D01*
X87848000Y-112650000D02*
X81848000Y-112650000D01*
X90508000Y-111760000D02*
X87848000Y-111760000D01*
X93445071Y-110870000D02*
X92990929Y-110870000D01*
X93445071Y-110110000D02*
X92990929Y-110110000D01*
X90905071Y-110870000D02*
X90508000Y-110870000D01*
X90905071Y-110110000D02*
X90508000Y-110110000D01*
X81848000Y-110870000D02*
X87848000Y-110870000D01*
X81848000Y-110110000D02*
X81848000Y-110870000D01*
X87848000Y-110110000D02*
X81848000Y-110110000D01*
X90508000Y-109220000D02*
X87848000Y-109220000D01*
X93445071Y-108330000D02*
X92990929Y-108330000D01*
X93445071Y-107570000D02*
X92990929Y-107570000D01*
X90905071Y-108330000D02*
X90508000Y-108330000D01*
X90905071Y-107570000D02*
X90508000Y-107570000D01*
X81848000Y-108330000D02*
X87848000Y-108330000D01*
X81848000Y-107570000D02*
X81848000Y-108330000D01*
X87848000Y-107570000D02*
X81848000Y-107570000D01*
X90508000Y-106680000D02*
X87848000Y-106680000D01*
X93445071Y-105790000D02*
X92990929Y-105790000D01*
X93445071Y-105030000D02*
X92990929Y-105030000D01*
X90905071Y-105790000D02*
X90508000Y-105790000D01*
X90905071Y-105030000D02*
X90508000Y-105030000D01*
X81848000Y-105790000D02*
X87848000Y-105790000D01*
X81848000Y-105030000D02*
X81848000Y-105790000D01*
X87848000Y-105030000D02*
X81848000Y-105030000D01*
X90508000Y-104140000D02*
X87848000Y-104140000D01*
X93445071Y-103250000D02*
X92990929Y-103250000D01*
X93445071Y-102490000D02*
X92990929Y-102490000D01*
X90905071Y-103250000D02*
X90508000Y-103250000D01*
X90905071Y-102490000D02*
X90508000Y-102490000D01*
X81848000Y-103250000D02*
X87848000Y-103250000D01*
X81848000Y-102490000D02*
X81848000Y-103250000D01*
X87848000Y-102490000D02*
X81848000Y-102490000D01*
X90508000Y-101600000D02*
X87848000Y-101600000D01*
X93445071Y-100710000D02*
X92990929Y-100710000D01*
X93445071Y-99950000D02*
X92990929Y-99950000D01*
X90905071Y-100710000D02*
X90508000Y-100710000D01*
X90905071Y-99950000D02*
X90508000Y-99950000D01*
X81848000Y-100710000D02*
X87848000Y-100710000D01*
X81848000Y-99950000D02*
X81848000Y-100710000D01*
X87848000Y-99950000D02*
X81848000Y-99950000D01*
X90508000Y-99060000D02*
X87848000Y-99060000D01*
X93445071Y-98170000D02*
X92990929Y-98170000D01*
X93445071Y-97410000D02*
X92990929Y-97410000D01*
X90905071Y-98170000D02*
X90508000Y-98170000D01*
X90905071Y-97410000D02*
X90508000Y-97410000D01*
X81848000Y-98170000D02*
X87848000Y-98170000D01*
X81848000Y-97410000D02*
X81848000Y-98170000D01*
X87848000Y-97410000D02*
X81848000Y-97410000D01*
X90508000Y-96520000D02*
X87848000Y-96520000D01*
X93445071Y-95630000D02*
X92990929Y-95630000D01*
X93445071Y-94870000D02*
X92990929Y-94870000D01*
X90905071Y-95630000D02*
X90508000Y-95630000D01*
X90905071Y-94870000D02*
X90508000Y-94870000D01*
X81848000Y-95630000D02*
X87848000Y-95630000D01*
X81848000Y-94870000D02*
X81848000Y-95630000D01*
X87848000Y-94870000D02*
X81848000Y-94870000D01*
X90508000Y-93980000D02*
X87848000Y-93980000D01*
X93445071Y-93090000D02*
X92990929Y-93090000D01*
X93445071Y-92330000D02*
X92990929Y-92330000D01*
X90905071Y-93090000D02*
X90508000Y-93090000D01*
X90905071Y-92330000D02*
X90508000Y-92330000D01*
X81848000Y-93090000D02*
X87848000Y-93090000D01*
X81848000Y-92330000D02*
X81848000Y-93090000D01*
X87848000Y-92330000D02*
X81848000Y-92330000D01*
X90508000Y-91440000D02*
X87848000Y-91440000D01*
X93445071Y-90550000D02*
X92990929Y-90550000D01*
X93445071Y-89790000D02*
X92990929Y-89790000D01*
X90905071Y-90550000D02*
X90508000Y-90550000D01*
X90905071Y-89790000D02*
X90508000Y-89790000D01*
X81848000Y-90550000D02*
X87848000Y-90550000D01*
X81848000Y-89790000D02*
X81848000Y-90550000D01*
X87848000Y-89790000D02*
X81848000Y-89790000D01*
X90508000Y-88900000D02*
X87848000Y-88900000D01*
X93445071Y-88010000D02*
X92990929Y-88010000D01*
X93445071Y-87250000D02*
X92990929Y-87250000D01*
X90905071Y-88010000D02*
X90508000Y-88010000D01*
X90905071Y-87250000D02*
X90508000Y-87250000D01*
X81848000Y-88010000D02*
X87848000Y-88010000D01*
X81848000Y-87250000D02*
X81848000Y-88010000D01*
X87848000Y-87250000D02*
X81848000Y-87250000D01*
X90508000Y-86360000D02*
X87848000Y-86360000D01*
X93445071Y-85470000D02*
X92990929Y-85470000D01*
X93445071Y-84710000D02*
X92990929Y-84710000D01*
X90905071Y-85470000D02*
X90508000Y-85470000D01*
X90905071Y-84710000D02*
X90508000Y-84710000D01*
X81848000Y-85470000D02*
X87848000Y-85470000D01*
X81848000Y-84710000D02*
X81848000Y-85470000D01*
X87848000Y-84710000D02*
X81848000Y-84710000D01*
X90508000Y-83820000D02*
X87848000Y-83820000D01*
X93445071Y-82930000D02*
X92990929Y-82930000D01*
X93445071Y-82170000D02*
X92990929Y-82170000D01*
X90905071Y-82930000D02*
X90508000Y-82930000D01*
X90905071Y-82170000D02*
X90508000Y-82170000D01*
X81848000Y-82930000D02*
X87848000Y-82930000D01*
X81848000Y-82170000D02*
X81848000Y-82930000D01*
X87848000Y-82170000D02*
X81848000Y-82170000D01*
X90508000Y-81280000D02*
X87848000Y-81280000D01*
X93445071Y-80390000D02*
X92990929Y-80390000D01*
X93445071Y-79630000D02*
X92990929Y-79630000D01*
X90905071Y-80390000D02*
X90508000Y-80390000D01*
X90905071Y-79630000D02*
X90508000Y-79630000D01*
X81848000Y-80390000D02*
X87848000Y-80390000D01*
X81848000Y-79630000D02*
X81848000Y-80390000D01*
X87848000Y-79630000D02*
X81848000Y-79630000D01*
X90508000Y-78740000D02*
X87848000Y-78740000D01*
X93445071Y-77850000D02*
X92990929Y-77850000D01*
X93445071Y-77090000D02*
X92990929Y-77090000D01*
X90905071Y-77850000D02*
X90508000Y-77850000D01*
X90905071Y-77090000D02*
X90508000Y-77090000D01*
X81848000Y-77850000D02*
X87848000Y-77850000D01*
X81848000Y-77090000D02*
X81848000Y-77850000D01*
X87848000Y-77090000D02*
X81848000Y-77090000D01*
X90508000Y-76200000D02*
X87848000Y-76200000D01*
X93445071Y-75310000D02*
X92990929Y-75310000D01*
X93445071Y-74550000D02*
X92990929Y-74550000D01*
X90905071Y-75310000D02*
X90508000Y-75310000D01*
X90905071Y-74550000D02*
X90508000Y-74550000D01*
X81848000Y-75310000D02*
X87848000Y-75310000D01*
X81848000Y-74550000D02*
X81848000Y-75310000D01*
X87848000Y-74550000D02*
X81848000Y-74550000D01*
X90508000Y-73660000D02*
X87848000Y-73660000D01*
X93378000Y-72770000D02*
X92990929Y-72770000D01*
X93378000Y-72010000D02*
X92990929Y-72010000D01*
X90905071Y-72770000D02*
X90508000Y-72770000D01*
X90905071Y-72010000D02*
X90508000Y-72010000D01*
X87848000Y-72670000D02*
X81848000Y-72670000D01*
X87848000Y-72550000D02*
X81848000Y-72550000D01*
X87848000Y-72430000D02*
X81848000Y-72430000D01*
X87848000Y-72310000D02*
X81848000Y-72310000D01*
X87848000Y-72190000D02*
X81848000Y-72190000D01*
X87848000Y-72070000D02*
X81848000Y-72070000D01*
X81848000Y-72770000D02*
X87848000Y-72770000D01*
X81848000Y-72010000D02*
X81848000Y-72770000D01*
X87848000Y-72010000D02*
X81848000Y-72010000D01*
X87848000Y-71060000D02*
X90508000Y-71060000D01*
X87848000Y-114360000D02*
X87848000Y-71060000D01*
X90508000Y-114360000D02*
X87848000Y-114360000D01*
X90508000Y-71060000D02*
X90508000Y-114360000D01*
X93345000Y-57150000D02*
X92075000Y-57150000D01*
X93345000Y-58420000D02*
X93345000Y-57150000D01*
X91032071Y-66420000D02*
X90635000Y-66420000D01*
X91032071Y-65660000D02*
X90635000Y-65660000D01*
X81975000Y-66420000D02*
X87975000Y-66420000D01*
X81975000Y-65660000D02*
X81975000Y-66420000D01*
X87975000Y-65660000D02*
X81975000Y-65660000D01*
X90635000Y-64770000D02*
X87975000Y-64770000D01*
X91032071Y-63880000D02*
X90635000Y-63880000D01*
X91032071Y-63120000D02*
X90635000Y-63120000D01*
X81975000Y-63880000D02*
X87975000Y-63880000D01*
X81975000Y-63120000D02*
X81975000Y-63880000D01*
X87975000Y-63120000D02*
X81975000Y-63120000D01*
X90635000Y-62230000D02*
X87975000Y-62230000D01*
X91032071Y-61340000D02*
X90635000Y-61340000D01*
X91032071Y-60580000D02*
X90635000Y-60580000D01*
X81975000Y-61340000D02*
X87975000Y-61340000D01*
X81975000Y-60580000D02*
X81975000Y-61340000D01*
X87975000Y-60580000D02*
X81975000Y-60580000D01*
X90635000Y-59690000D02*
X87975000Y-59690000D01*
X90965000Y-58800000D02*
X90635000Y-58800000D01*
X90965000Y-58040000D02*
X90635000Y-58040000D01*
X87975000Y-58700000D02*
X81975000Y-58700000D01*
X87975000Y-58580000D02*
X81975000Y-58580000D01*
X87975000Y-58460000D02*
X81975000Y-58460000D01*
X87975000Y-58340000D02*
X81975000Y-58340000D01*
X87975000Y-58220000D02*
X81975000Y-58220000D01*
X87975000Y-58100000D02*
X81975000Y-58100000D01*
X81975000Y-58800000D02*
X87975000Y-58800000D01*
X81975000Y-58040000D02*
X81975000Y-58800000D01*
X87975000Y-58040000D02*
X81975000Y-58040000D01*
X87975000Y-57090000D02*
X90635000Y-57090000D01*
X87975000Y-67370000D02*
X87975000Y-57090000D01*
X90635000Y-67370000D02*
X87975000Y-67370000D01*
X90635000Y-57090000D02*
X90635000Y-67370000D01*
X163255000Y-114695000D02*
X163255000Y-112035000D01*
X155575000Y-114695000D02*
X163255000Y-114695000D01*
X155575000Y-112035000D02*
X163255000Y-112035000D01*
X155575000Y-114695000D02*
X155575000Y-112035000D01*
X154305000Y-114695000D02*
X152975000Y-114695000D01*
X152975000Y-114695000D02*
X152975000Y-113365000D01*
X145175000Y-109220000D02*
G75*
G03X145175000Y-109220000I-6100000J0D01*
G01*
X143870000Y-62262936D02*
X143870000Y-63467064D01*
X145690000Y-62262936D02*
X145690000Y-63467064D01*
X138070000Y-93377936D02*
X138070000Y-94582064D01*
X136250000Y-93377936D02*
X136250000Y-94582064D01*
X98065000Y-65437936D02*
X98065000Y-66642064D01*
X96245000Y-65437936D02*
X96245000Y-66642064D01*
X142515000Y-62262936D02*
X142515000Y-63467064D01*
X140695000Y-62262936D02*
X140695000Y-63467064D01*
X140695000Y-93377936D02*
X140695000Y-94582064D01*
X142515000Y-93377936D02*
X142515000Y-94582064D01*
X146960000Y-93377936D02*
X146960000Y-94582064D01*
X145140000Y-93377936D02*
X145140000Y-94582064D01*
X98065000Y-60927064D02*
X98065000Y-59722936D01*
X96245000Y-60927064D02*
X96245000Y-59722936D01*
X147045000Y-62262936D02*
X147045000Y-63467064D01*
X148865000Y-62262936D02*
X148865000Y-63467064D01*
X152040000Y-62262936D02*
X152040000Y-63467064D01*
X150220000Y-62262936D02*
X150220000Y-63467064D01*
X111400000Y-66707936D02*
X111400000Y-67912064D01*
X109580000Y-66707936D02*
X109580000Y-67912064D01*
X115210000Y-66707936D02*
X115210000Y-67912064D01*
X113390000Y-66707936D02*
X113390000Y-67912064D01*
X131805000Y-98457936D02*
X131805000Y-99662064D01*
X133625000Y-98457936D02*
X133625000Y-99662064D01*
X153900000Y-105710000D02*
X157810000Y-105710000D01*
X153900000Y-103840000D02*
X153900000Y-105710000D01*
X157810000Y-103840000D02*
X153900000Y-103840000D01*
X116215000Y-99965000D02*
X111915000Y-99965000D01*
X116215000Y-101965000D02*
X116215000Y-99965000D01*
X111915000Y-101965000D02*
X116215000Y-101965000D01*
X171740000Y-102810000D02*
X171740000Y-88310000D01*
X171740000Y-88310000D02*
X171240000Y-88310000D01*
X171240000Y-88310000D02*
X171240000Y-89310000D01*
X171240000Y-89310000D02*
X163240000Y-89310000D01*
X159740000Y-89310000D02*
X157740000Y-89310000D01*
X157740000Y-89310000D02*
X157740000Y-101810000D01*
X157740000Y-101810000D02*
X159740000Y-101810000D01*
X163240000Y-101810000D02*
X171240000Y-101810000D01*
X171240000Y-101810000D02*
X171240000Y-102810000D01*
X171240000Y-102810000D02*
X171740000Y-102810000D01*
X157490000Y-99560000D02*
X157490000Y-98560000D01*
X122495000Y-65465000D02*
X122495000Y-64135000D01*
X123825000Y-65465000D02*
X122495000Y-65465000D01*
X122495000Y-62865000D02*
X122495000Y-60265000D01*
X125095000Y-62865000D02*
X122495000Y-62865000D01*
X125095000Y-65465000D02*
X125095000Y-62865000D01*
X122495000Y-60265000D02*
X135315000Y-60265000D01*
X125095000Y-65465000D02*
X135315000Y-65465000D01*
X135315000Y-65465000D02*
X135315000Y-60265000D01*
X129665000Y-111435000D02*
X128205000Y-111435000D01*
X129665000Y-108275000D02*
X127505000Y-108275000D01*
X129665000Y-108275000D02*
X129665000Y-109205000D01*
X129665000Y-111435000D02*
X129665000Y-110505000D01*
X107190000Y-73985000D02*
X108650000Y-73985000D01*
X107190000Y-77145000D02*
X109350000Y-77145000D01*
X107190000Y-77145000D02*
X107190000Y-76215000D01*
X107190000Y-73985000D02*
X107190000Y-74915000D01*
X107190000Y-79700000D02*
X107190000Y-80630000D01*
X107190000Y-82860000D02*
X107190000Y-81930000D01*
X107190000Y-82860000D02*
X109350000Y-82860000D01*
X107190000Y-79700000D02*
X108650000Y-79700000D01*
X107190000Y-85415000D02*
X108650000Y-85415000D01*
X107190000Y-88575000D02*
X109350000Y-88575000D01*
X107190000Y-88575000D02*
X107190000Y-87645000D01*
X107190000Y-85415000D02*
X107190000Y-86345000D01*
X107190000Y-91130000D02*
X107190000Y-92060000D01*
X107190000Y-94290000D02*
X107190000Y-93360000D01*
X107190000Y-94290000D02*
X109350000Y-94290000D01*
X107190000Y-91130000D02*
X108650000Y-91130000D01*
X107190000Y-96845000D02*
X108650000Y-96845000D01*
X107190000Y-100005000D02*
X109350000Y-100005000D01*
X107190000Y-100005000D02*
X107190000Y-99075000D01*
X107190000Y-96845000D02*
X107190000Y-97775000D01*
X107190000Y-102560000D02*
X107190000Y-103490000D01*
X107190000Y-105720000D02*
X107190000Y-104790000D01*
X107190000Y-105720000D02*
X109350000Y-105720000D01*
X107190000Y-102560000D02*
X108650000Y-102560000D01*
X135530000Y-87027936D02*
X135530000Y-88232064D01*
X133710000Y-87027936D02*
X133710000Y-88232064D01*
X121952936Y-108945000D02*
X123157064Y-108945000D01*
X121952936Y-110765000D02*
X123157064Y-110765000D01*
X159987064Y-75925000D02*
X158782936Y-75925000D01*
X159987064Y-77745000D02*
X158782936Y-77745000D01*
X158782936Y-81555000D02*
X159987064Y-81555000D01*
X158782936Y-79735000D02*
X159987064Y-79735000D01*
X152432936Y-96880000D02*
X153637064Y-96880000D01*
X152432936Y-98700000D02*
X153637064Y-98700000D01*
X152432936Y-94890000D02*
X153637064Y-94890000D01*
X152432936Y-93070000D02*
X153637064Y-93070000D01*
X153945000Y-87027936D02*
X153945000Y-88232064D01*
X152125000Y-87027936D02*
X152125000Y-88232064D01*
X114267064Y-77745000D02*
X113062936Y-77745000D01*
X114267064Y-75925000D02*
X113062936Y-75925000D01*
X114267064Y-81640000D02*
X113062936Y-81640000D01*
X114267064Y-83460000D02*
X113062936Y-83460000D01*
X114267064Y-89175000D02*
X113062936Y-89175000D01*
X114267064Y-87355000D02*
X113062936Y-87355000D01*
X114267064Y-92435000D02*
X113062936Y-92435000D01*
X114267064Y-94255000D02*
X113062936Y-94255000D01*
X114267064Y-98065000D02*
X113062936Y-98065000D01*
X114267064Y-96245000D02*
X113062936Y-96245000D01*
X114267064Y-103865000D02*
X113062936Y-103865000D01*
X114267064Y-105685000D02*
X113062936Y-105685000D01*
X100362936Y-71480000D02*
X101567064Y-71480000D01*
X100362936Y-73300000D02*
X101567064Y-73300000D01*
X100362936Y-75840000D02*
X101567064Y-75840000D01*
X100362936Y-74020000D02*
X101567064Y-74020000D01*
X100362936Y-80920000D02*
X101567064Y-80920000D01*
X100362936Y-79100000D02*
X101567064Y-79100000D01*
X100362936Y-83545000D02*
X101567064Y-83545000D01*
X100362936Y-85365000D02*
X101567064Y-85365000D01*
X100362936Y-86720000D02*
X101567064Y-86720000D01*
X100362936Y-88540000D02*
X101567064Y-88540000D01*
X100362936Y-91715000D02*
X101567064Y-91715000D01*
X100362936Y-89895000D02*
X101567064Y-89895000D01*
X100362936Y-93070000D02*
X101567064Y-93070000D01*
X100362936Y-94890000D02*
X101567064Y-94890000D01*
X100362936Y-98065000D02*
X101567064Y-98065000D01*
X100362936Y-96245000D02*
X101567064Y-96245000D01*
X100362936Y-99420000D02*
X101567064Y-99420000D01*
X100362936Y-101240000D02*
X101567064Y-101240000D01*
X100362936Y-104415000D02*
X101567064Y-104415000D01*
X100362936Y-102595000D02*
X101567064Y-102595000D01*
X100362936Y-105770000D02*
X101567064Y-105770000D01*
X100362936Y-107590000D02*
X101567064Y-107590000D01*
X100362936Y-110765000D02*
X101567064Y-110765000D01*
X100362936Y-108945000D02*
X101567064Y-108945000D01*
X100362936Y-113940000D02*
X101567064Y-113940000D01*
X100362936Y-112120000D02*
X101567064Y-112120000D01*
X168773800Y-71434000D02*
X171433800Y-71434000D01*
X168773800Y-61214000D02*
X168773800Y-71434000D01*
X171433800Y-61214000D02*
X171433800Y-71434000D01*
X168773800Y-61214000D02*
X171433800Y-61214000D01*
X168773800Y-59944000D02*
X168773800Y-58614000D01*
X168773800Y-58614000D02*
X170103800Y-58614000D01*
X126333333Y-73025000D02*
X126333333Y-71755000D01*
X127540000Y-71825000D02*
X126333333Y-71825000D01*
X127540000Y-71945000D02*
X126333333Y-71945000D01*
X127540000Y-72065000D02*
X126333333Y-72065000D01*
X127540000Y-72185000D02*
X126333333Y-72185000D01*
X127540000Y-72305000D02*
X126333333Y-72305000D01*
X127540000Y-72425000D02*
X126333333Y-72425000D01*
X127540000Y-72545000D02*
X126333333Y-72545000D01*
X127540000Y-72665000D02*
X126333333Y-72665000D01*
X127540000Y-72785000D02*
X126333333Y-72785000D01*
X127540000Y-72905000D02*
X126333333Y-72905000D01*
X123920000Y-73025000D02*
X127540000Y-73025000D01*
X123920000Y-71755000D02*
X123920000Y-73025000D01*
X127540000Y-71755000D02*
X123920000Y-71755000D01*
X127540000Y-73025000D02*
X127540000Y-71755000D01*
X126333333Y-75565000D02*
X126333333Y-74295000D01*
X127540000Y-74365000D02*
X126333333Y-74365000D01*
X127540000Y-74485000D02*
X126333333Y-74485000D01*
X127540000Y-74605000D02*
X126333333Y-74605000D01*
X127540000Y-74725000D02*
X126333333Y-74725000D01*
X127540000Y-74845000D02*
X126333333Y-74845000D01*
X127540000Y-74965000D02*
X126333333Y-74965000D01*
X127540000Y-75085000D02*
X126333333Y-75085000D01*
X127540000Y-75205000D02*
X126333333Y-75205000D01*
X127540000Y-75325000D02*
X126333333Y-75325000D01*
X127540000Y-75445000D02*
X126333333Y-75445000D01*
X123920000Y-75565000D02*
X127540000Y-75565000D01*
X123920000Y-74295000D02*
X123920000Y-75565000D01*
X127540000Y-74295000D02*
X123920000Y-74295000D01*
X127540000Y-75565000D02*
X127540000Y-74295000D01*
X126333333Y-78105000D02*
X126333333Y-76835000D01*
X127540000Y-76905000D02*
X126333333Y-76905000D01*
X127540000Y-77025000D02*
X126333333Y-77025000D01*
X127540000Y-77145000D02*
X126333333Y-77145000D01*
X127540000Y-77265000D02*
X126333333Y-77265000D01*
X127540000Y-77385000D02*
X126333333Y-77385000D01*
X127540000Y-77505000D02*
X126333333Y-77505000D01*
X127540000Y-77625000D02*
X126333333Y-77625000D01*
X127540000Y-77745000D02*
X126333333Y-77745000D01*
X127540000Y-77865000D02*
X126333333Y-77865000D01*
X127540000Y-77985000D02*
X126333333Y-77985000D01*
X123920000Y-78105000D02*
X127540000Y-78105000D01*
X123920000Y-76835000D02*
X123920000Y-78105000D01*
X127540000Y-76835000D02*
X123920000Y-76835000D01*
X127540000Y-78105000D02*
X127540000Y-76835000D01*
X126333333Y-80645000D02*
X126333333Y-79375000D01*
X127540000Y-79445000D02*
X126333333Y-79445000D01*
X127540000Y-79565000D02*
X126333333Y-79565000D01*
X127540000Y-79685000D02*
X126333333Y-79685000D01*
X127540000Y-79805000D02*
X126333333Y-79805000D01*
X127540000Y-79925000D02*
X126333333Y-79925000D01*
X127540000Y-80045000D02*
X126333333Y-80045000D01*
X127540000Y-80165000D02*
X126333333Y-80165000D01*
X127540000Y-80285000D02*
X126333333Y-80285000D01*
X127540000Y-80405000D02*
X126333333Y-80405000D01*
X127540000Y-80525000D02*
X126333333Y-80525000D01*
X123920000Y-80645000D02*
X127540000Y-80645000D01*
X123920000Y-79375000D02*
X123920000Y-80645000D01*
X127540000Y-79375000D02*
X123920000Y-79375000D01*
X127540000Y-80645000D02*
X127540000Y-79375000D01*
X126333333Y-83185000D02*
X126333333Y-81915000D01*
X127540000Y-81985000D02*
X126333333Y-81985000D01*
X127540000Y-82105000D02*
X126333333Y-82105000D01*
X127540000Y-82225000D02*
X126333333Y-82225000D01*
X127540000Y-82345000D02*
X126333333Y-82345000D01*
X127540000Y-82465000D02*
X126333333Y-82465000D01*
X127540000Y-82585000D02*
X126333333Y-82585000D01*
X127540000Y-82705000D02*
X126333333Y-82705000D01*
X127540000Y-82825000D02*
X126333333Y-82825000D01*
X127540000Y-82945000D02*
X126333333Y-82945000D01*
X127540000Y-83065000D02*
X126333333Y-83065000D01*
X123920000Y-83185000D02*
X127540000Y-83185000D01*
X123920000Y-81915000D02*
X123920000Y-83185000D01*
X127540000Y-81915000D02*
X123920000Y-81915000D01*
X127540000Y-83185000D02*
X127540000Y-81915000D01*
X126333333Y-85725000D02*
X126333333Y-84455000D01*
X127540000Y-84525000D02*
X126333333Y-84525000D01*
X127540000Y-84645000D02*
X126333333Y-84645000D01*
X127540000Y-84765000D02*
X126333333Y-84765000D01*
X127540000Y-84885000D02*
X126333333Y-84885000D01*
X127540000Y-85005000D02*
X126333333Y-85005000D01*
X127540000Y-85125000D02*
X126333333Y-85125000D01*
X127540000Y-85245000D02*
X126333333Y-85245000D01*
X127540000Y-85365000D02*
X126333333Y-85365000D01*
X127540000Y-85485000D02*
X126333333Y-85485000D01*
X127540000Y-85605000D02*
X126333333Y-85605000D01*
X123920000Y-85725000D02*
X127540000Y-85725000D01*
X123920000Y-84455000D02*
X123920000Y-85725000D01*
X127540000Y-84455000D02*
X123920000Y-84455000D01*
X127540000Y-85725000D02*
X127540000Y-84455000D01*
X126333333Y-88265000D02*
X126333333Y-86995000D01*
X127540000Y-87065000D02*
X126333333Y-87065000D01*
X127540000Y-87185000D02*
X126333333Y-87185000D01*
X127540000Y-87305000D02*
X126333333Y-87305000D01*
X127540000Y-87425000D02*
X126333333Y-87425000D01*
X127540000Y-87545000D02*
X126333333Y-87545000D01*
X127540000Y-87665000D02*
X126333333Y-87665000D01*
X127540000Y-87785000D02*
X126333333Y-87785000D01*
X127540000Y-87905000D02*
X126333333Y-87905000D01*
X127540000Y-88025000D02*
X126333333Y-88025000D01*
X127540000Y-88145000D02*
X126333333Y-88145000D01*
X123920000Y-88265000D02*
X127540000Y-88265000D01*
X123920000Y-86995000D02*
X123920000Y-88265000D01*
X127540000Y-86995000D02*
X123920000Y-86995000D01*
X127540000Y-88265000D02*
X127540000Y-86995000D01*
X126333333Y-90805000D02*
X126333333Y-89535000D01*
X127540000Y-89605000D02*
X126333333Y-89605000D01*
X127540000Y-89725000D02*
X126333333Y-89725000D01*
X127540000Y-89845000D02*
X126333333Y-89845000D01*
X127540000Y-89965000D02*
X126333333Y-89965000D01*
X127540000Y-90085000D02*
X126333333Y-90085000D01*
X127540000Y-90205000D02*
X126333333Y-90205000D01*
X127540000Y-90325000D02*
X126333333Y-90325000D01*
X127540000Y-90445000D02*
X126333333Y-90445000D01*
X127540000Y-90565000D02*
X126333333Y-90565000D01*
X127540000Y-90685000D02*
X126333333Y-90685000D01*
X123920000Y-90805000D02*
X127540000Y-90805000D01*
X123920000Y-89535000D02*
X123920000Y-90805000D01*
X127540000Y-89535000D02*
X123920000Y-89535000D01*
X127540000Y-90805000D02*
X127540000Y-89535000D01*
X129380000Y-92520000D02*
X129380000Y-91137000D01*
X129380000Y-92520000D02*
X127997000Y-92520000D01*
X122320000Y-89369000D02*
X122320000Y-88429000D01*
X122320000Y-92280000D02*
X122320000Y-90970000D01*
X122320000Y-86829000D02*
X122320000Y-85889000D01*
X122320000Y-84289000D02*
X122320000Y-83349000D01*
X122320000Y-81749000D02*
X122320000Y-80809000D01*
X122320000Y-79209000D02*
X122320000Y-78269000D01*
X122320000Y-76669000D02*
X122320000Y-75729000D01*
X122320000Y-74129000D02*
X122320000Y-73190000D01*
X122320000Y-71590000D02*
X122320000Y-70279000D01*
X129140000Y-71590000D02*
X129140000Y-70279000D01*
X129140000Y-74130000D02*
X129140000Y-73190000D01*
X129140000Y-76670000D02*
X129140000Y-75730000D01*
X129140000Y-79210000D02*
X129140000Y-78270000D01*
X129140000Y-81750000D02*
X129140000Y-80810000D01*
X129140000Y-84290000D02*
X129140000Y-83350000D01*
X129140000Y-86830000D02*
X129140000Y-85890000D01*
X129140000Y-89370000D02*
X129140000Y-88430000D01*
X129140000Y-92280000D02*
X129140000Y-90970000D01*
X129140000Y-70279000D02*
X122320000Y-70279000D01*
X129140000Y-92280000D02*
X122320000Y-92280000D01*
X100730000Y-66965000D02*
X100730000Y-60955000D01*
X107550000Y-64715000D02*
X107550000Y-60955000D01*
X100730000Y-60955000D02*
X101990000Y-60955000D01*
X107550000Y-60955000D02*
X106290000Y-60955000D01*
X146420000Y-103210000D02*
X148870000Y-103210000D01*
X148220000Y-99990000D02*
X146420000Y-99990000D01*
X125095000Y-97165000D02*
X121645000Y-97165000D01*
X125095000Y-97165000D02*
X127045000Y-97165000D01*
X125095000Y-106035000D02*
X123145000Y-106035000D01*
X125095000Y-106035000D02*
X127045000Y-106035000D01*
X147110000Y-90145000D02*
G75*
G03X147110000Y-85095000I0J2525000D01*
G01*
X140710000Y-90145000D02*
G75*
G02X140710000Y-85095000I0J2525000D01*
G01*
X140710000Y-90145000D02*
X147110000Y-90145000D01*
X140710000Y-85095000D02*
X147110000Y-85095000D01*
X169355000Y-82205000D02*
X169511000Y-82205000D01*
X167039000Y-82205000D02*
X167195000Y-82205000D01*
X169354837Y-79603870D02*
G75*
G02X169355000Y-81685961I-1079837J-1041130D01*
G01*
X167195163Y-79603870D02*
G75*
G03X167195000Y-81685961I1079837J-1041130D01*
G01*
X169353608Y-78972665D02*
G75*
G02X169510516Y-82205000I-1078608J-1672335D01*
G01*
X167196392Y-78972665D02*
G75*
G03X167039484Y-82205000I1078608J-1672335D01*
G01*
X137520000Y-62262936D02*
X137520000Y-63467064D01*
X139340000Y-62262936D02*
X139340000Y-63467064D01*
D10*
X137882380Y-71246904D02*
X138691904Y-71246904D01*
X138787142Y-71199285D01*
X138834761Y-71151666D01*
X138882380Y-71056428D01*
X138882380Y-70865952D01*
X138834761Y-70770714D01*
X138787142Y-70723095D01*
X138691904Y-70675476D01*
X137882380Y-70675476D01*
X137977619Y-70246904D02*
X137930000Y-70199285D01*
X137882380Y-70104047D01*
X137882380Y-69865952D01*
X137930000Y-69770714D01*
X137977619Y-69723095D01*
X138072857Y-69675476D01*
X138168095Y-69675476D01*
X138310952Y-69723095D01*
X138882380Y-70294523D01*
X138882380Y-69675476D01*
X94281666Y-69302380D02*
X94281666Y-70016666D01*
X94234047Y-70159523D01*
X94138809Y-70254761D01*
X93995952Y-70302380D01*
X93900714Y-70302380D01*
X95186428Y-69302380D02*
X94995952Y-69302380D01*
X94900714Y-69350000D01*
X94853095Y-69397619D01*
X94757857Y-69540476D01*
X94710238Y-69730952D01*
X94710238Y-70111904D01*
X94757857Y-70207142D01*
X94805476Y-70254761D01*
X94900714Y-70302380D01*
X95091190Y-70302380D01*
X95186428Y-70254761D01*
X95234047Y-70207142D01*
X95281666Y-70111904D01*
X95281666Y-69873809D01*
X95234047Y-69778571D01*
X95186428Y-69730952D01*
X95091190Y-69683333D01*
X94900714Y-69683333D01*
X94805476Y-69730952D01*
X94757857Y-69778571D01*
X94710238Y-69873809D01*
X94281666Y-56602380D02*
X94281666Y-57316666D01*
X94234047Y-57459523D01*
X94138809Y-57554761D01*
X93995952Y-57602380D01*
X93900714Y-57602380D01*
X95281666Y-57602380D02*
X94710238Y-57602380D01*
X94995952Y-57602380D02*
X94995952Y-56602380D01*
X94900714Y-56745238D01*
X94805476Y-56840476D01*
X94710238Y-56888095D01*
X151427380Y-113698333D02*
X152141666Y-113698333D01*
X152284523Y-113745952D01*
X152379761Y-113841190D01*
X152427380Y-113984047D01*
X152427380Y-114079285D01*
X151522619Y-113269761D02*
X151475000Y-113222142D01*
X151427380Y-113126904D01*
X151427380Y-112888809D01*
X151475000Y-112793571D01*
X151522619Y-112745952D01*
X151617857Y-112698333D01*
X151713095Y-112698333D01*
X151855952Y-112745952D01*
X152427380Y-113317380D01*
X152427380Y-112698333D01*
X132469047Y-104068571D02*
X132611904Y-104116190D01*
X132659523Y-104163809D01*
X132707142Y-104259047D01*
X132707142Y-104401904D01*
X132659523Y-104497142D01*
X132611904Y-104544761D01*
X132516666Y-104592380D01*
X132135714Y-104592380D01*
X132135714Y-103592380D01*
X132469047Y-103592380D01*
X132564285Y-103640000D01*
X132611904Y-103687619D01*
X132659523Y-103782857D01*
X132659523Y-103878095D01*
X132611904Y-103973333D01*
X132564285Y-104020952D01*
X132469047Y-104068571D01*
X132135714Y-104068571D01*
X133040476Y-103592380D02*
X133707142Y-103592380D01*
X133040476Y-104592380D01*
X133707142Y-104592380D01*
X134611904Y-104592380D02*
X134040476Y-104592380D01*
X134326190Y-104592380D02*
X134326190Y-103592380D01*
X134230952Y-103735238D01*
X134135714Y-103830476D01*
X134040476Y-103878095D01*
X142504047Y-111831428D02*
X143265952Y-111831428D01*
X142885000Y-112212380D02*
X142885000Y-111450476D01*
X145137142Y-59221666D02*
X145184761Y-59269285D01*
X145232380Y-59412142D01*
X145232380Y-59507380D01*
X145184761Y-59650238D01*
X145089523Y-59745476D01*
X144994285Y-59793095D01*
X144803809Y-59840714D01*
X144660952Y-59840714D01*
X144470476Y-59793095D01*
X144375238Y-59745476D01*
X144280000Y-59650238D01*
X144232380Y-59507380D01*
X144232380Y-59412142D01*
X144280000Y-59269285D01*
X144327619Y-59221666D01*
X145232380Y-58269285D02*
X145232380Y-58840714D01*
X145232380Y-58555000D02*
X144232380Y-58555000D01*
X144375238Y-58650238D01*
X144470476Y-58745476D01*
X144518095Y-58840714D01*
X135612142Y-94146666D02*
X135659761Y-94194285D01*
X135707380Y-94337142D01*
X135707380Y-94432380D01*
X135659761Y-94575238D01*
X135564523Y-94670476D01*
X135469285Y-94718095D01*
X135278809Y-94765714D01*
X135135952Y-94765714D01*
X134945476Y-94718095D01*
X134850238Y-94670476D01*
X134755000Y-94575238D01*
X134707380Y-94432380D01*
X134707380Y-94337142D01*
X134755000Y-94194285D01*
X134802619Y-94146666D01*
X134802619Y-93765714D02*
X134755000Y-93718095D01*
X134707380Y-93622857D01*
X134707380Y-93384761D01*
X134755000Y-93289523D01*
X134802619Y-93241904D01*
X134897857Y-93194285D01*
X134993095Y-93194285D01*
X135135952Y-93241904D01*
X135707380Y-93813333D01*
X135707380Y-93194285D01*
X95607142Y-66206666D02*
X95654761Y-66254285D01*
X95702380Y-66397142D01*
X95702380Y-66492380D01*
X95654761Y-66635238D01*
X95559523Y-66730476D01*
X95464285Y-66778095D01*
X95273809Y-66825714D01*
X95130952Y-66825714D01*
X94940476Y-66778095D01*
X94845238Y-66730476D01*
X94750000Y-66635238D01*
X94702380Y-66492380D01*
X94702380Y-66397142D01*
X94750000Y-66254285D01*
X94797619Y-66206666D01*
X94702380Y-65873333D02*
X94702380Y-65254285D01*
X95083333Y-65587619D01*
X95083333Y-65444761D01*
X95130952Y-65349523D01*
X95178571Y-65301904D01*
X95273809Y-65254285D01*
X95511904Y-65254285D01*
X95607142Y-65301904D01*
X95654761Y-65349523D01*
X95702380Y-65444761D01*
X95702380Y-65730476D01*
X95654761Y-65825714D01*
X95607142Y-65873333D01*
X141962142Y-59221666D02*
X142009761Y-59269285D01*
X142057380Y-59412142D01*
X142057380Y-59507380D01*
X142009761Y-59650238D01*
X141914523Y-59745476D01*
X141819285Y-59793095D01*
X141628809Y-59840714D01*
X141485952Y-59840714D01*
X141295476Y-59793095D01*
X141200238Y-59745476D01*
X141105000Y-59650238D01*
X141057380Y-59507380D01*
X141057380Y-59412142D01*
X141105000Y-59269285D01*
X141152619Y-59221666D01*
X141390714Y-58364523D02*
X142057380Y-58364523D01*
X141009761Y-58602619D02*
X141724047Y-58840714D01*
X141724047Y-58221666D01*
X140057142Y-94146666D02*
X140104761Y-94194285D01*
X140152380Y-94337142D01*
X140152380Y-94432380D01*
X140104761Y-94575238D01*
X140009523Y-94670476D01*
X139914285Y-94718095D01*
X139723809Y-94765714D01*
X139580952Y-94765714D01*
X139390476Y-94718095D01*
X139295238Y-94670476D01*
X139200000Y-94575238D01*
X139152380Y-94432380D01*
X139152380Y-94337142D01*
X139200000Y-94194285D01*
X139247619Y-94146666D01*
X139152380Y-93241904D02*
X139152380Y-93718095D01*
X139628571Y-93765714D01*
X139580952Y-93718095D01*
X139533333Y-93622857D01*
X139533333Y-93384761D01*
X139580952Y-93289523D01*
X139628571Y-93241904D01*
X139723809Y-93194285D01*
X139961904Y-93194285D01*
X140057142Y-93241904D01*
X140104761Y-93289523D01*
X140152380Y-93384761D01*
X140152380Y-93622857D01*
X140104761Y-93718095D01*
X140057142Y-93765714D01*
X144502142Y-94146666D02*
X144549761Y-94194285D01*
X144597380Y-94337142D01*
X144597380Y-94432380D01*
X144549761Y-94575238D01*
X144454523Y-94670476D01*
X144359285Y-94718095D01*
X144168809Y-94765714D01*
X144025952Y-94765714D01*
X143835476Y-94718095D01*
X143740238Y-94670476D01*
X143645000Y-94575238D01*
X143597380Y-94432380D01*
X143597380Y-94337142D01*
X143645000Y-94194285D01*
X143692619Y-94146666D01*
X143597380Y-93289523D02*
X143597380Y-93480000D01*
X143645000Y-93575238D01*
X143692619Y-93622857D01*
X143835476Y-93718095D01*
X144025952Y-93765714D01*
X144406904Y-93765714D01*
X144502142Y-93718095D01*
X144549761Y-93670476D01*
X144597380Y-93575238D01*
X144597380Y-93384761D01*
X144549761Y-93289523D01*
X144502142Y-93241904D01*
X144406904Y-93194285D01*
X144168809Y-93194285D01*
X144073571Y-93241904D01*
X144025952Y-93289523D01*
X143978333Y-93384761D01*
X143978333Y-93575238D01*
X144025952Y-93670476D01*
X144073571Y-93718095D01*
X144168809Y-93765714D01*
X95692142Y-60491666D02*
X95739761Y-60539285D01*
X95787380Y-60682142D01*
X95787380Y-60777380D01*
X95739761Y-60920238D01*
X95644523Y-61015476D01*
X95549285Y-61063095D01*
X95358809Y-61110714D01*
X95215952Y-61110714D01*
X95025476Y-61063095D01*
X94930238Y-61015476D01*
X94835000Y-60920238D01*
X94787380Y-60777380D01*
X94787380Y-60682142D01*
X94835000Y-60539285D01*
X94882619Y-60491666D01*
X94787380Y-60158333D02*
X94787380Y-59491666D01*
X95787380Y-59920238D01*
X148312142Y-59221666D02*
X148359761Y-59269285D01*
X148407380Y-59412142D01*
X148407380Y-59507380D01*
X148359761Y-59650238D01*
X148264523Y-59745476D01*
X148169285Y-59793095D01*
X147978809Y-59840714D01*
X147835952Y-59840714D01*
X147645476Y-59793095D01*
X147550238Y-59745476D01*
X147455000Y-59650238D01*
X147407380Y-59507380D01*
X147407380Y-59412142D01*
X147455000Y-59269285D01*
X147502619Y-59221666D01*
X147835952Y-58650238D02*
X147788333Y-58745476D01*
X147740714Y-58793095D01*
X147645476Y-58840714D01*
X147597857Y-58840714D01*
X147502619Y-58793095D01*
X147455000Y-58745476D01*
X147407380Y-58650238D01*
X147407380Y-58459761D01*
X147455000Y-58364523D01*
X147502619Y-58316904D01*
X147597857Y-58269285D01*
X147645476Y-58269285D01*
X147740714Y-58316904D01*
X147788333Y-58364523D01*
X147835952Y-58459761D01*
X147835952Y-58650238D01*
X147883571Y-58745476D01*
X147931190Y-58793095D01*
X148026428Y-58840714D01*
X148216904Y-58840714D01*
X148312142Y-58793095D01*
X148359761Y-58745476D01*
X148407380Y-58650238D01*
X148407380Y-58459761D01*
X148359761Y-58364523D01*
X148312142Y-58316904D01*
X148216904Y-58269285D01*
X148026428Y-58269285D01*
X147931190Y-58316904D01*
X147883571Y-58364523D01*
X147835952Y-58459761D01*
X151487142Y-59221666D02*
X151534761Y-59269285D01*
X151582380Y-59412142D01*
X151582380Y-59507380D01*
X151534761Y-59650238D01*
X151439523Y-59745476D01*
X151344285Y-59793095D01*
X151153809Y-59840714D01*
X151010952Y-59840714D01*
X150820476Y-59793095D01*
X150725238Y-59745476D01*
X150630000Y-59650238D01*
X150582380Y-59507380D01*
X150582380Y-59412142D01*
X150630000Y-59269285D01*
X150677619Y-59221666D01*
X151582380Y-58745476D02*
X151582380Y-58555000D01*
X151534761Y-58459761D01*
X151487142Y-58412142D01*
X151344285Y-58316904D01*
X151153809Y-58269285D01*
X150772857Y-58269285D01*
X150677619Y-58316904D01*
X150630000Y-58364523D01*
X150582380Y-58459761D01*
X150582380Y-58650238D01*
X150630000Y-58745476D01*
X150677619Y-58793095D01*
X150772857Y-58840714D01*
X151010952Y-58840714D01*
X151106190Y-58793095D01*
X151153809Y-58745476D01*
X151201428Y-58650238D01*
X151201428Y-58459761D01*
X151153809Y-58364523D01*
X151106190Y-58316904D01*
X151010952Y-58269285D01*
X108942142Y-67952857D02*
X108989761Y-68000476D01*
X109037380Y-68143333D01*
X109037380Y-68238571D01*
X108989761Y-68381428D01*
X108894523Y-68476666D01*
X108799285Y-68524285D01*
X108608809Y-68571904D01*
X108465952Y-68571904D01*
X108275476Y-68524285D01*
X108180238Y-68476666D01*
X108085000Y-68381428D01*
X108037380Y-68238571D01*
X108037380Y-68143333D01*
X108085000Y-68000476D01*
X108132619Y-67952857D01*
X109037380Y-67000476D02*
X109037380Y-67571904D01*
X109037380Y-67286190D02*
X108037380Y-67286190D01*
X108180238Y-67381428D01*
X108275476Y-67476666D01*
X108323095Y-67571904D01*
X108037380Y-66381428D02*
X108037380Y-66286190D01*
X108085000Y-66190952D01*
X108132619Y-66143333D01*
X108227857Y-66095714D01*
X108418333Y-66048095D01*
X108656428Y-66048095D01*
X108846904Y-66095714D01*
X108942142Y-66143333D01*
X108989761Y-66190952D01*
X109037380Y-66286190D01*
X109037380Y-66381428D01*
X108989761Y-66476666D01*
X108942142Y-66524285D01*
X108846904Y-66571904D01*
X108656428Y-66619523D01*
X108418333Y-66619523D01*
X108227857Y-66571904D01*
X108132619Y-66524285D01*
X108085000Y-66476666D01*
X108037380Y-66381428D01*
X112752142Y-67952857D02*
X112799761Y-68000476D01*
X112847380Y-68143333D01*
X112847380Y-68238571D01*
X112799761Y-68381428D01*
X112704523Y-68476666D01*
X112609285Y-68524285D01*
X112418809Y-68571904D01*
X112275952Y-68571904D01*
X112085476Y-68524285D01*
X111990238Y-68476666D01*
X111895000Y-68381428D01*
X111847380Y-68238571D01*
X111847380Y-68143333D01*
X111895000Y-68000476D01*
X111942619Y-67952857D01*
X112847380Y-67000476D02*
X112847380Y-67571904D01*
X112847380Y-67286190D02*
X111847380Y-67286190D01*
X111990238Y-67381428D01*
X112085476Y-67476666D01*
X112133095Y-67571904D01*
X112847380Y-66048095D02*
X112847380Y-66619523D01*
X112847380Y-66333809D02*
X111847380Y-66333809D01*
X111990238Y-66429047D01*
X112085476Y-66524285D01*
X112133095Y-66619523D01*
X131167142Y-99702857D02*
X131214761Y-99750476D01*
X131262380Y-99893333D01*
X131262380Y-99988571D01*
X131214761Y-100131428D01*
X131119523Y-100226666D01*
X131024285Y-100274285D01*
X130833809Y-100321904D01*
X130690952Y-100321904D01*
X130500476Y-100274285D01*
X130405238Y-100226666D01*
X130310000Y-100131428D01*
X130262380Y-99988571D01*
X130262380Y-99893333D01*
X130310000Y-99750476D01*
X130357619Y-99702857D01*
X131262380Y-98750476D02*
X131262380Y-99321904D01*
X131262380Y-99036190D02*
X130262380Y-99036190D01*
X130405238Y-99131428D01*
X130500476Y-99226666D01*
X130548095Y-99321904D01*
X130357619Y-98369523D02*
X130310000Y-98321904D01*
X130262380Y-98226666D01*
X130262380Y-97988571D01*
X130310000Y-97893333D01*
X130357619Y-97845714D01*
X130452857Y-97798095D01*
X130548095Y-97798095D01*
X130690952Y-97845714D01*
X131262380Y-98417142D01*
X131262380Y-97798095D01*
X155567142Y-103382142D02*
X155519523Y-103429761D01*
X155376666Y-103477380D01*
X155281428Y-103477380D01*
X155138571Y-103429761D01*
X155043333Y-103334523D01*
X154995714Y-103239285D01*
X154948095Y-103048809D01*
X154948095Y-102905952D01*
X154995714Y-102715476D01*
X155043333Y-102620238D01*
X155138571Y-102525000D01*
X155281428Y-102477380D01*
X155376666Y-102477380D01*
X155519523Y-102525000D01*
X155567142Y-102572619D01*
X156519523Y-103477380D02*
X155948095Y-103477380D01*
X156233809Y-103477380D02*
X156233809Y-102477380D01*
X156138571Y-102620238D01*
X156043333Y-102715476D01*
X155948095Y-102763095D01*
X156852857Y-102477380D02*
X157471904Y-102477380D01*
X157138571Y-102858333D01*
X157281428Y-102858333D01*
X157376666Y-102905952D01*
X157424285Y-102953571D01*
X157471904Y-103048809D01*
X157471904Y-103286904D01*
X157424285Y-103382142D01*
X157376666Y-103429761D01*
X157281428Y-103477380D01*
X156995714Y-103477380D01*
X156900476Y-103429761D01*
X156852857Y-103382142D01*
X112926904Y-99512380D02*
X112926904Y-98512380D01*
X113165000Y-98512380D01*
X113307857Y-98560000D01*
X113403095Y-98655238D01*
X113450714Y-98750476D01*
X113498333Y-98940952D01*
X113498333Y-99083809D01*
X113450714Y-99274285D01*
X113403095Y-99369523D01*
X113307857Y-99464761D01*
X113165000Y-99512380D01*
X112926904Y-99512380D01*
X113879285Y-98607619D02*
X113926904Y-98560000D01*
X114022142Y-98512380D01*
X114260238Y-98512380D01*
X114355476Y-98560000D01*
X114403095Y-98607619D01*
X114450714Y-98702857D01*
X114450714Y-98798095D01*
X114403095Y-98940952D01*
X113831666Y-99512380D01*
X114450714Y-99512380D01*
X155942380Y-95893333D02*
X156656666Y-95893333D01*
X156799523Y-95940952D01*
X156894761Y-96036190D01*
X156942380Y-96179047D01*
X156942380Y-96274285D01*
X155942380Y-95512380D02*
X155942380Y-94893333D01*
X156323333Y-95226666D01*
X156323333Y-95083809D01*
X156370952Y-94988571D01*
X156418571Y-94940952D01*
X156513809Y-94893333D01*
X156751904Y-94893333D01*
X156847142Y-94940952D01*
X156894761Y-94988571D01*
X156942380Y-95083809D01*
X156942380Y-95369523D01*
X156894761Y-95464761D01*
X156847142Y-95512380D01*
X120947380Y-63198333D02*
X121661666Y-63198333D01*
X121804523Y-63245952D01*
X121899761Y-63341190D01*
X121947380Y-63484047D01*
X121947380Y-63579285D01*
X120947380Y-62245952D02*
X120947380Y-62722142D01*
X121423571Y-62769761D01*
X121375952Y-62722142D01*
X121328333Y-62626904D01*
X121328333Y-62388809D01*
X121375952Y-62293571D01*
X121423571Y-62245952D01*
X121518809Y-62198333D01*
X121756904Y-62198333D01*
X121852142Y-62245952D01*
X121899761Y-62293571D01*
X121947380Y-62388809D01*
X121947380Y-62626904D01*
X121899761Y-62722142D01*
X121852142Y-62769761D01*
X128809761Y-107902619D02*
X128714523Y-107855000D01*
X128619285Y-107759761D01*
X128476428Y-107616904D01*
X128381190Y-107569285D01*
X128285952Y-107569285D01*
X128333571Y-107807380D02*
X128238333Y-107759761D01*
X128143095Y-107664523D01*
X128095476Y-107474047D01*
X128095476Y-107140714D01*
X128143095Y-106950238D01*
X128238333Y-106855000D01*
X128333571Y-106807380D01*
X128524047Y-106807380D01*
X128619285Y-106855000D01*
X128714523Y-106950238D01*
X128762142Y-107140714D01*
X128762142Y-107474047D01*
X128714523Y-107664523D01*
X128619285Y-107759761D01*
X128524047Y-107807380D01*
X128333571Y-107807380D01*
X129714523Y-107807380D02*
X129143095Y-107807380D01*
X129428809Y-107807380D02*
X129428809Y-106807380D01*
X129333571Y-106950238D01*
X129238333Y-107045476D01*
X129143095Y-107093095D01*
X107854761Y-73572619D02*
X107759523Y-73525000D01*
X107664285Y-73429761D01*
X107521428Y-73286904D01*
X107426190Y-73239285D01*
X107330952Y-73239285D01*
X107378571Y-73477380D02*
X107283333Y-73429761D01*
X107188095Y-73334523D01*
X107140476Y-73144047D01*
X107140476Y-72810714D01*
X107188095Y-72620238D01*
X107283333Y-72525000D01*
X107378571Y-72477380D01*
X107569047Y-72477380D01*
X107664285Y-72525000D01*
X107759523Y-72620238D01*
X107807142Y-72810714D01*
X107807142Y-73144047D01*
X107759523Y-73334523D01*
X107664285Y-73429761D01*
X107569047Y-73477380D01*
X107378571Y-73477380D01*
X108188095Y-72572619D02*
X108235714Y-72525000D01*
X108330952Y-72477380D01*
X108569047Y-72477380D01*
X108664285Y-72525000D01*
X108711904Y-72572619D01*
X108759523Y-72667857D01*
X108759523Y-72763095D01*
X108711904Y-72905952D01*
X108140476Y-73477380D01*
X108759523Y-73477380D01*
X107854761Y-79287619D02*
X107759523Y-79240000D01*
X107664285Y-79144761D01*
X107521428Y-79001904D01*
X107426190Y-78954285D01*
X107330952Y-78954285D01*
X107378571Y-79192380D02*
X107283333Y-79144761D01*
X107188095Y-79049523D01*
X107140476Y-78859047D01*
X107140476Y-78525714D01*
X107188095Y-78335238D01*
X107283333Y-78240000D01*
X107378571Y-78192380D01*
X107569047Y-78192380D01*
X107664285Y-78240000D01*
X107759523Y-78335238D01*
X107807142Y-78525714D01*
X107807142Y-78859047D01*
X107759523Y-79049523D01*
X107664285Y-79144761D01*
X107569047Y-79192380D01*
X107378571Y-79192380D01*
X108140476Y-78192380D02*
X108759523Y-78192380D01*
X108426190Y-78573333D01*
X108569047Y-78573333D01*
X108664285Y-78620952D01*
X108711904Y-78668571D01*
X108759523Y-78763809D01*
X108759523Y-79001904D01*
X108711904Y-79097142D01*
X108664285Y-79144761D01*
X108569047Y-79192380D01*
X108283333Y-79192380D01*
X108188095Y-79144761D01*
X108140476Y-79097142D01*
X107854761Y-85002619D02*
X107759523Y-84955000D01*
X107664285Y-84859761D01*
X107521428Y-84716904D01*
X107426190Y-84669285D01*
X107330952Y-84669285D01*
X107378571Y-84907380D02*
X107283333Y-84859761D01*
X107188095Y-84764523D01*
X107140476Y-84574047D01*
X107140476Y-84240714D01*
X107188095Y-84050238D01*
X107283333Y-83955000D01*
X107378571Y-83907380D01*
X107569047Y-83907380D01*
X107664285Y-83955000D01*
X107759523Y-84050238D01*
X107807142Y-84240714D01*
X107807142Y-84574047D01*
X107759523Y-84764523D01*
X107664285Y-84859761D01*
X107569047Y-84907380D01*
X107378571Y-84907380D01*
X108664285Y-84240714D02*
X108664285Y-84907380D01*
X108426190Y-83859761D02*
X108188095Y-84574047D01*
X108807142Y-84574047D01*
X107854761Y-90717619D02*
X107759523Y-90670000D01*
X107664285Y-90574761D01*
X107521428Y-90431904D01*
X107426190Y-90384285D01*
X107330952Y-90384285D01*
X107378571Y-90622380D02*
X107283333Y-90574761D01*
X107188095Y-90479523D01*
X107140476Y-90289047D01*
X107140476Y-89955714D01*
X107188095Y-89765238D01*
X107283333Y-89670000D01*
X107378571Y-89622380D01*
X107569047Y-89622380D01*
X107664285Y-89670000D01*
X107759523Y-89765238D01*
X107807142Y-89955714D01*
X107807142Y-90289047D01*
X107759523Y-90479523D01*
X107664285Y-90574761D01*
X107569047Y-90622380D01*
X107378571Y-90622380D01*
X108711904Y-89622380D02*
X108235714Y-89622380D01*
X108188095Y-90098571D01*
X108235714Y-90050952D01*
X108330952Y-90003333D01*
X108569047Y-90003333D01*
X108664285Y-90050952D01*
X108711904Y-90098571D01*
X108759523Y-90193809D01*
X108759523Y-90431904D01*
X108711904Y-90527142D01*
X108664285Y-90574761D01*
X108569047Y-90622380D01*
X108330952Y-90622380D01*
X108235714Y-90574761D01*
X108188095Y-90527142D01*
X107854761Y-96432619D02*
X107759523Y-96385000D01*
X107664285Y-96289761D01*
X107521428Y-96146904D01*
X107426190Y-96099285D01*
X107330952Y-96099285D01*
X107378571Y-96337380D02*
X107283333Y-96289761D01*
X107188095Y-96194523D01*
X107140476Y-96004047D01*
X107140476Y-95670714D01*
X107188095Y-95480238D01*
X107283333Y-95385000D01*
X107378571Y-95337380D01*
X107569047Y-95337380D01*
X107664285Y-95385000D01*
X107759523Y-95480238D01*
X107807142Y-95670714D01*
X107807142Y-96004047D01*
X107759523Y-96194523D01*
X107664285Y-96289761D01*
X107569047Y-96337380D01*
X107378571Y-96337380D01*
X108664285Y-95337380D02*
X108473809Y-95337380D01*
X108378571Y-95385000D01*
X108330952Y-95432619D01*
X108235714Y-95575476D01*
X108188095Y-95765952D01*
X108188095Y-96146904D01*
X108235714Y-96242142D01*
X108283333Y-96289761D01*
X108378571Y-96337380D01*
X108569047Y-96337380D01*
X108664285Y-96289761D01*
X108711904Y-96242142D01*
X108759523Y-96146904D01*
X108759523Y-95908809D01*
X108711904Y-95813571D01*
X108664285Y-95765952D01*
X108569047Y-95718333D01*
X108378571Y-95718333D01*
X108283333Y-95765952D01*
X108235714Y-95813571D01*
X108188095Y-95908809D01*
X107854761Y-102147619D02*
X107759523Y-102100000D01*
X107664285Y-102004761D01*
X107521428Y-101861904D01*
X107426190Y-101814285D01*
X107330952Y-101814285D01*
X107378571Y-102052380D02*
X107283333Y-102004761D01*
X107188095Y-101909523D01*
X107140476Y-101719047D01*
X107140476Y-101385714D01*
X107188095Y-101195238D01*
X107283333Y-101100000D01*
X107378571Y-101052380D01*
X107569047Y-101052380D01*
X107664285Y-101100000D01*
X107759523Y-101195238D01*
X107807142Y-101385714D01*
X107807142Y-101719047D01*
X107759523Y-101909523D01*
X107664285Y-102004761D01*
X107569047Y-102052380D01*
X107378571Y-102052380D01*
X108140476Y-101052380D02*
X108807142Y-101052380D01*
X108378571Y-102052380D01*
X133167380Y-87796666D02*
X132691190Y-88130000D01*
X133167380Y-88368095D02*
X132167380Y-88368095D01*
X132167380Y-87987142D01*
X132215000Y-87891904D01*
X132262619Y-87844285D01*
X132357857Y-87796666D01*
X132500714Y-87796666D01*
X132595952Y-87844285D01*
X132643571Y-87891904D01*
X132691190Y-87987142D01*
X132691190Y-88368095D01*
X133167380Y-86844285D02*
X133167380Y-87415714D01*
X133167380Y-87130000D02*
X132167380Y-87130000D01*
X132310238Y-87225238D01*
X132405476Y-87320476D01*
X132453095Y-87415714D01*
X122388333Y-108487380D02*
X122055000Y-108011190D01*
X121816904Y-108487380D02*
X121816904Y-107487380D01*
X122197857Y-107487380D01*
X122293095Y-107535000D01*
X122340714Y-107582619D01*
X122388333Y-107677857D01*
X122388333Y-107820714D01*
X122340714Y-107915952D01*
X122293095Y-107963571D01*
X122197857Y-108011190D01*
X121816904Y-108011190D01*
X122769285Y-107582619D02*
X122816904Y-107535000D01*
X122912142Y-107487380D01*
X123150238Y-107487380D01*
X123245476Y-107535000D01*
X123293095Y-107582619D01*
X123340714Y-107677857D01*
X123340714Y-107773095D01*
X123293095Y-107915952D01*
X122721666Y-108487380D01*
X123340714Y-108487380D01*
X159218333Y-75382380D02*
X158885000Y-74906190D01*
X158646904Y-75382380D02*
X158646904Y-74382380D01*
X159027857Y-74382380D01*
X159123095Y-74430000D01*
X159170714Y-74477619D01*
X159218333Y-74572857D01*
X159218333Y-74715714D01*
X159170714Y-74810952D01*
X159123095Y-74858571D01*
X159027857Y-74906190D01*
X158646904Y-74906190D01*
X159551666Y-74382380D02*
X160170714Y-74382380D01*
X159837380Y-74763333D01*
X159980238Y-74763333D01*
X160075476Y-74810952D01*
X160123095Y-74858571D01*
X160170714Y-74953809D01*
X160170714Y-75191904D01*
X160123095Y-75287142D01*
X160075476Y-75334761D01*
X159980238Y-75382380D01*
X159694523Y-75382380D01*
X159599285Y-75334761D01*
X159551666Y-75287142D01*
X159218333Y-79277380D02*
X158885000Y-78801190D01*
X158646904Y-79277380D02*
X158646904Y-78277380D01*
X159027857Y-78277380D01*
X159123095Y-78325000D01*
X159170714Y-78372619D01*
X159218333Y-78467857D01*
X159218333Y-78610714D01*
X159170714Y-78705952D01*
X159123095Y-78753571D01*
X159027857Y-78801190D01*
X158646904Y-78801190D01*
X160075476Y-78610714D02*
X160075476Y-79277380D01*
X159837380Y-78229761D02*
X159599285Y-78944047D01*
X160218333Y-78944047D01*
X152868333Y-96422380D02*
X152535000Y-95946190D01*
X152296904Y-96422380D02*
X152296904Y-95422380D01*
X152677857Y-95422380D01*
X152773095Y-95470000D01*
X152820714Y-95517619D01*
X152868333Y-95612857D01*
X152868333Y-95755714D01*
X152820714Y-95850952D01*
X152773095Y-95898571D01*
X152677857Y-95946190D01*
X152296904Y-95946190D01*
X153773095Y-95422380D02*
X153296904Y-95422380D01*
X153249285Y-95898571D01*
X153296904Y-95850952D01*
X153392142Y-95803333D01*
X153630238Y-95803333D01*
X153725476Y-95850952D01*
X153773095Y-95898571D01*
X153820714Y-95993809D01*
X153820714Y-96231904D01*
X153773095Y-96327142D01*
X153725476Y-96374761D01*
X153630238Y-96422380D01*
X153392142Y-96422380D01*
X153296904Y-96374761D01*
X153249285Y-96327142D01*
X152868333Y-92612380D02*
X152535000Y-92136190D01*
X152296904Y-92612380D02*
X152296904Y-91612380D01*
X152677857Y-91612380D01*
X152773095Y-91660000D01*
X152820714Y-91707619D01*
X152868333Y-91802857D01*
X152868333Y-91945714D01*
X152820714Y-92040952D01*
X152773095Y-92088571D01*
X152677857Y-92136190D01*
X152296904Y-92136190D01*
X153725476Y-91612380D02*
X153535000Y-91612380D01*
X153439761Y-91660000D01*
X153392142Y-91707619D01*
X153296904Y-91850476D01*
X153249285Y-92040952D01*
X153249285Y-92421904D01*
X153296904Y-92517142D01*
X153344523Y-92564761D01*
X153439761Y-92612380D01*
X153630238Y-92612380D01*
X153725476Y-92564761D01*
X153773095Y-92517142D01*
X153820714Y-92421904D01*
X153820714Y-92183809D01*
X153773095Y-92088571D01*
X153725476Y-92040952D01*
X153630238Y-91993333D01*
X153439761Y-91993333D01*
X153344523Y-92040952D01*
X153296904Y-92088571D01*
X153249285Y-92183809D01*
X151582380Y-87796666D02*
X151106190Y-88130000D01*
X151582380Y-88368095D02*
X150582380Y-88368095D01*
X150582380Y-87987142D01*
X150630000Y-87891904D01*
X150677619Y-87844285D01*
X150772857Y-87796666D01*
X150915714Y-87796666D01*
X151010952Y-87844285D01*
X151058571Y-87891904D01*
X151106190Y-87987142D01*
X151106190Y-88368095D01*
X150582380Y-87463333D02*
X150582380Y-86796666D01*
X151582380Y-87225238D01*
X113498333Y-75382380D02*
X113165000Y-74906190D01*
X112926904Y-75382380D02*
X112926904Y-74382380D01*
X113307857Y-74382380D01*
X113403095Y-74430000D01*
X113450714Y-74477619D01*
X113498333Y-74572857D01*
X113498333Y-74715714D01*
X113450714Y-74810952D01*
X113403095Y-74858571D01*
X113307857Y-74906190D01*
X112926904Y-74906190D01*
X114069761Y-74810952D02*
X113974523Y-74763333D01*
X113926904Y-74715714D01*
X113879285Y-74620476D01*
X113879285Y-74572857D01*
X113926904Y-74477619D01*
X113974523Y-74430000D01*
X114069761Y-74382380D01*
X114260238Y-74382380D01*
X114355476Y-74430000D01*
X114403095Y-74477619D01*
X114450714Y-74572857D01*
X114450714Y-74620476D01*
X114403095Y-74715714D01*
X114355476Y-74763333D01*
X114260238Y-74810952D01*
X114069761Y-74810952D01*
X113974523Y-74858571D01*
X113926904Y-74906190D01*
X113879285Y-75001428D01*
X113879285Y-75191904D01*
X113926904Y-75287142D01*
X113974523Y-75334761D01*
X114069761Y-75382380D01*
X114260238Y-75382380D01*
X114355476Y-75334761D01*
X114403095Y-75287142D01*
X114450714Y-75191904D01*
X114450714Y-75001428D01*
X114403095Y-74906190D01*
X114355476Y-74858571D01*
X114260238Y-74810952D01*
X112228333Y-81097380D02*
X111895000Y-80621190D01*
X111656904Y-81097380D02*
X111656904Y-80097380D01*
X112037857Y-80097380D01*
X112133095Y-80145000D01*
X112180714Y-80192619D01*
X112228333Y-80287857D01*
X112228333Y-80430714D01*
X112180714Y-80525952D01*
X112133095Y-80573571D01*
X112037857Y-80621190D01*
X111656904Y-80621190D01*
X112704523Y-81097380D02*
X112895000Y-81097380D01*
X112990238Y-81049761D01*
X113037857Y-81002142D01*
X113133095Y-80859285D01*
X113180714Y-80668809D01*
X113180714Y-80287857D01*
X113133095Y-80192619D01*
X113085476Y-80145000D01*
X112990238Y-80097380D01*
X112799761Y-80097380D01*
X112704523Y-80145000D01*
X112656904Y-80192619D01*
X112609285Y-80287857D01*
X112609285Y-80525952D01*
X112656904Y-80621190D01*
X112704523Y-80668809D01*
X112799761Y-80716428D01*
X112990238Y-80716428D01*
X113085476Y-80668809D01*
X113133095Y-80621190D01*
X113180714Y-80525952D01*
X113022142Y-86812380D02*
X112688809Y-86336190D01*
X112450714Y-86812380D02*
X112450714Y-85812380D01*
X112831666Y-85812380D01*
X112926904Y-85860000D01*
X112974523Y-85907619D01*
X113022142Y-86002857D01*
X113022142Y-86145714D01*
X112974523Y-86240952D01*
X112926904Y-86288571D01*
X112831666Y-86336190D01*
X112450714Y-86336190D01*
X113974523Y-86812380D02*
X113403095Y-86812380D01*
X113688809Y-86812380D02*
X113688809Y-85812380D01*
X113593571Y-85955238D01*
X113498333Y-86050476D01*
X113403095Y-86098095D01*
X114593571Y-85812380D02*
X114688809Y-85812380D01*
X114784047Y-85860000D01*
X114831666Y-85907619D01*
X114879285Y-86002857D01*
X114926904Y-86193333D01*
X114926904Y-86431428D01*
X114879285Y-86621904D01*
X114831666Y-86717142D01*
X114784047Y-86764761D01*
X114688809Y-86812380D01*
X114593571Y-86812380D01*
X114498333Y-86764761D01*
X114450714Y-86717142D01*
X114403095Y-86621904D01*
X114355476Y-86431428D01*
X114355476Y-86193333D01*
X114403095Y-86002857D01*
X114450714Y-85907619D01*
X114498333Y-85860000D01*
X114593571Y-85812380D01*
X113022142Y-91892380D02*
X112688809Y-91416190D01*
X112450714Y-91892380D02*
X112450714Y-90892380D01*
X112831666Y-90892380D01*
X112926904Y-90940000D01*
X112974523Y-90987619D01*
X113022142Y-91082857D01*
X113022142Y-91225714D01*
X112974523Y-91320952D01*
X112926904Y-91368571D01*
X112831666Y-91416190D01*
X112450714Y-91416190D01*
X113974523Y-91892380D02*
X113403095Y-91892380D01*
X113688809Y-91892380D02*
X113688809Y-90892380D01*
X113593571Y-91035238D01*
X113498333Y-91130476D01*
X113403095Y-91178095D01*
X114926904Y-91892380D02*
X114355476Y-91892380D01*
X114641190Y-91892380D02*
X114641190Y-90892380D01*
X114545952Y-91035238D01*
X114450714Y-91130476D01*
X114355476Y-91178095D01*
X113022142Y-95702380D02*
X112688809Y-95226190D01*
X112450714Y-95702380D02*
X112450714Y-94702380D01*
X112831666Y-94702380D01*
X112926904Y-94750000D01*
X112974523Y-94797619D01*
X113022142Y-94892857D01*
X113022142Y-95035714D01*
X112974523Y-95130952D01*
X112926904Y-95178571D01*
X112831666Y-95226190D01*
X112450714Y-95226190D01*
X113974523Y-95702380D02*
X113403095Y-95702380D01*
X113688809Y-95702380D02*
X113688809Y-94702380D01*
X113593571Y-94845238D01*
X113498333Y-94940476D01*
X113403095Y-94988095D01*
X114355476Y-94797619D02*
X114403095Y-94750000D01*
X114498333Y-94702380D01*
X114736428Y-94702380D01*
X114831666Y-94750000D01*
X114879285Y-94797619D01*
X114926904Y-94892857D01*
X114926904Y-94988095D01*
X114879285Y-95130952D01*
X114307857Y-95702380D01*
X114926904Y-95702380D01*
X113022142Y-103322380D02*
X112688809Y-102846190D01*
X112450714Y-103322380D02*
X112450714Y-102322380D01*
X112831666Y-102322380D01*
X112926904Y-102370000D01*
X112974523Y-102417619D01*
X113022142Y-102512857D01*
X113022142Y-102655714D01*
X112974523Y-102750952D01*
X112926904Y-102798571D01*
X112831666Y-102846190D01*
X112450714Y-102846190D01*
X113974523Y-103322380D02*
X113403095Y-103322380D01*
X113688809Y-103322380D02*
X113688809Y-102322380D01*
X113593571Y-102465238D01*
X113498333Y-102560476D01*
X113403095Y-102608095D01*
X114307857Y-102322380D02*
X114926904Y-102322380D01*
X114593571Y-102703333D01*
X114736428Y-102703333D01*
X114831666Y-102750952D01*
X114879285Y-102798571D01*
X114926904Y-102893809D01*
X114926904Y-103131904D01*
X114879285Y-103227142D01*
X114831666Y-103274761D01*
X114736428Y-103322380D01*
X114450714Y-103322380D01*
X114355476Y-103274761D01*
X114307857Y-103227142D01*
X96512142Y-72842380D02*
X96178809Y-72366190D01*
X95940714Y-72842380D02*
X95940714Y-71842380D01*
X96321666Y-71842380D01*
X96416904Y-71890000D01*
X96464523Y-71937619D01*
X96512142Y-72032857D01*
X96512142Y-72175714D01*
X96464523Y-72270952D01*
X96416904Y-72318571D01*
X96321666Y-72366190D01*
X95940714Y-72366190D01*
X97464523Y-72842380D02*
X96893095Y-72842380D01*
X97178809Y-72842380D02*
X97178809Y-71842380D01*
X97083571Y-71985238D01*
X96988333Y-72080476D01*
X96893095Y-72128095D01*
X98321666Y-72175714D02*
X98321666Y-72842380D01*
X98083571Y-71794761D02*
X97845476Y-72509047D01*
X98464523Y-72509047D01*
X96512142Y-75382380D02*
X96178809Y-74906190D01*
X95940714Y-75382380D02*
X95940714Y-74382380D01*
X96321666Y-74382380D01*
X96416904Y-74430000D01*
X96464523Y-74477619D01*
X96512142Y-74572857D01*
X96512142Y-74715714D01*
X96464523Y-74810952D01*
X96416904Y-74858571D01*
X96321666Y-74906190D01*
X95940714Y-74906190D01*
X97464523Y-75382380D02*
X96893095Y-75382380D01*
X97178809Y-75382380D02*
X97178809Y-74382380D01*
X97083571Y-74525238D01*
X96988333Y-74620476D01*
X96893095Y-74668095D01*
X98369285Y-74382380D02*
X97893095Y-74382380D01*
X97845476Y-74858571D01*
X97893095Y-74810952D01*
X97988333Y-74763333D01*
X98226428Y-74763333D01*
X98321666Y-74810952D01*
X98369285Y-74858571D01*
X98416904Y-74953809D01*
X98416904Y-75191904D01*
X98369285Y-75287142D01*
X98321666Y-75334761D01*
X98226428Y-75382380D01*
X97988333Y-75382380D01*
X97893095Y-75334761D01*
X97845476Y-75287142D01*
X96512142Y-80462380D02*
X96178809Y-79986190D01*
X95940714Y-80462380D02*
X95940714Y-79462380D01*
X96321666Y-79462380D01*
X96416904Y-79510000D01*
X96464523Y-79557619D01*
X96512142Y-79652857D01*
X96512142Y-79795714D01*
X96464523Y-79890952D01*
X96416904Y-79938571D01*
X96321666Y-79986190D01*
X95940714Y-79986190D01*
X97464523Y-80462380D02*
X96893095Y-80462380D01*
X97178809Y-80462380D02*
X97178809Y-79462380D01*
X97083571Y-79605238D01*
X96988333Y-79700476D01*
X96893095Y-79748095D01*
X98321666Y-79462380D02*
X98131190Y-79462380D01*
X98035952Y-79510000D01*
X97988333Y-79557619D01*
X97893095Y-79700476D01*
X97845476Y-79890952D01*
X97845476Y-80271904D01*
X97893095Y-80367142D01*
X97940714Y-80414761D01*
X98035952Y-80462380D01*
X98226428Y-80462380D01*
X98321666Y-80414761D01*
X98369285Y-80367142D01*
X98416904Y-80271904D01*
X98416904Y-80033809D01*
X98369285Y-79938571D01*
X98321666Y-79890952D01*
X98226428Y-79843333D01*
X98035952Y-79843333D01*
X97940714Y-79890952D01*
X97893095Y-79938571D01*
X97845476Y-80033809D01*
X96512142Y-84907380D02*
X96178809Y-84431190D01*
X95940714Y-84907380D02*
X95940714Y-83907380D01*
X96321666Y-83907380D01*
X96416904Y-83955000D01*
X96464523Y-84002619D01*
X96512142Y-84097857D01*
X96512142Y-84240714D01*
X96464523Y-84335952D01*
X96416904Y-84383571D01*
X96321666Y-84431190D01*
X95940714Y-84431190D01*
X97464523Y-84907380D02*
X96893095Y-84907380D01*
X97178809Y-84907380D02*
X97178809Y-83907380D01*
X97083571Y-84050238D01*
X96988333Y-84145476D01*
X96893095Y-84193095D01*
X97797857Y-83907380D02*
X98464523Y-83907380D01*
X98035952Y-84907380D01*
X96512142Y-88082380D02*
X96178809Y-87606190D01*
X95940714Y-88082380D02*
X95940714Y-87082380D01*
X96321666Y-87082380D01*
X96416904Y-87130000D01*
X96464523Y-87177619D01*
X96512142Y-87272857D01*
X96512142Y-87415714D01*
X96464523Y-87510952D01*
X96416904Y-87558571D01*
X96321666Y-87606190D01*
X95940714Y-87606190D01*
X97464523Y-88082380D02*
X96893095Y-88082380D01*
X97178809Y-88082380D02*
X97178809Y-87082380D01*
X97083571Y-87225238D01*
X96988333Y-87320476D01*
X96893095Y-87368095D01*
X98035952Y-87510952D02*
X97940714Y-87463333D01*
X97893095Y-87415714D01*
X97845476Y-87320476D01*
X97845476Y-87272857D01*
X97893095Y-87177619D01*
X97940714Y-87130000D01*
X98035952Y-87082380D01*
X98226428Y-87082380D01*
X98321666Y-87130000D01*
X98369285Y-87177619D01*
X98416904Y-87272857D01*
X98416904Y-87320476D01*
X98369285Y-87415714D01*
X98321666Y-87463333D01*
X98226428Y-87510952D01*
X98035952Y-87510952D01*
X97940714Y-87558571D01*
X97893095Y-87606190D01*
X97845476Y-87701428D01*
X97845476Y-87891904D01*
X97893095Y-87987142D01*
X97940714Y-88034761D01*
X98035952Y-88082380D01*
X98226428Y-88082380D01*
X98321666Y-88034761D01*
X98369285Y-87987142D01*
X98416904Y-87891904D01*
X98416904Y-87701428D01*
X98369285Y-87606190D01*
X98321666Y-87558571D01*
X98226428Y-87510952D01*
X96512142Y-91257380D02*
X96178809Y-90781190D01*
X95940714Y-91257380D02*
X95940714Y-90257380D01*
X96321666Y-90257380D01*
X96416904Y-90305000D01*
X96464523Y-90352619D01*
X96512142Y-90447857D01*
X96512142Y-90590714D01*
X96464523Y-90685952D01*
X96416904Y-90733571D01*
X96321666Y-90781190D01*
X95940714Y-90781190D01*
X97464523Y-91257380D02*
X96893095Y-91257380D01*
X97178809Y-91257380D02*
X97178809Y-90257380D01*
X97083571Y-90400238D01*
X96988333Y-90495476D01*
X96893095Y-90543095D01*
X97940714Y-91257380D02*
X98131190Y-91257380D01*
X98226428Y-91209761D01*
X98274047Y-91162142D01*
X98369285Y-91019285D01*
X98416904Y-90828809D01*
X98416904Y-90447857D01*
X98369285Y-90352619D01*
X98321666Y-90305000D01*
X98226428Y-90257380D01*
X98035952Y-90257380D01*
X97940714Y-90305000D01*
X97893095Y-90352619D01*
X97845476Y-90447857D01*
X97845476Y-90685952D01*
X97893095Y-90781190D01*
X97940714Y-90828809D01*
X98035952Y-90876428D01*
X98226428Y-90876428D01*
X98321666Y-90828809D01*
X98369285Y-90781190D01*
X98416904Y-90685952D01*
X96512142Y-94432380D02*
X96178809Y-93956190D01*
X95940714Y-94432380D02*
X95940714Y-93432380D01*
X96321666Y-93432380D01*
X96416904Y-93480000D01*
X96464523Y-93527619D01*
X96512142Y-93622857D01*
X96512142Y-93765714D01*
X96464523Y-93860952D01*
X96416904Y-93908571D01*
X96321666Y-93956190D01*
X95940714Y-93956190D01*
X96893095Y-93527619D02*
X96940714Y-93480000D01*
X97035952Y-93432380D01*
X97274047Y-93432380D01*
X97369285Y-93480000D01*
X97416904Y-93527619D01*
X97464523Y-93622857D01*
X97464523Y-93718095D01*
X97416904Y-93860952D01*
X96845476Y-94432380D01*
X97464523Y-94432380D01*
X98083571Y-93432380D02*
X98178809Y-93432380D01*
X98274047Y-93480000D01*
X98321666Y-93527619D01*
X98369285Y-93622857D01*
X98416904Y-93813333D01*
X98416904Y-94051428D01*
X98369285Y-94241904D01*
X98321666Y-94337142D01*
X98274047Y-94384761D01*
X98178809Y-94432380D01*
X98083571Y-94432380D01*
X97988333Y-94384761D01*
X97940714Y-94337142D01*
X97893095Y-94241904D01*
X97845476Y-94051428D01*
X97845476Y-93813333D01*
X97893095Y-93622857D01*
X97940714Y-93527619D01*
X97988333Y-93480000D01*
X98083571Y-93432380D01*
X96512142Y-97607380D02*
X96178809Y-97131190D01*
X95940714Y-97607380D02*
X95940714Y-96607380D01*
X96321666Y-96607380D01*
X96416904Y-96655000D01*
X96464523Y-96702619D01*
X96512142Y-96797857D01*
X96512142Y-96940714D01*
X96464523Y-97035952D01*
X96416904Y-97083571D01*
X96321666Y-97131190D01*
X95940714Y-97131190D01*
X96893095Y-96702619D02*
X96940714Y-96655000D01*
X97035952Y-96607380D01*
X97274047Y-96607380D01*
X97369285Y-96655000D01*
X97416904Y-96702619D01*
X97464523Y-96797857D01*
X97464523Y-96893095D01*
X97416904Y-97035952D01*
X96845476Y-97607380D01*
X97464523Y-97607380D01*
X98416904Y-97607380D02*
X97845476Y-97607380D01*
X98131190Y-97607380D02*
X98131190Y-96607380D01*
X98035952Y-96750238D01*
X97940714Y-96845476D01*
X97845476Y-96893095D01*
X96512142Y-100782380D02*
X96178809Y-100306190D01*
X95940714Y-100782380D02*
X95940714Y-99782380D01*
X96321666Y-99782380D01*
X96416904Y-99830000D01*
X96464523Y-99877619D01*
X96512142Y-99972857D01*
X96512142Y-100115714D01*
X96464523Y-100210952D01*
X96416904Y-100258571D01*
X96321666Y-100306190D01*
X95940714Y-100306190D01*
X96893095Y-99877619D02*
X96940714Y-99830000D01*
X97035952Y-99782380D01*
X97274047Y-99782380D01*
X97369285Y-99830000D01*
X97416904Y-99877619D01*
X97464523Y-99972857D01*
X97464523Y-100068095D01*
X97416904Y-100210952D01*
X96845476Y-100782380D01*
X97464523Y-100782380D01*
X97845476Y-99877619D02*
X97893095Y-99830000D01*
X97988333Y-99782380D01*
X98226428Y-99782380D01*
X98321666Y-99830000D01*
X98369285Y-99877619D01*
X98416904Y-99972857D01*
X98416904Y-100068095D01*
X98369285Y-100210952D01*
X97797857Y-100782380D01*
X98416904Y-100782380D01*
X96512142Y-103957380D02*
X96178809Y-103481190D01*
X95940714Y-103957380D02*
X95940714Y-102957380D01*
X96321666Y-102957380D01*
X96416904Y-103005000D01*
X96464523Y-103052619D01*
X96512142Y-103147857D01*
X96512142Y-103290714D01*
X96464523Y-103385952D01*
X96416904Y-103433571D01*
X96321666Y-103481190D01*
X95940714Y-103481190D01*
X96893095Y-103052619D02*
X96940714Y-103005000D01*
X97035952Y-102957380D01*
X97274047Y-102957380D01*
X97369285Y-103005000D01*
X97416904Y-103052619D01*
X97464523Y-103147857D01*
X97464523Y-103243095D01*
X97416904Y-103385952D01*
X96845476Y-103957380D01*
X97464523Y-103957380D01*
X97797857Y-102957380D02*
X98416904Y-102957380D01*
X98083571Y-103338333D01*
X98226428Y-103338333D01*
X98321666Y-103385952D01*
X98369285Y-103433571D01*
X98416904Y-103528809D01*
X98416904Y-103766904D01*
X98369285Y-103862142D01*
X98321666Y-103909761D01*
X98226428Y-103957380D01*
X97940714Y-103957380D01*
X97845476Y-103909761D01*
X97797857Y-103862142D01*
X96512142Y-107132380D02*
X96178809Y-106656190D01*
X95940714Y-107132380D02*
X95940714Y-106132380D01*
X96321666Y-106132380D01*
X96416904Y-106180000D01*
X96464523Y-106227619D01*
X96512142Y-106322857D01*
X96512142Y-106465714D01*
X96464523Y-106560952D01*
X96416904Y-106608571D01*
X96321666Y-106656190D01*
X95940714Y-106656190D01*
X96893095Y-106227619D02*
X96940714Y-106180000D01*
X97035952Y-106132380D01*
X97274047Y-106132380D01*
X97369285Y-106180000D01*
X97416904Y-106227619D01*
X97464523Y-106322857D01*
X97464523Y-106418095D01*
X97416904Y-106560952D01*
X96845476Y-107132380D01*
X97464523Y-107132380D01*
X98321666Y-106465714D02*
X98321666Y-107132380D01*
X98083571Y-106084761D02*
X97845476Y-106799047D01*
X98464523Y-106799047D01*
X96512142Y-110307380D02*
X96178809Y-109831190D01*
X95940714Y-110307380D02*
X95940714Y-109307380D01*
X96321666Y-109307380D01*
X96416904Y-109355000D01*
X96464523Y-109402619D01*
X96512142Y-109497857D01*
X96512142Y-109640714D01*
X96464523Y-109735952D01*
X96416904Y-109783571D01*
X96321666Y-109831190D01*
X95940714Y-109831190D01*
X96893095Y-109402619D02*
X96940714Y-109355000D01*
X97035952Y-109307380D01*
X97274047Y-109307380D01*
X97369285Y-109355000D01*
X97416904Y-109402619D01*
X97464523Y-109497857D01*
X97464523Y-109593095D01*
X97416904Y-109735952D01*
X96845476Y-110307380D01*
X97464523Y-110307380D01*
X98369285Y-109307380D02*
X97893095Y-109307380D01*
X97845476Y-109783571D01*
X97893095Y-109735952D01*
X97988333Y-109688333D01*
X98226428Y-109688333D01*
X98321666Y-109735952D01*
X98369285Y-109783571D01*
X98416904Y-109878809D01*
X98416904Y-110116904D01*
X98369285Y-110212142D01*
X98321666Y-110259761D01*
X98226428Y-110307380D01*
X97988333Y-110307380D01*
X97893095Y-110259761D01*
X97845476Y-110212142D01*
X96512142Y-113482380D02*
X96178809Y-113006190D01*
X95940714Y-113482380D02*
X95940714Y-112482380D01*
X96321666Y-112482380D01*
X96416904Y-112530000D01*
X96464523Y-112577619D01*
X96512142Y-112672857D01*
X96512142Y-112815714D01*
X96464523Y-112910952D01*
X96416904Y-112958571D01*
X96321666Y-113006190D01*
X95940714Y-113006190D01*
X96893095Y-112577619D02*
X96940714Y-112530000D01*
X97035952Y-112482380D01*
X97274047Y-112482380D01*
X97369285Y-112530000D01*
X97416904Y-112577619D01*
X97464523Y-112672857D01*
X97464523Y-112768095D01*
X97416904Y-112910952D01*
X96845476Y-113482380D01*
X97464523Y-113482380D01*
X98321666Y-112482380D02*
X98131190Y-112482380D01*
X98035952Y-112530000D01*
X97988333Y-112577619D01*
X97893095Y-112720476D01*
X97845476Y-112910952D01*
X97845476Y-113291904D01*
X97893095Y-113387142D01*
X97940714Y-113434761D01*
X98035952Y-113482380D01*
X98226428Y-113482380D01*
X98321666Y-113434761D01*
X98369285Y-113387142D01*
X98416904Y-113291904D01*
X98416904Y-113053809D01*
X98369285Y-112958571D01*
X98321666Y-112910952D01*
X98226428Y-112863333D01*
X98035952Y-112863333D01*
X97940714Y-112910952D01*
X97893095Y-112958571D01*
X97845476Y-113053809D01*
X168770466Y-58018761D02*
X168913323Y-58066380D01*
X169151419Y-58066380D01*
X169246657Y-58018761D01*
X169294276Y-57971142D01*
X169341895Y-57875904D01*
X169341895Y-57780666D01*
X169294276Y-57685428D01*
X169246657Y-57637809D01*
X169151419Y-57590190D01*
X168960942Y-57542571D01*
X168865704Y-57494952D01*
X168818085Y-57447333D01*
X168770466Y-57352095D01*
X168770466Y-57256857D01*
X168818085Y-57161619D01*
X168865704Y-57114000D01*
X168960942Y-57066380D01*
X169199038Y-57066380D01*
X169341895Y-57114000D01*
X169675228Y-57066380D02*
X169913323Y-58066380D01*
X170103800Y-57352095D01*
X170294276Y-58066380D01*
X170532371Y-57066380D01*
X171437133Y-58066380D02*
X170865704Y-58066380D01*
X171151419Y-58066380D02*
X171151419Y-57066380D01*
X171056180Y-57209238D01*
X170960942Y-57304476D01*
X170865704Y-57352095D01*
X124396666Y-93749761D02*
X124539523Y-93797380D01*
X124777619Y-93797380D01*
X124872857Y-93749761D01*
X124920476Y-93702142D01*
X124968095Y-93606904D01*
X124968095Y-93511666D01*
X124920476Y-93416428D01*
X124872857Y-93368809D01*
X124777619Y-93321190D01*
X124587142Y-93273571D01*
X124491904Y-93225952D01*
X124444285Y-93178333D01*
X124396666Y-93083095D01*
X124396666Y-92987857D01*
X124444285Y-92892619D01*
X124491904Y-92845000D01*
X124587142Y-92797380D01*
X124825238Y-92797380D01*
X124968095Y-92845000D01*
X125301428Y-92797380D02*
X125539523Y-93797380D01*
X125730000Y-93083095D01*
X125920476Y-93797380D01*
X126158571Y-92797380D01*
X126491904Y-92892619D02*
X126539523Y-92845000D01*
X126634761Y-92797380D01*
X126872857Y-92797380D01*
X126968095Y-92845000D01*
X127015714Y-92892619D01*
X127063333Y-92987857D01*
X127063333Y-93083095D01*
X127015714Y-93225952D01*
X126444285Y-93797380D01*
X127063333Y-93797380D01*
X99092380Y-63626904D02*
X99901904Y-63626904D01*
X99997142Y-63579285D01*
X100044761Y-63531666D01*
X100092380Y-63436428D01*
X100092380Y-63245952D01*
X100044761Y-63150714D01*
X99997142Y-63103095D01*
X99901904Y-63055476D01*
X99092380Y-63055476D01*
X100092380Y-62055476D02*
X100092380Y-62626904D01*
X100092380Y-62341190D02*
X99092380Y-62341190D01*
X99235238Y-62436428D01*
X99330476Y-62531666D01*
X99378095Y-62626904D01*
X146558095Y-98512380D02*
X146558095Y-99321904D01*
X146605714Y-99417142D01*
X146653333Y-99464761D01*
X146748571Y-99512380D01*
X146939047Y-99512380D01*
X147034285Y-99464761D01*
X147081904Y-99417142D01*
X147129523Y-99321904D01*
X147129523Y-98512380D01*
X147510476Y-98512380D02*
X148129523Y-98512380D01*
X147796190Y-98893333D01*
X147939047Y-98893333D01*
X148034285Y-98940952D01*
X148081904Y-98988571D01*
X148129523Y-99083809D01*
X148129523Y-99321904D01*
X148081904Y-99417142D01*
X148034285Y-99464761D01*
X147939047Y-99512380D01*
X147653333Y-99512380D01*
X147558095Y-99464761D01*
X147510476Y-99417142D01*
X124333095Y-95772380D02*
X124333095Y-96581904D01*
X124380714Y-96677142D01*
X124428333Y-96724761D01*
X124523571Y-96772380D01*
X124714047Y-96772380D01*
X124809285Y-96724761D01*
X124856904Y-96677142D01*
X124904523Y-96581904D01*
X124904523Y-95772380D01*
X125809285Y-96105714D02*
X125809285Y-96772380D01*
X125571190Y-95724761D02*
X125333095Y-96439047D01*
X125952142Y-96439047D01*
X143433809Y-84071190D02*
X143433809Y-84547380D01*
X143100476Y-83547380D02*
X143433809Y-84071190D01*
X143767142Y-83547380D01*
X144624285Y-84547380D02*
X144052857Y-84547380D01*
X144338571Y-84547380D02*
X144338571Y-83547380D01*
X144243333Y-83690238D01*
X144148095Y-83785476D01*
X144052857Y-83833095D01*
X165767380Y-81383095D02*
X164767380Y-81383095D01*
X164767380Y-81145000D01*
X164815000Y-81002142D01*
X164910238Y-80906904D01*
X165005476Y-80859285D01*
X165195952Y-80811666D01*
X165338809Y-80811666D01*
X165529285Y-80859285D01*
X165624523Y-80906904D01*
X165719761Y-81002142D01*
X165767380Y-81145000D01*
X165767380Y-81383095D01*
X165767380Y-79859285D02*
X165767380Y-80430714D01*
X165767380Y-80145000D02*
X164767380Y-80145000D01*
X164910238Y-80240238D01*
X165005476Y-80335476D01*
X165053095Y-80430714D01*
X138882380Y-59242857D02*
X138406190Y-59576190D01*
X138882380Y-59814285D02*
X137882380Y-59814285D01*
X137882380Y-59433333D01*
X137930000Y-59338095D01*
X137977619Y-59290476D01*
X138072857Y-59242857D01*
X138215714Y-59242857D01*
X138310952Y-59290476D01*
X138358571Y-59338095D01*
X138406190Y-59433333D01*
X138406190Y-59814285D01*
X137977619Y-58861904D02*
X137930000Y-58814285D01*
X137882380Y-58719047D01*
X137882380Y-58480952D01*
X137930000Y-58385714D01*
X137977619Y-58338095D01*
X138072857Y-58290476D01*
X138168095Y-58290476D01*
X138310952Y-58338095D01*
X138882380Y-58909523D01*
X138882380Y-58290476D01*
X137882380Y-57957142D02*
X137882380Y-57290476D01*
X138882380Y-57719047D01*
M02*
